  0
SECTION
  2
HEADER
  9
$ACADVER
  1
AC1014
  9
$HANDSEED
  5
FFFF
  9
$MEASUREMENT
 70
     1
  0
ENDSEC
  0
SECTION
  2
TABLES
  0
TABLE
  2
VPORT
  5
8
330
0
100
AcDbSymbolTable
 70
     4
  0
VPORT
  5
2E
330
8
100
AcDbSymbolTableRecord
100
AcDbViewportTableRecord
  2
*ACTIVE
 70
     0
 10
0.0
 20
0.0
 11
1.0
 21
1.0
 12
210.0
 22
148.5
 13
0.0
 23
0.0
 14
10.0
 24
10.0
 15
10.0
 25
10.0
 16
0.0
 26
0.0
 36
1.0
 17
0.0
 27
0.0
 37
0.0
 40
341.0
 41
1.24
 42
50.0
 43
0.0
 44
0.0
 50
0.0
 51
0.0
 71
     0
 72
   100
 73
     1
 74
     3
 75
     0
 76
     0
 77
     0
 78
     0
  0
ENDTAB
  0
TABLE
  2
LTYPE
  5
5
330
0
100
AcDbSymbolTable
 70
     1
  0
LTYPE
  5
14
330
5
100
AcDbSymbolTableRecord
100
AcDbLinetypeTableRecord
  2
BYBLOCK
 70
     0
  3

 72
    65
 73
     0
 40
0.0
  0
LTYPE
  5
15
330
5
100
AcDbSymbolTableRecord
100
AcDbLinetypeTableRecord
  2
BYLAYER
 70
     0
  3

 72
    65
 73
     0
 40
0.0
  0
LTYPE
  5
16
330
5
100
AcDbSymbolTableRecord
100
AcDbLinetypeTableRecord
  2
CONTINUOUS
 70
     0
  3
Solid line
 72
    65
 73
     0
 40
0.0
  0
ENDTAB
  0
TABLE
  2
LAYER
  5
2
100
AcDbSymbolTable
 70
1
  0
LAYER
  5
50
100
AcDbSymbolTableRecord
100
AcDbLayerTableRecord
  2
0
 70
0
  6
CONTINUOUS
  0
ENDTAB
  0
TABLE
  2
STYLE
  5
3
330
0
100
AcDbSymbolTable
 70
     1
  0
STYLE
  5
11
330
3
100
AcDbSymbolTableRecord
100
AcDbTextStyleTableRecord
  2
STANDARD
 70
     0
 40
0.0
 41
1.0
 50
0.0
 71
     0
 42
2.5
  3
txt
  4

  0
ENDTAB
  0
TABLE
  2
VIEW
  5
6
330
0
100
AcDbSymbolTable
 70
     0
  0
ENDTAB
  0
TABLE
  2
UCS
  5
7
330
0
100
AcDbSymbolTable
 70
     0
  0
ENDTAB
  0
TABLE
  2
APPID
  5
9
330
0
100
AcDbSymbolTable
 70
     2
  0
APPID
  5
12
330
9
100
AcDbSymbolTableRecord
100
AcDbRegAppTableRecord
  2
ACAD
 70
     0
  0
ENDTAB
  0
TABLE
  2
DIMSTYLE
  5
A
330
0
100
AcDbSymbolTable
 70
     1
  0
DIMSTYLE
105
27
330
A
100
AcDbSymbolTableRecord
100
AcDbDimStyleTableRecord
  2
ISO-25
 70
     0
  3

  4

  5

  6

  7

 40
1.0
 41
2.5
 42
0.625
 43
3.75
 44
1.25
 45
0.0
 46
0.0
 47
0.0
 48
0.0
140
2.5
141
2.5
142
0.0
143
0.03937007874016
144
1.0
145
0.0
146
1.0
147
0.625
 71
     0
 72
     0
 73
     0
 74
     0
 75
     0
 76
     0
 77
     1
 78
     8
170
     0
171
     3
172
     1
173
     0
174
     0
175
     0
176
     0
177
     0
178
     0
270
     2
271
     2
272
     2
273
     2
274
     3
340
11
275
     0
280
     0
281
     0
282
     0
283
     0
284
     8
285
     0
286
     0
287
     3
288
     0
  0
ENDTAB
  0
TABLE
  2
BLOCK_RECORD
  5
1
330
0
100
AcDbSymbolTable
 70
     1
  0
BLOCK_RECORD
  5
1F
330
1
100
AcDbSymbolTableRecord
100
AcDbBlockTableRecord
  2
*MODEL_SPACE
  0
BLOCK_RECORD
  5
1B
330
1
100
AcDbSymbolTableRecord
100
AcDbBlockTableRecord
  2
*PAPER_SPACE
  0
ENDTAB
  0
ENDSEC
  0
SECTION
  2
BLOCKS
  0
BLOCK
  5
20
330
1F
100
AcDbEntity
  8
0
100
AcDbBlockBegin
  2
*MODEL_SPACE
 70
     0
 10
0.0
 20
0.0
 30
0.0
  3
*MODEL_SPACE
  1

  0
ENDBLK
  5
21
330
1F
100
AcDbEntity
  8
0
100
AcDbBlockEnd
  0
BLOCK
  5
1C
330
1B
100
AcDbEntity
 67
     1
  8
0
100
AcDbBlockBegin
  2
*PAPER_SPACE
  1

  0
ENDBLK
  5
1D
330
1B
100
AcDbEntity
 67
     1
  8
0
100
AcDbBlockEnd
  0
ENDSEC
  0
SECTION
  2
ENTITIES
  0
LINE
  5
100
100
AcDbEntity
  8
0
 62
7
100
AcDbLine
 10
11.614729
 20
7.626202
 30
0.0
 11
12.218202
 21
9.123498
 31
0.0
  0
LINE
  5
101
100
AcDbEntity
  8
0
 62
7
100
AcDbLine
 10
12.218202
 20
9.123498
 30
0.0
 11
13.041102
 21
10.492527
 31
0.0
  0
LINE
  5
102
100
AcDbEntity
  8
0
 62
7
100
AcDbLine
 10
13.041102
 20
10.492527
 30
0.0
 11
14.061427
 21
11.711289
 31
0.0
  0
LINE
  5
103
100
AcDbEntity
  8
0
 62
7
100
AcDbLine
 10
14.061427
 20
11.711289
 30
0.0
 11
15.257176
 21
12.757788
 31
0.0
  0
LINE
  5
104
100
AcDbEntity
  8
0
 62
7
100
AcDbLine
 10
15.257176
 20
12.757788
 30
0.0
 11
16.606345
 21
13.610025
 31
0.0
  0
LINE
  5
105
100
AcDbEntity
  8
0
 62
7
100
AcDbLine
 10
16.606345
 20
13.610025
 30
0.0
 11
18.086936
 21
14.246001
 31
0.0
  0
LINE
  5
106
100
AcDbEntity
  8
0
 62
7
100
AcDbLine
 10
18.086936
 20
14.246001
 30
0.0
 11
19.676944
 21
14.643719
 31
0.0
  0
LINE
  5
107
100
AcDbEntity
  8
0
 62
7
100
AcDbLine
 10
19.676944
 20
14.643719
 30
0.0
 11
21.354369
 21
14.781180
 31
0.0
  0
LINE
  5
108
100
AcDbEntity
  8
0
 62
7
100
AcDbLine
 10
21.354369
 20
14.781180
 30
0.0
 11
23.031794
 21
14.643719
 31
0.0
  0
LINE
  5
109
100
AcDbEntity
  8
0
 62
7
100
AcDbLine
 10
23.031794
 20
14.643719
 30
0.0
 11
24.621803
 21
14.246001
 31
0.0
  0
LINE
  5
10a
100
AcDbEntity
  8
0
 62
7
100
AcDbLine
 10
24.621803
 20
14.246001
 30
0.0
 11
26.102396
 21
13.610025
 31
0.0
  0
LINE
  5
10b
100
AcDbEntity
  8
0
 62
7
100
AcDbLine
 10
26.102396
 20
13.610025
 30
0.0
 11
27.451570
 21
12.757788
 31
0.0
  0
LINE
  5
10c
100
AcDbEntity
  8
0
 62
7
100
AcDbLine
 10
27.451570
 20
12.757788
 30
0.0
 11
28.647326
 21
11.711289
 31
0.0
  0
LINE
  5
10d
100
AcDbEntity
  8
0
 62
7
100
AcDbLine
 10
28.647326
 20
11.711289
 30
0.0
 11
29.667663
 21
10.492527
 31
0.0
  0
LINE
  5
10e
100
AcDbEntity
  8
0
 62
7
100
AcDbLine
 10
29.667663
 20
10.492527
 30
0.0
 11
30.490577
 21
9.123498
 31
0.0
  0
LINE
  5
10f
100
AcDbEntity
  8
0
 62
7
100
AcDbLine
 10
30.490577
 20
9.123498
 30
0.0
 11
31.094070
 21
7.626202
 31
0.0
  0
LINE
  5
110
100
AcDbEntity
  8
0
 62
7
100
AcDbLine
 10
31.094070
 20
7.626202
 30
0.0
 11
31.094070
 21
7.626202
 31
0.0
  0
LINE
  5
111
100
AcDbEntity
  8
0
 62
7
100
AcDbLine
 10
31.094070
 20
7.626202
 30
0.0
 11
31.094132
 21
7.625951
 31
0.0
  0
LINE
  5
112
100
AcDbEntity
  8
0
 62
7
100
AcDbLine
 10
31.094132
 20
7.625951
 30
0.0
 11
31.188655
 21
7.305369
 31
0.0
  0
LINE
  5
113
100
AcDbEntity
  8
0
 62
7
100
AcDbLine
 10
31.188655
 20
7.305369
 30
0.0
 11
31.927092
 21
5.929957
 31
0.0
  0
LINE
  5
114
100
AcDbEntity
  8
0
 62
7
100
AcDbLine
 10
31.927092
 20
5.929957
 30
0.0
 11
32.973257
 21
5.033865
 31
0.0
  0
LINE
  5
115
100
AcDbEntity
  8
0
 62
7
100
AcDbLine
 10
32.973257
 20
5.033865
 30
0.0
 11
34.201956
 21
4.525881
 31
0.0
  0
LINE
  5
116
100
AcDbEntity
  8
0
 62
7
100
AcDbLine
 10
34.201956
 20
4.525881
 30
0.0
 11
35.487995
 21
4.314794
 31
0.0
  0
LINE
  5
117
100
AcDbEntity
  8
0
 62
7
100
AcDbLine
 10
35.487995
 20
4.314794
 30
0.0
 11
36.706179
 21
4.309391
 31
0.0
  0
LINE
  5
118
100
AcDbEntity
  8
0
 62
7
100
AcDbLine
 10
36.706179
 20
4.309391
 30
0.0
 11
37.731314
 21
4.418461
 31
0.0
  0
LINE
  5
119
100
AcDbEntity
  8
0
 62
7
100
AcDbLine
 10
37.731314
 20
4.418461
 30
0.0
 11
38.438204
 21
4.550792
 31
0.0
  0
LINE
  5
11a
100
AcDbEntity
  8
0
 62
7
100
AcDbLine
 10
38.438204
 20
4.550792
 30
0.0
 11
38.701655
 21
4.615171
 31
0.0
  0
LINE
  5
11b
100
AcDbEntity
  8
0
 62
7
100
AcDbLine
 10
38.701655
 20
4.615171
 30
0.0
 11
42.708749
 21
-5.735716
 31
0.0
  0
LINE
  5
11c
100
AcDbEntity
  8
0
 62
7
100
AcDbLine
 10
42.708749
 20
-5.735716
 30
0.0
 11
27.491253
 21
-11.626779
 31
0.0
  0
LINE
  5
11d
100
AcDbEntity
  8
0
 62
7
100
AcDbLine
 10
27.491253
 20
-11.626779
 30
0.0
 11
24.918643
 21
-4.981491
 31
0.0
  0
LINE
  5
11e
100
AcDbEntity
  8
0
 62
7
100
AcDbLine
 10
24.918643
 20
-4.981491
 30
0.0
 11
24.907808
 21
-4.985526
 31
0.0
  0
LINE
  5
11f
100
AcDbEntity
  8
0
 62
7
100
AcDbLine
 10
24.907808
 20
-4.985526
 30
0.0
 11
23.483787
 21
-1.274850
 31
0.0
  0
LINE
  5
120
100
AcDbEntity
  8
0
 62
7
100
AcDbLine
 10
23.483787
 20
-1.274850
 30
0.0
 11
23.803084
 21
-1.141477
 31
0.0
  0
LINE
  5
121
100
AcDbEntity
  8
0
 62
7
100
AcDbLine
 10
23.803084
 20
-1.141477
 30
0.0
 11
25.034389
 21
-0.391474
 31
0.0
  0
LINE
  5
122
100
AcDbEntity
  8
0
 62
7
100
AcDbLine
 10
25.034389
 20
-0.391474
 30
0.0
 11
26.277976
 21
0.950512
 31
0.0
  0
LINE
  5
123
100
AcDbEntity
  8
0
 62
7
100
AcDbLine
 10
26.277976
 20
0.950512
 30
0.0
 11
27.056932
 21
2.607131
 31
0.0
  0
LINE
  5
124
100
AcDbEntity
  8
0
 62
7
100
AcDbLine
 10
27.056932
 20
2.607131
 30
0.0
 11
27.183834
 21
5.168316
 31
0.0
  0
LINE
  5
125
100
AcDbEntity
  8
0
 62
7
100
AcDbLine
 10
27.183834
 20
5.168316
 30
0.0
 11
26.925029
 21
6.326801
 31
0.0
  0
LINE
  5
126
100
AcDbEntity
  8
0
 62
7
100
AcDbLine
 10
26.925029
 20
6.326801
 30
0.0
 11
26.055618
 21
7.887282
 31
0.0
  0
LINE
  5
127
100
AcDbEntity
  8
0
 62
7
100
AcDbLine
 10
26.055618
 20
7.887282
 30
0.0
 11
24.775224
 21
9.117334
 31
0.0
  0
LINE
  5
128
100
AcDbEntity
  8
0
 62
7
100
AcDbLine
 10
24.775224
 20
9.117334
 30
0.0
 11
23.177065
 21
9.923732
 31
0.0
  0
LINE
  5
129
100
AcDbEntity
  8
0
 62
7
100
AcDbLine
 10
23.177065
 20
9.923732
 30
0.0
 11
21.354363
 21
10.213248
 31
0.0
  0
LINE
  5
12a
100
AcDbEntity
  8
0
 62
7
100
AcDbLine
 10
21.354363
 20
10.213248
 30
0.0
 11
19.531663
 21
9.923732
 31
0.0
  0
LINE
  5
12b
100
AcDbEntity
  8
0
 62
7
100
AcDbLine
 10
19.531663
 20
9.923732
 30
0.0
 11
17.933510
 21
9.117334
 31
0.0
  0
LINE
  5
12c
100
AcDbEntity
  8
0
 62
7
100
AcDbLine
 10
17.933510
 20
9.117334
 30
0.0
 11
16.653134
 21
7.887282
 31
0.0
  0
LINE
  5
12d
100
AcDbEntity
  8
0
 62
7
100
AcDbLine
 10
16.653134
 20
7.887282
 30
0.0
 11
15.783760
 21
6.326801
 31
0.0
  0
LINE
  5
12e
100
AcDbEntity
  8
0
 62
7
100
AcDbLine
 10
15.783760
 20
6.326801
 30
0.0
 11
15.524931
 21
5.168385
 31
0.0
  0
LINE
  5
12f
100
AcDbEntity
  8
0
 62
7
100
AcDbLine
 10
15.524931
 20
5.168385
 30
0.0
 11
15.651856
 21
2.607131
 31
0.0
  0
LINE
  5
130
100
AcDbEntity
  8
0
 62
7
100
AcDbLine
 10
15.651856
 20
2.607131
 30
0.0
 11
16.430789
 21
0.950512
 31
0.0
  0
LINE
  5
131
100
AcDbEntity
  8
0
 62
7
100
AcDbLine
 10
16.430789
 20
0.950512
 30
0.0
 11
17.674399
 21
-0.391474
 31
0.0
  0
LINE
  5
132
100
AcDbEntity
  8
0
 62
7
100
AcDbLine
 10
17.674399
 20
-0.391474
 30
0.0
 11
18.905703
 21
-1.141477
 31
0.0
  0
LINE
  5
133
100
AcDbEntity
  8
0
 62
7
100
AcDbLine
 10
18.905703
 20
-1.141477
 30
0.0
 11
19.225000
 21
-1.274850
 31
0.0
  0
LINE
  5
134
100
AcDbEntity
  8
0
 62
7
100
AcDbLine
 10
19.225000
 20
-1.274850
 30
0.0
 11
19.220344
 21
-1.286955
 31
0.0
  0
LINE
  5
135
100
AcDbEntity
  8
0
 62
7
100
AcDbLine
 10
19.220344
 20
-1.286955
 30
0.0
 11
17.800912
 21
-4.985518
 31
0.0
  0
LINE
  5
136
100
AcDbEntity
  8
0
 62
7
100
AcDbLine
 10
17.800912
 20
-4.985518
 30
0.0
 11
17.790078
 21
-4.981483
 31
0.0
  0
LINE
  5
137
100
AcDbEntity
  8
0
 62
7
100
AcDbLine
 10
17.790078
 20
-4.981483
 30
0.0
 11
15.217528
 21
-11.626772
 31
0.0
  0
LINE
  5
138
100
AcDbEntity
  8
0
 62
7
100
AcDbLine
 10
15.217528
 20
-11.626772
 30
0.0
 11
-0.000010
 21
-5.735710
 31
0.0
  0
LINE
  5
139
100
AcDbEntity
  8
0
 62
7
100
AcDbLine
 10
-0.000010
 20
-5.735710
 30
0.0
 11
4.007083
 21
4.615178
 31
0.0
  0
LINE
  5
13a
100
AcDbEntity
  8
0
 62
7
100
AcDbLine
 10
4.007083
 20
4.615178
 30
0.0
 11
4.270534
 21
4.550798
 31
0.0
  0
LINE
  5
13b
100
AcDbEntity
  8
0
 62
7
100
AcDbLine
 10
4.270534
 20
4.550798
 30
0.0
 11
4.977424
 21
4.418467
 31
0.0
  0
LINE
  5
13c
100
AcDbEntity
  8
0
 62
7
100
AcDbLine
 10
4.977424
 20
4.418467
 30
0.0
 11
6.002558
 21
4.309397
 31
0.0
  0
LINE
  5
13d
100
AcDbEntity
  8
0
 62
7
100
AcDbLine
 10
6.002558
 20
4.309397
 30
0.0
 11
7.220743
 21
4.314800
 31
0.0
  0
LINE
  5
13e
100
AcDbEntity
  8
0
 62
7
100
AcDbLine
 10
7.220743
 20
4.314800
 30
0.0
 11
8.506782
 21
4.525887
 31
0.0
  0
LINE
  5
13f
100
AcDbEntity
  8
0
 62
7
100
AcDbLine
 10
8.506782
 20
4.525887
 30
0.0
 11
9.735482
 21
5.033871
 31
0.0
  0
LINE
  5
140
100
AcDbEntity
  8
0
 62
7
100
AcDbLine
 10
9.735482
 20
5.033871
 30
0.0
 11
10.781647
 21
5.929963
 31
0.0
  0
LINE
  5
141
100
AcDbEntity
  8
0
 62
7
100
AcDbLine
 10
10.781647
 20
5.929963
 30
0.0
 11
11.520084
 21
7.305376
 31
0.0
  0
LINE
  5
142
100
AcDbEntity
  8
0
 62
7
100
AcDbLine
 10
11.520084
 20
7.305376
 30
0.0
 11
11.614668
 21
7.625958
 31
0.0
  0
LINE
  5
143
100
AcDbEntity
  8
0
 62
7
100
AcDbLine
 10
11.614668
 20
7.625958
 30
0.0
 11
11.614729
 21
7.626202
 31
0.0
  0
LINE
  5
144
100
AcDbEntity
  8
0
 62
7
100
AcDbLine
 10
52.048904
 20
6.688505
 30
0.0
 11
52.006262
 21
6.060000
 31
0.0
  0
LINE
  5
145
100
AcDbEntity
  8
0
 62
7
100
AcDbLine
 10
52.006262
 20
6.060000
 30
0.0
 11
51.878343
 21
5.504488
 31
0.0
  0
LINE
  5
146
100
AcDbEntity
  8
0
 62
7
100
AcDbLine
 10
51.878343
 20
5.504488
 30
0.0
 11
51.665156
 21
5.021970
 31
0.0
  0
LINE
  5
147
100
AcDbEntity
  8
0
 62
7
100
AcDbLine
 10
51.665156
 20
5.021970
 30
0.0
 11
51.366709
 21
4.612445
 31
0.0
  0
LINE
  5
148
100
AcDbEntity
  8
0
 62
7
100
AcDbLine
 10
51.366709
 20
4.612445
 30
0.0
 11
50.992148
 21
4.286093
 31
0.0
  0
LINE
  5
149
100
AcDbEntity
  8
0
 62
7
100
AcDbLine
 10
50.992148
 20
4.286093
 30
0.0
 11
50.550748
 21
4.052963
 31
0.0
  0
LINE
  5
14a
100
AcDbEntity
  8
0
 62
7
100
AcDbLine
 10
50.550748
 20
4.052963
 30
0.0
 11
50.042501
 21
3.913071
 31
0.0
  0
LINE
  5
14b
100
AcDbEntity
  8
0
 62
7
100
AcDbLine
 10
50.042501
 20
3.913071
 30
0.0
 11
49.467399
 21
3.866437
 31
0.0
  0
LINE
  5
14c
100
AcDbEntity
  8
0
 62
7
100
AcDbLine
 10
49.467399
 20
3.866437
 30
0.0
 11
49.098054
 21
3.887919
 31
0.0
  0
LINE
  5
14d
100
AcDbEntity
  8
0
 62
7
100
AcDbLine
 10
49.098054
 20
3.887919
 30
0.0
 11
48.750804
 21
3.952355
 31
0.0
  0
LINE
  5
14e
100
AcDbEntity
  8
0
 62
7
100
AcDbLine
 10
48.750804
 20
3.952355
 30
0.0
 11
48.425642
 21
4.059727
 31
0.0
  0
LINE
  5
14f
100
AcDbEntity
  8
0
 62
7
100
AcDbLine
 10
48.425642
 20
4.059727
 30
0.0
 11
48.122560
 21
4.210015
 31
0.0
  0
LINE
  5
150
100
AcDbEntity
  8
0
 62
7
100
AcDbLine
 10
48.122560
 20
4.210015
 30
0.0
 11
47.847444
 21
4.400525
 31
0.0
  0
LINE
  5
151
100
AcDbEntity
  8
0
 62
7
100
AcDbLine
 10
47.847444
 20
4.400525
 30
0.0
 11
47.606051
 21
4.628434
 31
0.0
  0
LINE
  5
152
100
AcDbEntity
  8
0
 62
7
100
AcDbLine
 10
47.606051
 20
4.628434
 30
0.0
 11
47.398400
 21
4.893753
 31
0.0
  0
LINE
  5
153
100
AcDbEntity
  8
0
 62
7
100
AcDbLine
 10
47.398400
 20
4.893753
 30
0.0
 11
47.224511
 21
5.196489
 31
0.0
  0
LINE
  5
154
100
AcDbEntity
  8
0
 62
7
100
AcDbLine
 10
47.224511
 20
5.196489
 30
0.0
 11
47.087077
 21
5.530830
 31
0.0
  0
LINE
  5
155
100
AcDbEntity
  8
0
 62
7
100
AcDbLine
 10
47.087077
 20
5.530830
 30
0.0
 11
46.988919
 21
5.890953
 31
0.0
  0
LINE
  5
156
100
AcDbEntity
  8
0
 62
7
100
AcDbLine
 10
46.988919
 20
5.890953
 30
0.0
 11
46.930033
 21
6.276848
 31
0.0
  0
LINE
  5
157
100
AcDbEntity
  8
0
 62
7
100
AcDbLine
 10
46.930033
 20
6.276848
 30
0.0
 11
46.910406
 21
6.688505
 31
0.0
  0
LINE
  5
158
100
AcDbEntity
  8
0
 62
7
100
AcDbLine
 10
46.910406
 20
6.688505
 30
0.0
 11
46.952725
 21
7.312416
 31
0.0
  0
LINE
  5
159
100
AcDbEntity
  8
0
 62
7
100
AcDbLine
 10
46.952725
 20
7.312416
 30
0.0
 11
47.079691
 21
7.863925
 31
0.0
  0
LINE
  5
15a
100
AcDbEntity
  8
0
 62
7
100
AcDbLine
 10
47.079691
 20
7.863925
 30
0.0
 11
47.291323
 21
8.343044
 31
0.0
  0
LINE
  5
15b
100
AcDbEntity
  8
0
 62
7
100
AcDbLine
 10
47.291323
 20
8.343044
 30
0.0
 11
47.587641
 21
8.749780
 31
0.0
  0
LINE
  5
15c
100
AcDbEntity
  8
0
 62
7
100
AcDbLine
 10
47.587641
 20
8.749780
 30
0.0
 11
47.960962
 21
9.074001
 31
0.0
  0
LINE
  5
15d
100
AcDbEntity
  8
0
 62
7
100
AcDbLine
 10
47.960962
 20
9.074001
 30
0.0
 11
48.403590
 21
9.305577
 31
0.0
  0
LINE
  5
15e
100
AcDbEntity
  8
0
 62
7
100
AcDbLine
 10
48.403590
 20
9.305577
 30
0.0
 11
48.915528
 21
9.444516
 31
0.0
  0
LINE
  5
15f
100
AcDbEntity
  8
0
 62
7
100
AcDbLine
 10
48.915528
 20
9.444516
 30
0.0
 11
49.496776
 21
9.490827
 31
0.0
  0
LINE
  5
160
100
AcDbEntity
  8
0
 62
7
100
AcDbLine
 10
49.496776
 20
9.490827
 30
0.0
 11
50.055063
 21
9.443440
 31
0.0
  0
LINE
  5
161
100
AcDbEntity
  8
0
 62
7
100
AcDbLine
 10
50.055063
 20
9.443440
 30
0.0
 11
50.551976
 21
9.301273
 31
0.0
  0
LINE
  5
162
100
AcDbEntity
  8
0
 62
7
100
AcDbLine
 10
50.551976
 20
9.301273
 30
0.0
 11
50.987530
 21
9.064317
 31
0.0
  0
LINE
  5
163
100
AcDbEntity
  8
0
 62
7
100
AcDbLine
 10
50.987530
 20
9.064317
 30
0.0
 11
51.361747
 21
8.732562
 31
0.0
  0
LINE
  5
164
100
AcDbEntity
  8
0
 62
7
100
AcDbLine
 10
51.361747
 20
8.732562
 30
0.0
 11
51.662364
 21
8.320486
 31
0.0
  0
LINE
  5
165
100
AcDbEntity
  8
0
 62
7
100
AcDbLine
 10
51.662364
 20
8.320486
 30
0.0
 11
51.877102
 21
7.842439
 31
0.0
  0
LINE
  5
166
100
AcDbEntity
  8
0
 62
7
100
AcDbLine
 10
51.877102
 20
7.842439
 30
0.0
 11
52.005953
 21
7.298440
 31
0.0
  0
LINE
  5
167
100
AcDbEntity
  8
0
 62
7
100
AcDbLine
 10
52.005953
 20
7.298440
 30
0.0
 11
52.048904
 21
6.688505
 31
0.0
  0
LINE
  5
168
100
AcDbEntity
  8
0
 62
7
100
AcDbLine
 10
48.098047
 20
6.688505
 30
0.0
 11
48.184863
 21
5.866138
 31
0.0
  0
LINE
  5
169
100
AcDbEntity
  8
0
 62
7
100
AcDbLine
 10
48.184863
 20
5.866138
 30
0.0
 11
48.445297
 21
5.278711
 31
0.0
  0
LINE
  5
16a
100
AcDbEntity
  8
0
 62
7
100
AcDbLine
 10
48.445297
 20
5.278711
 30
0.0
 11
48.879333
 21
4.926241
 31
0.0
  0
LINE
  5
16b
100
AcDbEntity
  8
0
 62
7
100
AcDbLine
 10
48.879333
 20
4.926241
 30
0.0
 11
49.486951
 21
4.808747
 31
0.0
  0
LINE
  5
16c
100
AcDbEntity
  8
0
 62
7
100
AcDbLine
 10
49.486951
 20
4.808747
 30
0.0
 11
50.088170
 21
4.926241
 31
0.0
  0
LINE
  5
16d
100
AcDbEntity
  8
0
 62
7
100
AcDbLine
 10
50.088170
 20
4.926241
 30
0.0
 11
50.517613
 21
5.278711
 31
0.0
  0
LINE
  5
16e
100
AcDbEntity
  8
0
 62
7
100
AcDbLine
 10
50.517613
 20
5.278711
 30
0.0
 11
50.775278
 21
5.866138
 31
0.0
  0
LINE
  5
16f
100
AcDbEntity
  8
0
 62
7
100
AcDbLine
 10
50.775278
 20
5.866138
 30
0.0
 11
50.861166
 21
6.688505
 31
0.0
  0
LINE
  5
170
100
AcDbEntity
  8
0
 62
7
100
AcDbLine
 10
50.861166
 20
6.688505
 30
0.0
 11
50.774672
 21
7.502287
 31
0.0
  0
LINE
  5
171
100
AcDbEntity
  8
0
 62
7
100
AcDbLine
 10
50.774672
 20
7.502287
 30
0.0
 11
50.515181
 21
8.083538
 31
0.0
  0
LINE
  5
172
100
AcDbEntity
  8
0
 62
7
100
AcDbLine
 10
50.515181
 20
8.083538
 30
0.0
 11
50.082672
 21
8.432275
 31
0.0
  0
LINE
  5
173
100
AcDbEntity
  8
0
 62
7
100
AcDbLine
 10
50.082672
 20
8.432275
 30
0.0
 11
49.477126
 21
8.548516
 31
0.0
  0
LINE
  5
174
100
AcDbEntity
  8
0
 62
7
100
AcDbLine
 10
49.477126
 20
8.548516
 30
0.0
 11
49.138952
 21
8.518458
 31
0.0
  0
LINE
  5
175
100
AcDbEntity
  8
0
 62
7
100
AcDbLine
 10
49.138952
 20
8.518458
 30
0.0
 11
48.850779
 21
8.428283
 31
0.0
  0
LINE
  5
176
100
AcDbEntity
  8
0
 62
7
100
AcDbLine
 10
48.850779
 20
8.428283
 30
0.0
 11
48.612602
 21
8.277992
 31
0.0
  0
LINE
  5
177
100
AcDbEntity
  8
0
 62
7
100
AcDbLine
 10
48.612602
 20
8.277992
 30
0.0
 11
48.424408
 21
8.067584
 31
0.0
  0
LINE
  5
178
100
AcDbEntity
  8
0
 62
7
100
AcDbLine
 10
48.424408
 20
8.067584
 30
0.0
 11
48.281653
 21
7.801038
 31
0.0
  0
LINE
  5
179
100
AcDbEntity
  8
0
 62
7
100
AcDbLine
 10
48.281653
 20
7.801038
 30
0.0
 11
48.179661
 21
7.482337
 31
0.0
  0
LINE
  5
17a
100
AcDbEntity
  8
0
 62
7
100
AcDbLine
 10
48.179661
 20
7.482337
 30
0.0
 11
48.118454
 21
7.111489
 31
0.0
  0
LINE
  5
17b
100
AcDbEntity
  8
0
 62
7
100
AcDbLine
 10
48.118454
 20
7.111489
 30
0.0
 11
48.098047
 21
6.688505
 31
0.0
  0
LINE
  5
17c
100
AcDbEntity
  8
0
 62
7
100
AcDbLine
 10
56.127291
 20
3.866437
 30
0.0
 11
55.640815
 21
3.912763
 31
0.0
  0
LINE
  5
17d
100
AcDbEntity
  8
0
 62
7
100
AcDbLine
 10
55.640815
 20
3.912763
 30
0.0
 11
55.211986
 21
4.051735
 31
0.0
  0
LINE
  5
17e
100
AcDbEntity
  8
0
 62
7
100
AcDbLine
 10
55.211986
 20
4.051735
 30
0.0
 11
54.840810
 21
4.283344
 31
0.0
  0
LINE
  5
17f
100
AcDbEntity
  8
0
 62
7
100
AcDbLine
 10
54.840810
 20
4.283344
 30
0.0
 11
54.527298
 21
4.607581
 31
0.0
  0
LINE
  5
180
100
AcDbEntity
  8
0
 62
7
100
AcDbLine
 10
54.527298
 20
4.607581
 30
0.0
 11
54.510128
 21
4.607581
 31
0.0
  0
LINE
  5
181
100
AcDbEntity
  8
0
 62
7
100
AcDbLine
 10
54.510128
 20
4.607581
 30
0.0
 11
54.492960
 21
4.607581
 31
0.0
  0
LINE
  5
182
100
AcDbEntity
  8
0
 62
7
100
AcDbLine
 10
54.492960
 20
4.607581
 30
0.0
 11
54.475790
 21
4.607581
 31
0.0
  0
LINE
  5
183
100
AcDbEntity
  8
0
 62
7
100
AcDbLine
 10
54.475790
 20
4.607581
 30
0.0
 11
54.458621
 21
4.607581
 31
0.0
  0
LINE
  5
184
100
AcDbEntity
  8
0
 62
7
100
AcDbLine
 10
54.458621
 20
4.607581
 30
0.0
 11
54.488680
 21
4.297770
 31
0.0
  0
LINE
  5
185
100
AcDbEntity
  8
0
 62
7
100
AcDbLine
 10
54.488680
 20
4.297770
 30
0.0
 11
54.510140
 21
4.055443
 31
0.0
  0
LINE
  5
186
100
AcDbEntity
  8
0
 62
7
100
AcDbLine
 10
54.510140
 20
4.055443
 30
0.0
 11
54.523014
 21
3.880602
 31
0.0
  0
LINE
  5
187
100
AcDbEntity
  8
0
 62
7
100
AcDbLine
 10
54.523014
 20
3.880602
 30
0.0
 11
54.527301
 21
3.773246
 31
0.0
  0
LINE
  5
188
100
AcDbEntity
  8
0
 62
7
100
AcDbLine
 10
54.527301
 20
3.773246
 30
0.0
 11
54.527301
 21
3.217437
 31
0.0
  0
LINE
  5
189
100
AcDbEntity
  8
0
 62
7
100
AcDbLine
 10
54.527301
 20
3.217437
 30
0.0
 11
54.527301
 21
2.661627
 31
0.0
  0
LINE
  5
18a
100
AcDbEntity
  8
0
 62
7
100
AcDbLine
 10
54.527301
 20
2.661627
 30
0.0
 11
54.527301
 21
2.105817
 31
0.0
  0
LINE
  5
18b
100
AcDbEntity
  8
0
 62
7
100
AcDbLine
 10
54.527301
 20
2.105817
 30
0.0
 11
54.527301
 21
1.550008
 31
0.0
  0
LINE
  5
18c
100
AcDbEntity
  8
0
 62
7
100
AcDbLine
 10
54.527301
 20
1.550008
 30
0.0
 11
54.238974
 21
1.550008
 31
0.0
  0
LINE
  5
18d
100
AcDbEntity
  8
0
 62
7
100
AcDbLine
 10
54.238974
 20
1.550008
 30
0.0
 11
53.950649
 21
1.550008
 31
0.0
  0
LINE
  5
18e
100
AcDbEntity
  8
0
 62
7
100
AcDbLine
 10
53.950649
 20
1.550008
 30
0.0
 11
53.662323
 21
1.550008
 31
0.0
  0
LINE
  5
18f
100
AcDbEntity
  8
0
 62
7
100
AcDbLine
 10
53.662323
 20
1.550008
 30
0.0
 11
53.373998
 21
1.550008
 31
0.0
  0
LINE
  5
190
100
AcDbEntity
  8
0
 62
7
100
AcDbLine
 10
53.373998
 20
1.550008
 30
0.0
 11
53.373998
 21
3.510675
 31
0.0
  0
LINE
  5
191
100
AcDbEntity
  8
0
 62
7
100
AcDbLine
 10
53.373998
 20
3.510675
 30
0.0
 11
53.373998
 21
5.471342
 31
0.0
  0
LINE
  5
192
100
AcDbEntity
  8
0
 62
7
100
AcDbLine
 10
53.373998
 20
5.471342
 30
0.0
 11
53.373998
 21
7.432009
 31
0.0
  0
LINE
  5
193
100
AcDbEntity
  8
0
 62
7
100
AcDbLine
 10
53.373998
 20
7.432009
 30
0.0
 11
53.373998
 21
9.392676
 31
0.0
  0
LINE
  5
194
100
AcDbEntity
  8
0
 62
7
100
AcDbLine
 10
53.373998
 20
9.392676
 30
0.0
 11
53.607120
 21
9.392676
 31
0.0
  0
LINE
  5
195
100
AcDbEntity
  8
0
 62
7
100
AcDbLine
 10
53.607120
 20
9.392676
 30
0.0
 11
53.840241
 21
9.392676
 31
0.0
  0
LINE
  5
196
100
AcDbEntity
  8
0
 62
7
100
AcDbLine
 10
53.840241
 20
9.392676
 30
0.0
 11
54.073363
 21
9.392676
 31
0.0
  0
LINE
  5
197
100
AcDbEntity
  8
0
 62
7
100
AcDbLine
 10
54.073363
 20
9.392676
 30
0.0
 11
54.306484
 21
9.392676
 31
0.0
  0
LINE
  5
198
100
AcDbEntity
  8
0
 62
7
100
AcDbLine
 10
54.306484
 20
9.392676
 30
0.0
 11
54.331326
 21
9.290262
 31
0.0
  0
LINE
  5
199
100
AcDbEntity
  8
0
 62
7
100
AcDbLine
 10
54.331326
 20
9.290262
 30
0.0
 11
54.366601
 21
9.135065
 31
0.0
  0
LINE
  5
19a
100
AcDbEntity
  8
0
 62
7
100
AcDbLine
 10
54.366601
 20
9.135065
 30
0.0
 11
54.412309
 21
8.927083
 31
0.0
  0
LINE
  5
19b
100
AcDbEntity
  8
0
 62
7
100
AcDbLine
 10
54.412309
 20
8.927083
 30
0.0
 11
54.468449
 21
8.666317
 31
0.0
  0
LINE
  5
19c
100
AcDbEntity
  8
0
 62
7
100
AcDbLine
 10
54.468449
 20
8.666317
 30
0.0
 11
54.483157
 21
8.666317
 31
0.0
  0
LINE
  5
19d
100
AcDbEntity
  8
0
 62
7
100
AcDbLine
 10
54.483157
 20
8.666317
 30
0.0
 11
54.497864
 21
8.666317
 31
0.0
  0
LINE
  5
19e
100
AcDbEntity
  8
0
 62
7
100
AcDbLine
 10
54.497864
 20
8.666317
 30
0.0
 11
54.512571
 21
8.666317
 31
0.0
  0
LINE
  5
19f
100
AcDbEntity
  8
0
 62
7
100
AcDbLine
 10
54.512571
 20
8.666317
 30
0.0
 11
54.527279
 21
8.666317
 31
0.0
  0
LINE
  5
1a0
100
AcDbEntity
  8
0
 62
7
100
AcDbLine
 10
54.527279
 20
8.666317
 30
0.0
 11
54.830961
 21
9.027054
 31
0.0
  0
LINE
  5
1a1
100
AcDbEntity
  8
0
 62
7
100
AcDbLine
 10
54.830961
 20
9.027054
 30
0.0
 11
55.202129
 21
9.284711
 31
0.0
  0
LINE
  5
1a2
100
AcDbEntity
  8
0
 62
7
100
AcDbLine
 10
55.202129
 20
9.284711
 30
0.0
 11
55.640783
 21
9.439300
 31
0.0
  0
LINE
  5
1a3
100
AcDbEntity
  8
0
 62
7
100
AcDbLine
 10
55.640783
 20
9.439300
 30
0.0
 11
56.146920
 21
9.490827
 31
0.0
  0
LINE
  5
1a4
100
AcDbEntity
  8
0
 62
7
100
AcDbLine
 10
56.146920
 20
9.490827
 30
0.0
 11
56.626793
 21
9.444824
 31
0.0
  0
LINE
  5
1a5
100
AcDbEntity
  8
0
 62
7
100
AcDbLine
 10
56.626793
 20
9.444824
 30
0.0
 11
57.050552
 21
9.306805
 31
0.0
  0
LINE
  5
1a6
100
AcDbEntity
  8
0
 62
7
100
AcDbLine
 10
57.050552
 20
9.306805
 30
0.0
 11
57.418190
 21
9.076751
 31
0.0
  0
LINE
  5
1a7
100
AcDbEntity
  8
0
 62
7
100
AcDbLine
 10
57.418190
 20
9.076751
 30
0.0
 11
57.729696
 21
8.754643
 31
0.0
  0
LINE
  5
1a8
100
AcDbEntity
  8
0
 62
7
100
AcDbLine
 10
57.729696
 20
8.754643
 30
0.0
 11
57.977696
 21
8.349459
 31
0.0
  0
LINE
  5
1a9
100
AcDbEntity
  8
0
 62
7
100
AcDbLine
 10
57.977696
 20
8.349459
 30
0.0
 11
58.154828
 21
7.870042
 31
0.0
  0
LINE
  5
1aa
100
AcDbEntity
  8
0
 62
7
100
AcDbLine
 10
58.154828
 20
7.870042
 30
0.0
 11
58.261101
 21
7.316390
 31
0.0
  0
LINE
  5
1ab
100
AcDbEntity
  8
0
 62
7
100
AcDbLine
 10
58.261101
 20
7.316390
 30
0.0
 11
58.296522
 21
6.688505
 31
0.0
  0
LINE
  5
1ac
100
AcDbEntity
  8
0
 62
7
100
AcDbLine
 10
58.296522
 20
6.688505
 30
0.0
 11
58.260481
 21
6.060000
 31
0.0
  0
LINE
  5
1ad
100
AcDbEntity
  8
0
 62
7
100
AcDbLine
 10
58.260481
 20
6.060000
 30
0.0
 11
58.152360
 21
5.504488
 31
0.0
  0
LINE
  5
1ae
100
AcDbEntity
  8
0
 62
7
100
AcDbLine
 10
58.152360
 20
5.504488
 30
0.0
 11
57.972156
 21
5.021970
 31
0.0
  0
LINE
  5
1af
100
AcDbEntity
  8
0
 62
7
100
AcDbLine
 10
57.972156
 20
5.021970
 30
0.0
 11
57.719871
 21
4.612445
 31
0.0
  0
LINE
  5
1b0
100
AcDbEntity
  8
0
 62
7
100
AcDbLine
 10
57.719871
 20
4.612445
 30
0.0
 11
57.404080
 21
4.286093
 31
0.0
  0
LINE
  5
1b1
100
AcDbEntity
  8
0
 62
7
100
AcDbLine
 10
57.404080
 20
4.286093
 30
0.0
 11
57.033370
 21
4.052963
 31
0.0
  0
LINE
  5
1b2
100
AcDbEntity
  8
0
 62
7
100
AcDbLine
 10
57.033370
 20
4.052963
 30
0.0
 11
56.607762
 21
3.913071
 31
0.0
  0
LINE
  5
1b3
100
AcDbEntity
  8
0
 62
7
100
AcDbLine
 10
56.607762
 20
3.913071
 30
0.0
 11
56.127291
 21
3.866437
 31
0.0
  0
LINE
  5
1b4
100
AcDbEntity
  8
0
 62
7
100
AcDbLine
 10
55.847526
 20
8.548516
 30
0.0
 11
55.527136
 21
8.523364
 31
0.0
  0
LINE
  5
1b5
100
AcDbEntity
  8
0
 62
7
100
AcDbLine
 10
55.527136
 20
8.523364
 30
0.0
 11
55.253072
 21
8.447909
 31
0.0
  0
LINE
  5
1b6
100
AcDbEntity
  8
0
 62
7
100
AcDbLine
 10
55.253072
 20
8.447909
 30
0.0
 11
55.025337
 21
8.322149
 31
0.0
  0
LINE
  5
1b7
100
AcDbEntity
  8
0
 62
7
100
AcDbLine
 10
55.025337
 20
8.322149
 30
0.0
 11
54.843930
 21
8.146086
 31
0.0
  0
LINE
  5
1b8
100
AcDbEntity
  8
0
 62
7
100
AcDbLine
 10
54.843930
 20
8.146086
 30
0.0
 11
54.705404
 21
7.914813
 31
0.0
  0
LINE
  5
1b9
100
AcDbEntity
  8
0
 62
7
100
AcDbLine
 10
54.705404
 20
7.914813
 30
0.0
 11
54.606455
 21
7.623423
 31
0.0
  0
LINE
  5
1ba
100
AcDbEntity
  8
0
 62
7
100
AcDbLine
 10
54.606455
 20
7.623423
 30
0.0
 11
54.547087
 21
7.271917
 31
0.0
  0
LINE
  5
1bb
100
AcDbEntity
  8
0
 62
7
100
AcDbLine
 10
54.547087
 20
7.271917
 30
0.0
 11
54.527298
 21
6.860294
 31
0.0
  0
LINE
  5
1bc
100
AcDbEntity
  8
0
 62
7
100
AcDbLine
 10
54.527298
 20
6.860294
 30
0.0
 11
54.527298
 21
6.817347
 31
0.0
  0
LINE
  5
1bd
100
AcDbEntity
  8
0
 62
7
100
AcDbLine
 10
54.527298
 20
6.817347
 30
0.0
 11
54.527298
 21
6.774400
 31
0.0
  0
LINE
  5
1be
100
AcDbEntity
  8
0
 62
7
100
AcDbLine
 10
54.527298
 20
6.774400
 30
0.0
 11
54.527298
 21
6.731452
 31
0.0
  0
LINE
  5
1bf
100
AcDbEntity
  8
0
 62
7
100
AcDbLine
 10
54.527298
 20
6.731452
 30
0.0
 11
54.527298
 21
6.688505
 31
0.0
  0
LINE
  5
1c0
100
AcDbEntity
  8
0
 62
7
100
AcDbLine
 10
54.527298
 20
6.688505
 30
0.0
 11
54.546939
 21
6.226979
 31
0.0
  0
LINE
  5
1c1
100
AcDbEntity
  8
0
 62
7
100
AcDbLine
 10
54.546939
 20
6.226979
 30
0.0
 11
54.605848
 21
5.833876
 31
0.0
  0
LINE
  5
1c2
100
AcDbEntity
  8
0
 62
7
100
AcDbLine
 10
54.605848
 20
5.833876
 30
0.0
 11
54.704008
 21
5.509189
 31
0.0
  0
LINE
  5
1c3
100
AcDbEntity
  8
0
 62
7
100
AcDbLine
 10
54.704008
 20
5.509189
 30
0.0
 11
54.841401
 21
5.252909
 31
0.0
  0
LINE
  5
1c4
100
AcDbEntity
  8
0
 62
7
100
AcDbLine
 10
54.841401
 20
5.252909
 30
0.0
 11
55.023319
 21
5.058588
 31
0.0
  0
LINE
  5
1c5
100
AcDbEntity
  8
0
 62
7
100
AcDbLine
 10
55.023319
 20
5.058588
 30
0.0
 11
55.254920
 21
4.919788
 31
0.0
  0
LINE
  5
1c6
100
AcDbEntity
  8
0
 62
7
100
AcDbLine
 10
55.254920
 20
4.919788
 30
0.0
 11
55.536206
 21
4.836507
 31
0.0
  0
LINE
  5
1c7
100
AcDbEntity
  8
0
 62
7
100
AcDbLine
 10
55.536206
 20
4.836507
 30
0.0
 11
55.867174
 21
4.808747
 31
0.0
  0
LINE
  5
1c8
100
AcDbEntity
  8
0
 62
7
100
AcDbLine
 10
55.867174
 20
4.808747
 30
0.0
 11
56.149352
 21
4.839426
 31
0.0
  0
LINE
  5
1c9
100
AcDbEntity
  8
0
 62
7
100
AcDbLine
 10
56.149352
 20
4.839426
 30
0.0
 11
56.397194
 21
4.931461
 31
0.0
  0
LINE
  5
1ca
100
AcDbEntity
  8
0
 62
7
100
AcDbLine
 10
56.397194
 20
4.931461
 30
0.0
 11
56.610692
 21
5.084853
 31
0.0
  0
LINE
  5
1cb
100
AcDbEntity
  8
0
 62
7
100
AcDbLine
 10
56.610692
 20
5.084853
 30
0.0
 11
56.789836
 21
5.299601
 31
0.0
  0
LINE
  5
1cc
100
AcDbEntity
  8
0
 62
7
100
AcDbLine
 10
56.789836
 20
5.299601
 30
0.0
 11
56.931555
 21
5.571037
 31
0.0
  0
LINE
  5
1cd
100
AcDbEntity
  8
0
 62
7
100
AcDbLine
 10
56.931555
 20
5.571037
 30
0.0
 11
57.032782
 21
5.894637
 31
0.0
  0
LINE
  5
1ce
100
AcDbEntity
  8
0
 62
7
100
AcDbLine
 10
57.032782
 20
5.894637
 30
0.0
 11
57.093518
 21
6.270402
 31
0.0
  0
LINE
  5
1cf
100
AcDbEntity
  8
0
 62
7
100
AcDbLine
 10
57.093518
 20
6.270402
 30
0.0
 11
57.113764
 21
6.698330
 31
0.0
  0
LINE
  5
1d0
100
AcDbEntity
  8
0
 62
7
100
AcDbLine
 10
57.113764
 20
6.698330
 30
0.0
 11
57.093666
 21
7.126988
 31
0.0
  0
LINE
  5
1d1
100
AcDbEntity
  8
0
 62
7
100
AcDbLine
 10
57.093666
 20
7.126988
 30
0.0
 11
57.033378
 21
7.500126
 31
0.0
  0
LINE
  5
1d2
100
AcDbEntity
  8
0
 62
7
100
AcDbLine
 10
57.033378
 20
7.500126
 30
0.0
 11
56.932909
 21
7.817744
 31
0.0
  0
LINE
  5
1d3
100
AcDbEntity
  8
0
 62
7
100
AcDbLine
 10
56.932909
 20
7.817744
 30
0.0
 11
56.792267
 21
8.079841
 31
0.0
  0
LINE
  5
1d4
100
AcDbEntity
  8
0
 62
7
100
AcDbLine
 10
56.792267
 20
8.079841
 30
0.0
 11
56.612683
 21
8.284886
 31
0.0
  0
LINE
  5
1d5
100
AcDbEntity
  8
0
 62
7
100
AcDbLine
 10
56.612683
 20
8.284886
 30
0.0
 11
56.395370
 21
8.431347
 31
0.0
  0
LINE
  5
1d6
100
AcDbEntity
  8
0
 62
7
100
AcDbLine
 10
56.395370
 20
8.431347
 30
0.0
 11
56.140320
 21
8.519224
 31
0.0
  0
LINE
  5
1d7
100
AcDbEntity
  8
0
 62
7
100
AcDbLine
 10
56.140320
 20
8.519224
 30
0.0
 11
55.847526
 21
8.548516
 31
0.0
  0
LINE
  5
1d8
100
AcDbEntity
  8
0
 62
7
100
AcDbLine
 10
62.006835
 20
3.866437
 30
0.0
 11
61.408281
 21
3.912601
 31
0.0
  0
LINE
  5
1d9
100
AcDbEntity
  8
0
 62
7
100
AcDbLine
 10
61.408281
 20
3.912601
 30
0.0
 11
60.878715
 21
4.051103
 31
0.0
  0
LINE
  5
1da
100
AcDbEntity
  8
0
 62
7
100
AcDbLine
 10
60.878715
 20
4.051103
 30
0.0
 11
60.418150
 21
4.281949
 31
0.0
  0
LINE
  5
1db
100
AcDbEntity
  8
0
 62
7
100
AcDbLine
 10
60.418150
 20
4.281949
 30
0.0
 11
60.026591
 21
4.605149
 31
0.0
  0
LINE
  5
1dc
100
AcDbEntity
  8
0
 62
7
100
AcDbLine
 10
60.026591
 20
4.605149
 30
0.0
 11
59.714172
 21
5.009274
 31
0.0
  0
LINE
  5
1dd
100
AcDbEntity
  8
0
 62
7
100
AcDbLine
 10
59.714172
 20
5.009274
 30
0.0
 11
59.491016
 21
5.483027
 31
0.0
  0
LINE
  5
1de
100
AcDbEntity
  8
0
 62
7
100
AcDbLine
 10
59.491016
 20
5.483027
 30
0.0
 11
59.357122
 21
6.026399
 31
0.0
  0
LINE
  5
1df
100
AcDbEntity
  8
0
 62
7
100
AcDbLine
 10
59.357122
 20
6.026399
 30
0.0
 11
59.312490
 21
6.639381
 31
0.0
  0
LINE
  5
1e0
100
AcDbEntity
  8
0
 62
7
100
AcDbLine
 10
59.312490
 20
6.639381
 30
0.0
 11
59.353895
 21
7.268813
 31
0.0
  0
LINE
  5
1e1
100
AcDbEntity
  8
0
 62
7
100
AcDbLine
 10
59.353895
 20
7.268813
 30
0.0
 11
59.478115
 21
7.827094
 31
0.0
  0
LINE
  5
1e2
100
AcDbEntity
  8
0
 62
7
100
AcDbLine
 10
59.478115
 20
7.827094
 30
0.0
 11
59.685158
 21
8.314206
 31
0.0
  0
LINE
  5
1e3
100
AcDbEntity
  8
0
 62
7
100
AcDbLine
 10
59.685158
 20
8.314206
 30
0.0
 11
59.975035
 21
8.730130
 31
0.0
  0
LINE
  5
1e4
100
AcDbEntity
  8
0
 62
7
100
AcDbLine
 10
59.975035
 20
8.730130
 30
0.0
 11
60.337304
 21
9.062962
 31
0.0
  0
LINE
  5
1e5
100
AcDbEntity
  8
0
 62
7
100
AcDbLine
 10
60.337304
 20
9.062962
 30
0.0
 11
60.761523
 21
9.300677
 31
0.0
  0
LINE
  5
1e6
100
AcDbEntity
  8
0
 62
7
100
AcDbLine
 10
60.761523
 20
9.300677
 30
0.0
 11
61.247700
 21
9.443292
 31
0.0
  0
LINE
  5
1e7
100
AcDbEntity
  8
0
 62
7
100
AcDbLine
 10
61.247700
 20
9.443292
 30
0.0
 11
61.795844
 21
9.490827
 31
0.0
  0
LINE
  5
1e8
100
AcDbEntity
  8
0
 62
7
100
AcDbLine
 10
61.795844
 20
9.490827
 30
0.0
 11
62.305028
 21
9.450041
 31
0.0
  0
LINE
  5
1e9
100
AcDbEntity
  8
0
 62
7
100
AcDbLine
 10
62.305028
 20
9.450041
 30
0.0
 11
62.757780
 21
9.327671
 31
0.0
  0
LINE
  5
1ea
100
AcDbEntity
  8
0
 62
7
100
AcDbLine
 10
62.757780
 20
9.327671
 30
0.0
 11
63.154101
 21
9.123699
 31
0.0
  0
LINE
  5
1eb
100
AcDbEntity
  8
0
 62
7
100
AcDbLine
 10
63.154101
 20
9.123699
 30
0.0
 11
63.493988
 21
8.838106
 31
0.0
  0
LINE
  5
1ec
100
AcDbEntity
  8
0
 62
7
100
AcDbLine
 10
63.493988
 20
8.838106
 30
0.0
 11
63.766644
 21
8.481076
 31
0.0
  0
LINE
  5
1ed
100
AcDbEntity
  8
0
 62
7
100
AcDbLine
 10
63.766644
 20
8.481076
 30
0.0
 11
63.961410
 21
8.062672
 31
0.0
  0
LINE
  5
1ee
100
AcDbEntity
  8
0
 62
7
100
AcDbLine
 10
63.961410
 20
8.062672
 30
0.0
 11
64.078277
 21
7.582911
 31
0.0
  0
LINE
  5
1ef
100
AcDbEntity
  8
0
 62
7
100
AcDbLine
 10
64.078277
 20
7.582911
 30
0.0
 11
64.117234
 21
7.041811
 31
0.0
  0
LINE
  5
1f0
100
AcDbEntity
  8
0
 62
7
100
AcDbLine
 10
64.117234
 20
7.041811
 30
0.0
 11
64.117234
 21
6.885999
 31
0.0
  0
LINE
  5
1f1
100
AcDbEntity
  8
0
 62
7
100
AcDbLine
 10
64.117234
 20
6.885999
 30
0.0
 11
64.117234
 21
6.730188
 31
0.0
  0
LINE
  5
1f2
100
AcDbEntity
  8
0
 62
7
100
AcDbLine
 10
64.117234
 20
6.730188
 30
0.0
 11
64.117234
 21
6.574376
 31
0.0
  0
LINE
  5
1f3
100
AcDbEntity
  8
0
 62
7
100
AcDbLine
 10
64.117234
 20
6.574376
 30
0.0
 11
64.117234
 21
6.418565
 31
0.0
  0
LINE
  5
1f4
100
AcDbEntity
  8
0
 62
7
100
AcDbLine
 10
64.117234
 20
6.418565
 30
0.0
 11
63.212958
 21
6.418565
 31
0.0
  0
LINE
  5
1f5
100
AcDbEntity
  8
0
 62
7
100
AcDbLine
 10
63.212958
 20
6.418565
 30
0.0
 11
62.308682
 21
6.418565
 31
0.0
  0
LINE
  5
1f6
100
AcDbEntity
  8
0
 62
7
100
AcDbLine
 10
62.308682
 20
6.418565
 30
0.0
 11
61.404407
 21
6.418565
 31
0.0
  0
LINE
  5
1f7
100
AcDbEntity
  8
0
 62
7
100
AcDbLine
 10
61.404407
 20
6.418565
 30
0.0
 11
60.500131
 21
6.418565
 31
0.0
  0
LINE
  5
1f8
100
AcDbEntity
  8
0
 62
7
100
AcDbLine
 10
60.500131
 20
6.418565
 30
0.0
 11
60.536064
 21
6.046342
 31
0.0
  0
LINE
  5
1f9
100
AcDbEntity
  8
0
 62
7
100
AcDbLine
 10
60.536064
 20
6.046342
 30
0.0
 11
60.619208
 21
5.719808
 31
0.0
  0
LINE
  5
1fa
100
AcDbEntity
  8
0
 62
7
100
AcDbLine
 10
60.619208
 20
5.719808
 30
0.0
 11
60.749573
 21
5.438982
 31
0.0
  0
LINE
  5
1fb
100
AcDbEntity
  8
0
 62
7
100
AcDbLine
 10
60.749573
 20
5.438982
 30
0.0
 11
60.927171
 21
5.203882
 31
0.0
  0
LINE
  5
1fc
100
AcDbEntity
  8
0
 62
7
100
AcDbLine
 10
60.927171
 20
5.203882
 30
0.0
 11
61.148939
 21
5.018130
 31
0.0
  0
LINE
  5
1fd
100
AcDbEntity
  8
0
 62
7
100
AcDbLine
 10
61.148939
 20
5.018130
 30
0.0
 11
61.411811
 21
4.885474
 31
0.0
  0
LINE
  5
1fe
100
AcDbEntity
  8
0
 62
7
100
AcDbLine
 10
61.411811
 20
4.885474
 30
0.0
 11
61.715776
 21
4.805893
 31
0.0
  0
LINE
  5
1ff
100
AcDbEntity
  8
0
 62
7
100
AcDbLine
 10
61.715776
 20
4.805893
 30
0.0
 11
62.060823
 21
4.779370
 31
0.0
  0
LINE
  5
200
100
AcDbEntity
  8
0
 62
7
100
AcDbLine
 10
62.060823
 20
4.779370
 30
0.0
 11
62.297204
 21
4.785043
 31
0.0
  0
LINE
  5
201
100
AcDbEntity
  8
0
 62
7
100
AcDbLine
 10
62.297204
 20
4.785043
 30
0.0
 11
62.525278
 21
4.802060
 31
0.0
  0
LINE
  5
202
100
AcDbEntity
  8
0
 62
7
100
AcDbLine
 10
62.525278
 20
4.802060
 30
0.0
 11
62.745054
 21
4.830422
 31
0.0
  0
LINE
  5
203
100
AcDbEntity
  8
0
 62
7
100
AcDbLine
 10
62.745054
 20
4.830422
 30
0.0
 11
62.956538
 21
4.870129
 31
0.0
  0
LINE
  5
204
100
AcDbEntity
  8
0
 62
7
100
AcDbLine
 10
62.956538
 20
4.870129
 30
0.0
 11
63.167728
 21
4.923038
 31
0.0
  0
LINE
  5
205
100
AcDbEntity
  8
0
 62
7
100
AcDbLine
 10
63.167728
 20
4.923038
 30
0.0
 11
63.386594
 21
4.990994
 31
0.0
  0
LINE
  5
206
100
AcDbEntity
  8
0
 62
7
100
AcDbLine
 10
63.386594
 20
4.990994
 30
0.0
 11
63.613123
 21
5.073979
 31
0.0
  0
LINE
  5
207
100
AcDbEntity
  8
0
 62
7
100
AcDbLine
 10
63.613123
 20
5.073979
 30
0.0
 11
63.847293
 21
5.171976
 31
0.0
  0
LINE
  5
208
100
AcDbEntity
  8
0
 62
7
100
AcDbLine
 10
63.847293
 20
5.171976
 30
0.0
 11
63.847293
 21
4.937614
 31
0.0
  0
LINE
  5
209
100
AcDbEntity
  8
0
 62
7
100
AcDbLine
 10
63.847293
 20
4.937614
 30
0.0
 11
63.847293
 21
4.703252
 31
0.0
  0
LINE
  5
20a
100
AcDbEntity
  8
0
 62
7
100
AcDbLine
 10
63.847293
 20
4.703252
 30
0.0
 11
63.847293
 21
4.468891
 31
0.0
  0
LINE
  5
20b
100
AcDbEntity
  8
0
 62
7
100
AcDbLine
 10
63.847293
 20
4.468891
 30
0.0
 11
63.847293
 21
4.234529
 31
0.0
  0
LINE
  5
20c
100
AcDbEntity
  8
0
 62
7
100
AcDbLine
 10
63.847293
 20
4.234529
 30
0.0
 11
63.635666
 21
4.141288
 31
0.0
  0
LINE
  5
20d
100
AcDbEntity
  8
0
 62
7
100
AcDbLine
 10
63.635666
 20
4.141288
 30
0.0
 11
63.422782
 21
4.062776
 31
0.0
  0
LINE
  5
20e
100
AcDbEntity
  8
0
 62
7
100
AcDbLine
 10
63.422782
 20
4.062776
 30
0.0
 11
63.208657
 21
3.998983
 31
0.0
  0
LINE
  5
20f
100
AcDbEntity
  8
0
 62
7
100
AcDbLine
 10
63.208657
 20
3.998983
 30
0.0
 11
62.993310
 21
3.949900
 31
0.0
  0
LINE
  5
210
100
AcDbEntity
  8
0
 62
7
100
AcDbLine
 10
62.993310
 20
3.949900
 30
0.0
 11
62.769735
 21
3.913385
 31
0.0
  0
LINE
  5
211
100
AcDbEntity
  8
0
 62
7
100
AcDbLine
 10
62.769735
 20
3.913385
 30
0.0
 11
62.530787
 21
3.887303
 31
0.0
  0
LINE
  5
212
100
AcDbEntity
  8
0
 62
7
100
AcDbLine
 10
62.530787
 20
3.887303
 30
0.0
 11
62.276481
 21
3.871654
 31
0.0
  0
LINE
  5
213
100
AcDbEntity
  8
0
 62
7
100
AcDbLine
 10
62.276481
 20
3.871654
 30
0.0
 11
62.006835
 21
3.866437
 31
0.0
  0
LINE
  5
214
100
AcDbEntity
  8
0
 62
7
100
AcDbLine
 10
61.795844
 20
8.617290
 30
0.0
 11
61.534660
 21
8.595512
 31
0.0
  0
LINE
  5
215
100
AcDbEntity
  8
0
 62
7
100
AcDbLine
 10
61.534660
 20
8.595512
 30
0.0
 11
61.300772
 21
8.530180
 31
0.0
  0
LINE
  5
216
100
AcDbEntity
  8
0
 62
7
100
AcDbLine
 10
61.300772
 20
8.530180
 30
0.0
 11
61.094187
 21
8.421291
 31
0.0
  0
LINE
  5
217
100
AcDbEntity
  8
0
 62
7
100
AcDbLine
 10
61.094187
 20
8.421291
 30
0.0
 11
60.914914
 21
8.268848
 31
0.0
  0
LINE
  5
218
100
AcDbEntity
  8
0
 62
7
100
AcDbLine
 10
60.914914
 20
8.268848
 30
0.0
 11
60.765969
 21
8.074676
 31
0.0
  0
LINE
  5
219
100
AcDbEntity
  8
0
 62
7
100
AcDbLine
 10
60.765969
 20
8.074676
 30
0.0
 11
60.650482
 21
7.840615
 31
0.0
  0
LINE
  5
21a
100
AcDbEntity
  8
0
 62
7
100
AcDbLine
 10
60.650482
 20
7.840615
 30
0.0
 11
60.568428
 21
7.566684
 31
0.0
  0
LINE
  5
21b
100
AcDbEntity
  8
0
 62
7
100
AcDbLine
 10
60.568428
 20
7.566684
 30
0.0
 11
60.519779
 21
7.252899
 31
0.0
  0
LINE
  5
21c
100
AcDbEntity
  8
0
 62
7
100
AcDbLine
 10
60.519779
 20
7.252899
 30
0.0
 11
61.135731
 21
7.252899
 31
0.0
  0
LINE
  5
21d
100
AcDbEntity
  8
0
 62
7
100
AcDbLine
 10
61.135731
 20
7.252899
 30
0.0
 11
61.751681
 21
7.252899
 31
0.0
  0
LINE
  5
21e
100
AcDbEntity
  8
0
 62
7
100
AcDbLine
 10
61.751681
 20
7.252899
 30
0.0
 11
62.367632
 21
7.252899
 31
0.0
  0
LINE
  5
21f
100
AcDbEntity
  8
0
 62
7
100
AcDbLine
 10
62.367632
 20
7.252899
 30
0.0
 11
62.983582
 21
7.252899
 31
0.0
  0
LINE
  5
220
100
AcDbEntity
  8
0
 62
7
100
AcDbLine
 10
62.983582
 20
7.252899
 30
0.0
 11
62.959619
 21
7.568692
 31
0.0
  0
LINE
  5
221
100
AcDbEntity
  8
0
 62
7
100
AcDbLine
 10
62.959619
 20
7.568692
 30
0.0
 11
62.897641
 21
7.843692
 31
0.0
  0
LINE
  5
222
100
AcDbEntity
  8
0
 62
7
100
AcDbLine
 10
62.897641
 20
7.843692
 30
0.0
 11
62.797652
 21
8.077891
 31
0.0
  0
LINE
  5
223
100
AcDbEntity
  8
0
 62
7
100
AcDbLine
 10
62.797652
 20
8.077891
 30
0.0
 11
62.659654
 21
8.271280
 31
0.0
  0
LINE
  5
224
100
AcDbEntity
  8
0
 62
7
100
AcDbLine
 10
62.659654
 20
8.271280
 30
0.0
 11
62.487858
 21
8.422646
 31
0.0
  0
LINE
  5
225
100
AcDbEntity
  8
0
 62
7
100
AcDbLine
 10
62.487858
 20
8.422646
 30
0.0
 11
62.286624
 21
8.530775
 31
0.0
  0
LINE
  5
226
100
AcDbEntity
  8
0
 62
7
100
AcDbLine
 10
62.286624
 20
8.530775
 30
0.0
 11
62.055953
 21
8.595660
 31
0.0
  0
LINE
  5
227
100
AcDbEntity
  8
0
 62
7
100
AcDbLine
 10
62.055953
 20
8.595660
 30
0.0
 11
61.795844
 21
8.617290
 31
0.0
  0
LINE
  5
228
100
AcDbEntity
  8
0
 62
7
100
AcDbLine
 10
70.203003
 20
3.964588
 30
0.0
 11
69.913438
 21
3.964588
 31
0.0
  0
LINE
  5
229
100
AcDbEntity
  8
0
 62
7
100
AcDbLine
 10
69.913438
 20
3.964588
 30
0.0
 11
69.623871
 21
3.964588
 31
0.0
  0
LINE
  5
22a
100
AcDbEntity
  8
0
 62
7
100
AcDbLine
 10
69.623871
 20
3.964588
 30
0.0
 11
69.334305
 21
3.964588
 31
0.0
  0
LINE
  5
22b
100
AcDbEntity
  8
0
 62
7
100
AcDbLine
 10
69.334305
 20
3.964588
 30
0.0
 11
69.044740
 21
3.964588
 31
0.0
  0
LINE
  5
22c
100
AcDbEntity
  8
0
 62
7
100
AcDbLine
 10
69.044740
 20
3.964588
 30
0.0
 11
69.044740
 21
4.798922
 31
0.0
  0
LINE
  5
22d
100
AcDbEntity
  8
0
 62
7
100
AcDbLine
 10
69.044740
 20
4.798922
 30
0.0
 11
69.044740
 21
5.633257
 31
0.0
  0
LINE
  5
22e
100
AcDbEntity
  8
0
 62
7
100
AcDbLine
 10
69.044740
 20
5.633257
 30
0.0
 11
69.044740
 21
6.467592
 31
0.0
  0
LINE
  5
22f
100
AcDbEntity
  8
0
 62
7
100
AcDbLine
 10
69.044740
 20
6.467592
 30
0.0
 11
69.044740
 21
7.301926
 31
0.0
  0
LINE
  5
230
100
AcDbEntity
  8
0
 62
7
100
AcDbLine
 10
69.044740
 20
7.301926
 30
0.0
 11
69.028943
 21
7.596126
 31
0.0
  0
LINE
  5
231
100
AcDbEntity
  8
0
 62
7
100
AcDbLine
 10
69.028943
 20
7.596126
 30
0.0
 11
68.981547
 21
7.850428
 31
0.0
  0
LINE
  5
232
100
AcDbEntity
  8
0
 62
7
100
AcDbLine
 10
68.981547
 20
7.850428
 30
0.0
 11
68.902543
 21
8.064841
 31
0.0
  0
LINE
  5
233
100
AcDbEntity
  8
0
 62
7
100
AcDbLine
 10
68.902543
 20
8.064841
 30
0.0
 11
68.791921
 21
8.239373
 31
0.0
  0
LINE
  5
234
100
AcDbEntity
  8
0
 62
7
100
AcDbLine
 10
68.791921
 20
8.239373
 30
0.0
 11
68.647008
 21
8.374637
 31
0.0
  0
LINE
  5
235
100
AcDbEntity
  8
0
 62
7
100
AcDbLine
 10
68.647008
 20
8.374637
 30
0.0
 11
68.464977
 21
8.471242
 31
0.0
  0
LINE
  5
236
100
AcDbEntity
  8
0
 62
7
100
AcDbLine
 10
68.464977
 20
8.471242
 30
0.0
 11
68.245812
 21
8.529199
 31
0.0
  0
LINE
  5
237
100
AcDbEntity
  8
0
 62
7
100
AcDbLine
 10
68.245812
 20
8.529199
 30
0.0
 11
67.989493
 21
8.548516
 31
0.0
  0
LINE
  5
238
100
AcDbEntity
  8
0
 62
7
100
AcDbLine
 10
67.989493
 20
8.548516
 30
0.0
 11
67.648438
 21
8.521524
 31
0.0
  0
LINE
  5
239
100
AcDbEntity
  8
0
 62
7
100
AcDbLine
 10
67.648438
 20
8.521524
 30
0.0
 11
67.356445
 21
8.440552
 31
0.0
  0
LINE
  5
23a
100
AcDbEntity
  8
0
 62
7
100
AcDbLine
 10
67.356445
 20
8.440552
 30
0.0
 11
67.113518
 21
8.305611
 31
0.0
  0
LINE
  5
23b
100
AcDbEntity
  8
0
 62
7
100
AcDbLine
 10
67.113518
 20
8.305611
 30
0.0
 11
66.919652
 21
8.116709
 31
0.0
  0
LINE
  5
23c
100
AcDbEntity
  8
0
 62
7
100
AcDbLine
 10
66.919652
 20
8.116709
 30
0.0
 11
66.771478
 21
7.864244
 31
0.0
  0
LINE
  5
23d
100
AcDbEntity
  8
0
 62
7
100
AcDbLine
 10
66.771478
 20
7.864244
 30
0.0
 11
66.665629
 21
7.538769
 31
0.0
  0
LINE
  5
23e
100
AcDbEntity
  8
0
 62
7
100
AcDbLine
 10
66.665629
 20
7.538769
 30
0.0
 11
66.602112
 21
7.140300
 31
0.0
  0
LINE
  5
23f
100
AcDbEntity
  8
0
 62
7
100
AcDbLine
 10
66.602112
 20
7.140300
 30
0.0
 11
66.580938
 21
6.668855
 31
0.0
  0
LINE
  5
240
100
AcDbEntity
  8
0
 62
7
100
AcDbLine
 10
66.580938
 20
6.668855
 30
0.0
 11
66.580938
 21
5.992789
 31
0.0
  0
LINE
  5
241
100
AcDbEntity
  8
0
 62
7
100
AcDbLine
 10
66.580938
 20
5.992789
 30
0.0
 11
66.580938
 21
5.316722
 31
0.0
  0
LINE
  5
242
100
AcDbEntity
  8
0
 62
7
100
AcDbLine
 10
66.580938
 20
5.316722
 30
0.0
 11
66.580938
 21
4.640655
 31
0.0
  0
LINE
  5
243
100
AcDbEntity
  8
0
 62
7
100
AcDbLine
 10
66.580938
 20
4.640655
 30
0.0
 11
66.580938
 21
3.964588
 31
0.0
  0
LINE
  5
244
100
AcDbEntity
  8
0
 62
7
100
AcDbLine
 10
66.580938
 20
3.964588
 30
0.0
 11
66.292614
 21
3.964588
 31
0.0
  0
LINE
  5
245
100
AcDbEntity
  8
0
 62
7
100
AcDbLine
 10
66.292614
 20
3.964588
 30
0.0
 11
66.004287
 21
3.964588
 31
0.0
  0
LINE
  5
246
100
AcDbEntity
  8
0
 62
7
100
AcDbLine
 10
66.004287
 20
3.964588
 30
0.0
 11
65.715961
 21
3.964588
 31
0.0
  0
LINE
  5
247
100
AcDbEntity
  8
0
 62
7
100
AcDbLine
 10
65.715961
 20
3.964588
 30
0.0
 11
65.427636
 21
3.964588
 31
0.0
  0
LINE
  5
248
100
AcDbEntity
  8
0
 62
7
100
AcDbLine
 10
65.427636
 20
3.964588
 30
0.0
 11
65.427636
 21
5.321610
 31
0.0
  0
LINE
  5
249
100
AcDbEntity
  8
0
 62
7
100
AcDbLine
 10
65.427636
 20
5.321610
 30
0.0
 11
65.427636
 21
6.678632
 31
0.0
  0
LINE
  5
24a
100
AcDbEntity
  8
0
 62
7
100
AcDbLine
 10
65.427636
 20
6.678632
 30
0.0
 11
65.427636
 21
8.035654
 31
0.0
  0
LINE
  5
24b
100
AcDbEntity
  8
0
 62
7
100
AcDbLine
 10
65.427636
 20
8.035654
 30
0.0
 11
65.427636
 21
9.392676
 31
0.0
  0
LINE
  5
24c
100
AcDbEntity
  8
0
 62
7
100
AcDbLine
 10
65.427636
 20
9.392676
 30
0.0
 11
65.653389
 21
9.392676
 31
0.0
  0
LINE
  5
24d
100
AcDbEntity
  8
0
 62
7
100
AcDbLine
 10
65.653389
 20
9.392676
 30
0.0
 11
65.879142
 21
9.392676
 31
0.0
  0
LINE
  5
24e
100
AcDbEntity
  8
0
 62
7
100
AcDbLine
 10
65.879142
 20
9.392676
 30
0.0
 11
66.104895
 21
9.392676
 31
0.0
  0
LINE
  5
24f
100
AcDbEntity
  8
0
 62
7
100
AcDbLine
 10
66.104895
 20
9.392676
 30
0.0
 11
66.330648
 21
9.392676
 31
0.0
  0
LINE
  5
250
100
AcDbEntity
  8
0
 62
7
100
AcDbLine
 10
66.330648
 20
9.392676
 30
0.0
 11
66.371139
 21
9.214782
 31
0.0
  0
LINE
  5
251
100
AcDbEntity
  8
0
 62
7
100
AcDbLine
 10
66.371139
 20
9.214782
 30
0.0
 11
66.411630
 21
9.036889
 31
0.0
  0
LINE
  5
252
100
AcDbEntity
  8
0
 62
7
100
AcDbLine
 10
66.411630
 20
9.036889
 30
0.0
 11
66.452120
 21
8.858996
 31
0.0
  0
LINE
  5
253
100
AcDbEntity
  8
0
 62
7
100
AcDbLine
 10
66.452120
 20
8.858996
 30
0.0
 11
66.492612
 21
8.681103
 31
0.0
  0
LINE
  5
254
100
AcDbEntity
  8
0
 62
7
100
AcDbLine
 10
66.492612
 20
8.681103
 30
0.0
 11
66.507349
 21
8.681103
 31
0.0
  0
LINE
  5
255
100
AcDbEntity
  8
0
 62
7
100
AcDbLine
 10
66.507349
 20
8.681103
 30
0.0
 11
66.522086
 21
8.681103
 31
0.0
  0
LINE
  5
256
100
AcDbEntity
  8
0
 62
7
100
AcDbLine
 10
66.522086
 20
8.681103
 30
0.0
 11
66.536822
 21
8.681103
 31
0.0
  0
LINE
  5
257
100
AcDbEntity
  8
0
 62
7
100
AcDbLine
 10
66.536822
 20
8.681103
 30
0.0
 11
66.551559
 21
8.681103
 31
0.0
  0
LINE
  5
258
100
AcDbEntity
  8
0
 62
7
100
AcDbLine
 10
66.551559
 20
8.681103
 30
0.0
 11
66.687150
 21
8.863913
 31
0.0
  0
LINE
  5
259
100
AcDbEntity
  8
0
 62
7
100
AcDbLine
 10
66.687150
 20
8.863913
 30
0.0
 11
66.848494
 21
9.024645
 31
0.0
  0
LINE
  5
25a
100
AcDbEntity
  8
0
 62
7
100
AcDbLine
 10
66.848494
 20
9.024645
 30
0.0
 11
67.035592
 21
9.163289
 31
0.0
  0
LINE
  5
25b
100
AcDbEntity
  8
0
 62
7
100
AcDbLine
 10
67.035592
 20
9.163289
 30
0.0
 11
67.248444
 21
9.279836
 31
0.0
  0
LINE
  5
25c
100
AcDbEntity
  8
0
 62
7
100
AcDbLine
 10
67.248444
 20
9.279836
 30
0.0
 11
67.480318
 21
9.372144
 31
0.0
  0
LINE
  5
25d
100
AcDbEntity
  8
0
 62
7
100
AcDbLine
 10
67.480318
 20
9.372144
 30
0.0
 11
67.724475
 21
9.438079
 31
0.0
  0
LINE
  5
25e
100
AcDbEntity
  8
0
 62
7
100
AcDbLine
 10
67.724475
 20
9.438079
 30
0.0
 11
67.980908
 21
9.477640
 31
0.0
  0
LINE
  5
25f
100
AcDbEntity
  8
0
 62
7
100
AcDbLine
 10
67.980908
 20
9.477640
 30
0.0
 11
68.249606
 21
9.490826
 31
0.0
  0
LINE
  5
260
100
AcDbEntity
  8
0
 62
7
100
AcDbLine
 10
68.249606
 20
9.490826
 30
0.0
 11
69.104203
 21
9.366599
 31
0.0
  0
LINE
  5
261
100
AcDbEntity
  8
0
 62
7
100
AcDbLine
 10
69.104203
 20
9.366599
 30
0.0
 11
69.714641
 21
8.993917
 31
0.0
  0
LINE
  5
262
100
AcDbEntity
  8
0
 62
7
100
AcDbLine
 10
69.714641
 20
8.993917
 30
0.0
 11
70.080910
 21
8.372781
 31
0.0
  0
LINE
  5
263
100
AcDbEntity
  8
0
 62
7
100
AcDbLine
 10
70.080910
 20
8.372781
 30
0.0
 11
70.203001
 21
7.503190
 31
0.0
  0
LINE
  5
264
100
AcDbEntity
  8
0
 62
7
100
AcDbLine
 10
70.203001
 20
7.503190
 30
0.0
 11
70.203001
 21
6.618539
 31
0.0
  0
LINE
  5
265
100
AcDbEntity
  8
0
 62
7
100
AcDbLine
 10
70.203001
 20
6.618539
 30
0.0
 11
70.203001
 21
5.733888
 31
0.0
  0
LINE
  5
266
100
AcDbEntity
  8
0
 62
7
100
AcDbLine
 10
70.203001
 20
5.733888
 30
0.0
 11
70.203001
 21
4.849238
 31
0.0
  0
LINE
  5
267
100
AcDbEntity
  8
0
 62
7
100
AcDbLine
 10
70.203001
 20
4.849238
 30
0.0
 11
70.203003
 21
3.964588
 31
0.0
  0
LINE
  5
268
100
AcDbEntity
  8
0
 62
7
100
AcDbLine
 10
74.271564
 20
8.710480
 30
0.0
 11
73.929251
 21
8.710480
 31
0.0
  0
LINE
  5
269
100
AcDbEntity
  8
0
 62
7
100
AcDbLine
 10
73.929251
 20
8.710480
 30
0.0
 11
73.586938
 21
8.710480
 31
0.0
  0
LINE
  5
26a
100
AcDbEntity
  8
0
 62
7
100
AcDbLine
 10
73.586938
 20
8.710480
 30
0.0
 11
73.244623
 21
8.710480
 31
0.0
  0
LINE
  5
26b
100
AcDbEntity
  8
0
 62
7
100
AcDbLine
 10
73.244623
 20
8.710480
 30
0.0
 11
72.902310
 21
8.710480
 31
0.0
  0
LINE
  5
26c
100
AcDbEntity
  8
0
 62
7
100
AcDbLine
 10
72.902310
 20
8.710480
 30
0.0
 11
72.902310
 21
7.524007
 31
0.0
  0
LINE
  5
26d
100
AcDbEntity
  8
0
 62
7
100
AcDbLine
 10
72.902310
 20
7.524007
 30
0.0
 11
72.902310
 21
6.337534
 31
0.0
  0
LINE
  5
26e
100
AcDbEntity
  8
0
 62
7
100
AcDbLine
 10
72.902310
 20
6.337534
 30
0.0
 11
72.902310
 21
5.151061
 31
0.0
  0
LINE
  5
26f
100
AcDbEntity
  8
0
 62
7
100
AcDbLine
 10
72.902310
 20
5.151061
 30
0.0
 11
72.902310
 21
3.964588
 31
0.0
  0
LINE
  5
270
100
AcDbEntity
  8
0
 62
7
100
AcDbLine
 10
72.902310
 20
3.964588
 30
0.0
 11
72.698639
 21
3.964588
 31
0.0
  0
LINE
  5
271
100
AcDbEntity
  8
0
 62
7
100
AcDbLine
 10
72.698639
 20
3.964588
 30
0.0
 11
72.494969
 21
3.964588
 31
0.0
  0
LINE
  5
272
100
AcDbEntity
  8
0
 62
7
100
AcDbLine
 10
72.494969
 20
3.964588
 30
0.0
 11
72.291297
 21
3.964588
 31
0.0
  0
LINE
  5
273
100
AcDbEntity
  8
0
 62
7
100
AcDbLine
 10
72.291297
 20
3.964588
 30
0.0
 11
72.087626
 21
3.964588
 31
0.0
  0
LINE
  5
274
100
AcDbEntity
  8
0
 62
7
100
AcDbLine
 10
72.087626
 20
3.964588
 30
0.0
 11
72.087626
 21
5.151061
 31
0.0
  0
LINE
  5
275
100
AcDbEntity
  8
0
 62
7
100
AcDbLine
 10
72.087626
 20
5.151061
 30
0.0
 11
72.087626
 21
6.337534
 31
0.0
  0
LINE
  5
276
100
AcDbEntity
  8
0
 62
7
100
AcDbLine
 10
72.087626
 20
6.337534
 30
0.0
 11
72.087626
 21
7.524007
 31
0.0
  0
LINE
  5
277
100
AcDbEntity
  8
0
 62
7
100
AcDbLine
 10
72.087626
 20
7.524007
 30
0.0
 11
72.087626
 21
8.710480
 31
0.0
  0
LINE
  5
278
100
AcDbEntity
  8
0
 62
7
100
AcDbLine
 10
72.087626
 20
8.710480
 30
0.0
 11
71.847136
 21
8.710480
 31
0.0
  0
LINE
  5
279
100
AcDbEntity
  8
0
 62
7
100
AcDbLine
 10
71.847136
 20
8.710480
 30
0.0
 11
71.606644
 21
8.710480
 31
0.0
  0
LINE
  5
27a
100
AcDbEntity
  8
0
 62
7
100
AcDbLine
 10
71.606644
 20
8.710480
 30
0.0
 11
71.366154
 21
8.710480
 31
0.0
  0
LINE
  5
27b
100
AcDbEntity
  8
0
 62
7
100
AcDbLine
 10
71.366154
 20
8.710480
 30
0.0
 11
71.125664
 21
8.710480
 31
0.0
  0
LINE
  5
27c
100
AcDbEntity
  8
0
 62
7
100
AcDbLine
 10
71.125664
 20
8.710480
 30
0.0
 11
71.125664
 21
8.802503
 31
0.0
  0
LINE
  5
27d
100
AcDbEntity
  8
0
 62
7
100
AcDbLine
 10
71.125664
 20
8.802503
 30
0.0
 11
71.125664
 21
8.894526
 31
0.0
  0
LINE
  5
27e
100
AcDbEntity
  8
0
 62
7
100
AcDbLine
 10
71.125664
 20
8.894526
 30
0.0
 11
71.125664
 21
8.986549
 31
0.0
  0
LINE
  5
27f
100
AcDbEntity
  8
0
 62
7
100
AcDbLine
 10
71.125664
 20
8.986549
 30
0.0
 11
71.125664
 21
9.078572
 31
0.0
  0
LINE
  5
280
100
AcDbEntity
  8
0
 62
7
100
AcDbLine
 10
71.125664
 20
9.078572
 30
0.0
 11
71.366154
 21
9.152185
 31
0.0
  0
LINE
  5
281
100
AcDbEntity
  8
0
 62
7
100
AcDbLine
 10
71.366154
 20
9.152185
 30
0.0
 11
71.606644
 21
9.225799
 31
0.0
  0
LINE
  5
282
100
AcDbEntity
  8
0
 62
7
100
AcDbLine
 10
71.606644
 20
9.225799
 30
0.0
 11
71.847136
 21
9.299412
 31
0.0
  0
LINE
  5
283
100
AcDbEntity
  8
0
 62
7
100
AcDbLine
 10
71.847136
 20
9.299412
 30
0.0
 11
72.087626
 21
9.373026
 31
0.0
  0
LINE
  5
284
100
AcDbEntity
  8
0
 62
7
100
AcDbLine
 10
72.087626
 20
9.373026
 30
0.0
 11
72.087626
 21
9.447880
 31
0.0
  0
LINE
  5
285
100
AcDbEntity
  8
0
 62
7
100
AcDbLine
 10
72.087626
 20
9.447880
 30
0.0
 11
72.087626
 21
9.522733
 31
0.0
  0
LINE
  5
286
100
AcDbEntity
  8
0
 62
7
100
AcDbLine
 10
72.087626
 20
9.522733
 30
0.0
 11
72.087626
 21
9.597587
 31
0.0
  0
LINE
  5
287
100
AcDbEntity
  8
0
 62
7
100
AcDbLine
 10
72.087626
 20
9.597587
 30
0.0
 11
72.087626
 21
9.672441
 31
0.0
  0
LINE
  5
288
100
AcDbEntity
  8
0
 62
7
100
AcDbLine
 10
72.087626
 20
9.672441
 30
0.0
 11
72.195895
 21
10.539918
 31
0.0
  0
LINE
  5
289
100
AcDbEntity
  8
0
 62
7
100
AcDbLine
 10
72.195895
 20
10.539918
 30
0.0
 11
72.520710
 21
11.159533
 31
0.0
  0
LINE
  5
28a
100
AcDbEntity
  8
0
 62
7
100
AcDbLine
 10
72.520710
 20
11.159533
 30
0.0
 11
73.062079
 21
11.531295
 31
0.0
  0
LINE
  5
28b
100
AcDbEntity
  8
0
 62
7
100
AcDbLine
 10
73.062079
 20
11.531295
 30
0.0
 11
73.820011
 21
11.655214
 31
0.0
  0
LINE
  5
28c
100
AcDbEntity
  8
0
 62
7
100
AcDbLine
 10
73.820011
 20
11.655214
 30
0.0
 11
74.042734
 21
11.644472
 31
0.0
  0
LINE
  5
28d
100
AcDbEntity
  8
0
 62
7
100
AcDbLine
 10
74.042734
 20
11.644472
 30
0.0
 11
74.283833
 21
11.612254
 31
0.0
  0
LINE
  5
28e
100
AcDbEntity
  8
0
 62
7
100
AcDbLine
 10
74.283833
 20
11.612254
 30
0.0
 11
74.543336
 21
11.558569
 31
0.0
  0
LINE
  5
28f
100
AcDbEntity
  8
0
 62
7
100
AcDbLine
 10
74.543336
 20
11.558569
 30
0.0
 11
74.821270
 21
11.483425
 31
0.0
  0
LINE
  5
290
100
AcDbEntity
  8
0
 62
7
100
AcDbLine
 10
74.821270
 20
11.483425
 30
0.0
 11
74.768498
 21
11.320244
 31
0.0
  0
LINE
  5
291
100
AcDbEntity
  8
0
 62
7
100
AcDbLine
 10
74.768498
 20
11.320244
 30
0.0
 11
74.715726
 21
11.157064
 31
0.0
  0
LINE
  5
292
100
AcDbEntity
  8
0
 62
7
100
AcDbLine
 10
74.715726
 20
11.157064
 30
0.0
 11
74.662954
 21
10.993884
 31
0.0
  0
LINE
  5
293
100
AcDbEntity
  8
0
 62
7
100
AcDbLine
 10
74.662954
 20
10.993884
 30
0.0
 11
74.610182
 21
10.830704
 31
0.0
  0
LINE
  5
294
100
AcDbEntity
  8
0
 62
7
100
AcDbLine
 10
74.610182
 20
10.830704
 30
0.0
 11
74.383195
 21
10.897278
 31
0.0
  0
LINE
  5
295
100
AcDbEntity
  8
0
 62
7
100
AcDbLine
 10
74.383195
 20
10.897278
 30
0.0
 11
74.173389
 21
10.944821
 31
0.0
  0
LINE
  5
296
100
AcDbEntity
  8
0
 62
7
100
AcDbLine
 10
74.173389
 20
10.944821
 30
0.0
 11
73.980765
 21
10.973339
 31
0.0
  0
LINE
  5
297
100
AcDbEntity
  8
0
 62
7
100
AcDbLine
 10
73.980765
 20
10.973339
 30
0.0
 11
73.805321
 21
10.982843
 31
0.0
  0
LINE
  5
298
100
AcDbEntity
  8
0
 62
7
100
AcDbLine
 10
73.805321
 20
10.982843
 30
0.0
 11
73.589676
 21
10.963674
 31
0.0
  0
LINE
  5
299
100
AcDbEntity
  8
0
 62
7
100
AcDbLine
 10
73.589676
 20
10.963674
 30
0.0
 11
73.404107
 21
10.906166
 31
0.0
  0
LINE
  5
29a
100
AcDbEntity
  8
0
 62
7
100
AcDbLine
 10
73.404107
 20
10.906166
 30
0.0
 11
73.248597
 21
10.810318
 31
0.0
  0
LINE
  5
29b
100
AcDbEntity
  8
0
 62
7
100
AcDbLine
 10
73.248597
 20
10.810318
 30
0.0
 11
73.123126
 21
10.676133
 31
0.0
  0
LINE
  5
29c
100
AcDbEntity
  8
0
 62
7
100
AcDbLine
 10
73.123126
 20
10.676133
 30
0.0
 11
73.026491
 21
10.499614
 31
0.0
  0
LINE
  5
29d
100
AcDbEntity
  8
0
 62
7
100
AcDbLine
 10
73.026491
 20
10.499614
 30
0.0
 11
72.957490
 21
10.276767
 31
0.0
  0
LINE
  5
29e
100
AcDbEntity
  8
0
 62
7
100
AcDbLine
 10
72.957490
 20
10.276767
 30
0.0
 11
72.916103
 21
10.007592
 31
0.0
  0
LINE
  5
29f
100
AcDbEntity
  8
0
 62
7
100
AcDbLine
 10
72.916103
 20
10.007592
 30
0.0
 11
72.902312
 21
9.692090
 31
0.0
  0
LINE
  5
2a0
100
AcDbEntity
  8
0
 62
7
100
AcDbLine
 10
72.902312
 20
9.692090
 30
0.0
 11
72.902312
 21
9.604980
 31
0.0
  0
LINE
  5
2a1
100
AcDbEntity
  8
0
 62
7
100
AcDbLine
 10
72.902312
 20
9.604980
 30
0.0
 11
72.902312
 21
9.517870
 31
0.0
  0
LINE
  5
2a2
100
AcDbEntity
  8
0
 62
7
100
AcDbLine
 10
72.902312
 20
9.517870
 30
0.0
 11
72.902312
 21
9.430759
 31
0.0
  0
LINE
  5
2a3
100
AcDbEntity
  8
0
 62
7
100
AcDbLine
 10
72.902312
 20
9.430759
 30
0.0
 11
72.902312
 21
9.343649
 31
0.0
  0
LINE
  5
2a4
100
AcDbEntity
  8
0
 62
7
100
AcDbLine
 10
72.902312
 20
9.343649
 30
0.0
 11
73.244625
 21
9.343649
 31
0.0
  0
LINE
  5
2a5
100
AcDbEntity
  8
0
 62
7
100
AcDbLine
 10
73.244625
 20
9.343649
 30
0.0
 11
73.586938
 21
9.343649
 31
0.0
  0
LINE
  5
2a6
100
AcDbEntity
  8
0
 62
7
100
AcDbLine
 10
73.586938
 20
9.343649
 30
0.0
 11
73.929253
 21
9.343649
 31
0.0
  0
LINE
  5
2a7
100
AcDbEntity
  8
0
 62
7
100
AcDbLine
 10
73.929253
 20
9.343649
 30
0.0
 11
74.271566
 21
9.343649
 31
0.0
  0
LINE
  5
2a8
100
AcDbEntity
  8
0
 62
7
100
AcDbLine
 10
74.271566
 20
9.343649
 30
0.0
 11
74.271566
 21
9.185356
 31
0.0
  0
LINE
  5
2a9
100
AcDbEntity
  8
0
 62
7
100
AcDbLine
 10
74.271566
 20
9.185356
 30
0.0
 11
74.271566
 21
9.027064
 31
0.0
  0
LINE
  5
2aa
100
AcDbEntity
  8
0
 62
7
100
AcDbLine
 10
74.271566
 20
9.027064
 30
0.0
 11
74.271566
 21
8.868772
 31
0.0
  0
LINE
  5
2ab
100
AcDbEntity
  8
0
 62
7
100
AcDbLine
 10
74.271566
 20
8.868772
 30
0.0
 11
74.271564
 21
8.710480
 31
0.0
  0
LINE
  5
2ac
100
AcDbEntity
  8
0
 62
7
100
AcDbLine
 10
76.067859
 20
3.964588
 30
0.0
 11
75.864188
 21
3.964588
 31
0.0
  0
LINE
  5
2ad
100
AcDbEntity
  8
0
 62
7
100
AcDbLine
 10
75.864188
 20
3.964588
 30
0.0
 11
75.660518
 21
3.964588
 31
0.0
  0
LINE
  5
2ae
100
AcDbEntity
  8
0
 62
7
100
AcDbLine
 10
75.660518
 20
3.964588
 30
0.0
 11
75.456846
 21
3.964588
 31
0.0
  0
LINE
  5
2af
100
AcDbEntity
  8
0
 62
7
100
AcDbLine
 10
75.456846
 20
3.964588
 30
0.0
 11
75.253174
 21
3.964588
 31
0.0
  0
LINE
  5
2b0
100
AcDbEntity
  8
0
 62
7
100
AcDbLine
 10
75.253174
 20
3.964588
 30
0.0
 11
75.253174
 21
5.873747
 31
0.0
  0
LINE
  5
2b1
100
AcDbEntity
  8
0
 62
7
100
AcDbLine
 10
75.253174
 20
5.873747
 30
0.0
 11
75.253174
 21
7.782907
 31
0.0
  0
LINE
  5
2b2
100
AcDbEntity
  8
0
 62
7
100
AcDbLine
 10
75.253174
 20
7.782907
 30
0.0
 11
75.253174
 21
9.692066
 31
0.0
  0
LINE
  5
2b3
100
AcDbEntity
  8
0
 62
7
100
AcDbLine
 10
75.253174
 20
9.692066
 30
0.0
 11
75.253174
 21
11.601226
 31
0.0
  0
LINE
  5
2b4
100
AcDbEntity
  8
0
 62
7
100
AcDbLine
 10
75.253174
 20
11.601226
 30
0.0
 11
75.456846
 21
11.601226
 31
0.0
  0
LINE
  5
2b5
100
AcDbEntity
  8
0
 62
7
100
AcDbLine
 10
75.456846
 20
11.601226
 30
0.0
 11
75.660518
 21
11.601226
 31
0.0
  0
LINE
  5
2b6
100
AcDbEntity
  8
0
 62
7
100
AcDbLine
 10
75.660518
 20
11.601226
 30
0.0
 11
75.864188
 21
11.601226
 31
0.0
  0
LINE
  5
2b7
100
AcDbEntity
  8
0
 62
7
100
AcDbLine
 10
75.864188
 20
11.601226
 30
0.0
 11
76.067859
 21
11.601226
 31
0.0
  0
LINE
  5
2b8
100
AcDbEntity
  8
0
 62
7
100
AcDbLine
 10
76.067859
 20
11.601226
 30
0.0
 11
76.067859
 21
9.692066
 31
0.0
  0
LINE
  5
2b9
100
AcDbEntity
  8
0
 62
7
100
AcDbLine
 10
76.067859
 20
9.692066
 30
0.0
 11
76.067859
 21
7.782907
 31
0.0
  0
LINE
  5
2ba
100
AcDbEntity
  8
0
 62
7
100
AcDbLine
 10
76.067859
 20
7.782907
 30
0.0
 11
76.067859
 21
5.873747
 31
0.0
  0
LINE
  5
2bb
100
AcDbEntity
  8
0
 62
7
100
AcDbLine
 10
76.067859
 20
5.873747
 30
0.0
 11
76.067859
 21
3.964588
 31
0.0
  0
LINE
  5
2bc
100
AcDbEntity
  8
0
 62
7
100
AcDbLine
 10
80.067744
 20
3.866437
 30
0.0
 11
79.502854
 21
3.911834
 31
0.0
  0
LINE
  5
2bd
100
AcDbEntity
  8
0
 62
7
100
AcDbLine
 10
79.502854
 20
3.911834
 30
0.0
 11
79.000872
 21
4.048026
 31
0.0
  0
LINE
  5
2be
100
AcDbEntity
  8
0
 62
7
100
AcDbLine
 10
79.000872
 20
4.048026
 30
0.0
 11
78.561777
 21
4.275013
 31
0.0
  0
LINE
  5
2bf
100
AcDbEntity
  8
0
 62
7
100
AcDbLine
 10
78.561777
 20
4.275013
 30
0.0
 11
78.185555
 21
4.592795
 31
0.0
  0
LINE
  5
2c0
100
AcDbEntity
  8
0
 62
7
100
AcDbLine
 10
78.185555
 20
4.592795
 30
0.0
 11
77.883875
 21
4.991250
 31
0.0
  0
LINE
  5
2c1
100
AcDbEntity
  8
0
 62
7
100
AcDbLine
 10
77.883875
 20
4.991250
 30
0.0
 11
77.668412
 21
5.460264
 31
0.0
  0
LINE
  5
2c2
100
AcDbEntity
  8
0
 62
7
100
AcDbLine
 10
77.668412
 20
5.460264
 30
0.0
 11
77.539148
 21
5.999846
 31
0.0
  0
LINE
  5
2c3
100
AcDbEntity
  8
0
 62
7
100
AcDbLine
 10
77.539148
 20
5.999846
 30
0.0
 11
77.496064
 21
6.610004
 31
0.0
  0
LINE
  5
2c4
100
AcDbEntity
  8
0
 62
7
100
AcDbLine
 10
77.496064
 20
6.610004
 30
0.0
 11
77.536084
 21
7.226836
 31
0.0
  0
LINE
  5
2c5
100
AcDbEntity
  8
0
 62
7
100
AcDbLine
 10
77.536084
 20
7.226836
 30
0.0
 11
77.656154
 21
7.776803
 31
0.0
  0
LINE
  5
2c6
100
AcDbEntity
  8
0
 62
7
100
AcDbLine
 10
77.656154
 20
7.776803
 30
0.0
 11
77.856296
 21
8.259905
 31
0.0
  0
LINE
  5
2c7
100
AcDbEntity
  8
0
 62
7
100
AcDbLine
 10
77.856296
 20
8.259905
 30
0.0
 11
78.136527
 21
8.676142
 31
0.0
  0
LINE
  5
2c8
100
AcDbEntity
  8
0
 62
7
100
AcDbLine
 10
78.136527
 20
8.676142
 30
0.0
 11
78.484200
 21
9.011103
 31
0.0
  0
LINE
  5
2c9
100
AcDbEntity
  8
0
 62
7
100
AcDbLine
 10
78.484200
 20
9.011103
 30
0.0
 11
78.886792
 21
9.250373
 31
0.0
  0
LINE
  5
2ca
100
AcDbEntity
  8
0
 62
7
100
AcDbLine
 10
78.886792
 20
9.250373
 30
0.0
 11
79.344283
 21
9.393942
 31
0.0
  0
LINE
  5
2cb
100
AcDbEntity
  8
0
 62
7
100
AcDbLine
 10
79.344283
 20
9.393942
 30
0.0
 11
79.856655
 21
9.441800
 31
0.0
  0
LINE
  5
2cc
100
AcDbEntity
  8
0
 62
7
100
AcDbLine
 10
79.856655
 20
9.441800
 30
0.0
 11
80.335798
 21
9.400233
 31
0.0
  0
LINE
  5
2cd
100
AcDbEntity
  8
0
 62
7
100
AcDbLine
 10
80.335798
 20
9.400233
 30
0.0
 11
80.762184
 21
9.275531
 31
0.0
  0
LINE
  5
2ce
100
AcDbEntity
  8
0
 62
7
100
AcDbLine
 10
80.762184
 20
9.275531
 30
0.0
 11
81.135804
 21
9.067695
 31
0.0
  0
LINE
  5
2cf
100
AcDbEntity
  8
0
 62
7
100
AcDbLine
 10
81.135804
 20
9.067695
 30
0.0
 11
81.456649
 21
8.776725
 31
0.0
  0
LINE
  5
2d0
100
AcDbEntity
  8
0
 62
7
100
AcDbLine
 10
81.456649
 20
8.776725
 30
0.0
 11
81.714295
 21
8.417723
 31
0.0
  0
LINE
  5
2d1
100
AcDbEntity
  8
0
 62
7
100
AcDbLine
 10
81.714295
 20
8.417723
 30
0.0
 11
81.898330
 21
8.005644
 31
0.0
  0
LINE
  5
2d2
100
AcDbEntity
  8
0
 62
7
100
AcDbLine
 10
81.898330
 20
8.005644
 30
0.0
 11
82.008750
 21
7.540489
 31
0.0
  0
LINE
  5
2d3
100
AcDbEntity
  8
0
 62
7
100
AcDbLine
 10
82.008750
 20
7.540489
 30
0.0
 11
82.045556
 21
7.022259
 31
0.0
  0
LINE
  5
2d4
100
AcDbEntity
  8
0
 62
7
100
AcDbLine
 10
82.045556
 20
7.022259
 30
0.0
 11
82.045556
 21
6.893417
 31
0.0
  0
LINE
  5
2d5
100
AcDbEntity
  8
0
 62
7
100
AcDbLine
 10
82.045556
 20
6.893417
 30
0.0
 11
82.045556
 21
6.764575
 31
0.0
  0
LINE
  5
2d6
100
AcDbEntity
  8
0
 62
7
100
AcDbLine
 10
82.045556
 20
6.764575
 30
0.0
 11
82.045556
 21
6.635733
 31
0.0
  0
LINE
  5
2d7
100
AcDbEntity
  8
0
 62
7
100
AcDbLine
 10
82.045556
 20
6.635733
 30
0.0
 11
82.045556
 21
6.506891
 31
0.0
  0
LINE
  5
2d8
100
AcDbEntity
  8
0
 62
7
100
AcDbLine
 10
82.045556
 20
6.506891
 30
0.0
 11
81.119198
 21
6.506891
 31
0.0
  0
LINE
  5
2d9
100
AcDbEntity
  8
0
 62
7
100
AcDbLine
 10
81.119198
 20
6.506891
 30
0.0
 11
80.192840
 21
6.506891
 31
0.0
  0
LINE
  5
2da
100
AcDbEntity
  8
0
 62
7
100
AcDbLine
 10
80.192840
 20
6.506891
 30
0.0
 11
79.266484
 21
6.506891
 31
0.0
  0
LINE
  5
2db
100
AcDbEntity
  8
0
 62
7
100
AcDbLine
 10
79.266484
 20
6.506891
 30
0.0
 11
78.340126
 21
6.506891
 31
0.0
  0
LINE
  5
2dc
100
AcDbEntity
  8
0
 62
7
100
AcDbLine
 10
78.340126
 20
6.506891
 30
0.0
 11
78.379272
 21
6.061797
 31
0.0
  0
LINE
  5
2dd
100
AcDbEntity
  8
0
 62
7
100
AcDbLine
 10
78.379272
 20
6.061797
 30
0.0
 11
78.472069
 21
5.673772
 31
0.0
  0
LINE
  5
2de
100
AcDbEntity
  8
0
 62
7
100
AcDbLine
 10
78.472069
 20
5.673772
 30
0.0
 11
78.618543
 21
5.342801
 31
0.0
  0
LINE
  5
2df
100
AcDbEntity
  8
0
 62
7
100
AcDbLine
 10
78.618543
 20
5.342801
 30
0.0
 11
78.818723
 21
5.068863
 31
0.0
  0
LINE
  5
2e0
100
AcDbEntity
  8
0
 62
7
100
AcDbLine
 10
78.818723
 20
5.068863
 30
0.0
 11
79.068855
 21
4.854171
 31
0.0
  0
LINE
  5
2e1
100
AcDbEntity
  8
0
 62
7
100
AcDbLine
 10
79.068855
 20
4.854171
 30
0.0
 11
79.365315
 21
4.700808
 31
0.0
  0
LINE
  5
2e2
100
AcDbEntity
  8
0
 62
7
100
AcDbLine
 10
79.365315
 20
4.700808
 30
0.0
 11
79.708103
 21
4.608783
 31
0.0
  0
LINE
  5
2e3
100
AcDbEntity
  8
0
 62
7
100
AcDbLine
 10
79.708103
 20
4.608783
 30
0.0
 11
80.097218
 21
4.578106
 31
0.0
  0
LINE
  5
2e4
100
AcDbEntity
  8
0
 62
7
100
AcDbLine
 10
80.097218
 20
4.578106
 30
0.0
 11
80.530308
 21
4.600813
 31
0.0
  0
LINE
  5
2e5
100
AcDbEntity
  8
0
 62
7
100
AcDbLine
 10
80.530308
 20
4.600813
 30
0.0
 11
80.960955
 21
4.668925
 31
0.0
  0
LINE
  5
2e6
100
AcDbEntity
  8
0
 62
7
100
AcDbLine
 10
80.960955
 20
4.668925
 30
0.0
 11
81.389156
 21
4.782436
 31
0.0
  0
LINE
  5
2e7
100
AcDbEntity
  8
0
 62
7
100
AcDbLine
 10
81.389156
 20
4.782436
 30
0.0
 11
81.814915
 21
4.941334
 31
0.0
  0
LINE
  5
2e8
100
AcDbEntity
  8
0
 62
7
100
AcDbLine
 10
81.814915
 20
4.941334
 30
0.0
 11
81.814915
 21
4.759745
 31
0.0
  0
LINE
  5
2e9
100
AcDbEntity
  8
0
 62
7
100
AcDbLine
 10
81.814915
 20
4.759745
 30
0.0
 11
81.814915
 21
4.578155
 31
0.0
  0
LINE
  5
2ea
100
AcDbEntity
  8
0
 62
7
100
AcDbLine
 10
81.814915
 20
4.578155
 30
0.0
 11
81.814915
 21
4.396565
 31
0.0
  0
LINE
  5
2eb
100
AcDbEntity
  8
0
 62
7
100
AcDbLine
 10
81.814915
 20
4.396565
 30
0.0
 11
81.814915
 21
4.214976
 31
0.0
  0
LINE
  5
2ec
100
AcDbEntity
  8
0
 62
7
100
AcDbLine
 10
81.814915
 20
4.214976
 30
0.0
 11
81.601881
 21
4.128282
 31
0.0
  0
LINE
  5
2ed
100
AcDbEntity
  8
0
 62
7
100
AcDbLine
 10
81.601881
 20
4.128282
 30
0.0
 11
81.394683
 21
4.054811
 31
0.0
  0
LINE
  5
2ee
100
AcDbEntity
  8
0
 62
7
100
AcDbLine
 10
81.394683
 20
4.054811
 30
0.0
 11
81.193322
 21
3.994546
 31
0.0
  0
LINE
  5
2ef
100
AcDbEntity
  8
0
 62
7
100
AcDbLine
 10
81.193322
 20
3.994546
 30
0.0
 11
80.997797
 21
3.947467
 31
0.0
  0
LINE
  5
2f0
100
AcDbEntity
  8
0
 62
7
100
AcDbLine
 10
80.997797
 20
3.947467
 30
0.0
 11
80.795161
 21
3.912030
 31
0.0
  0
LINE
  5
2f1
100
AcDbEntity
  8
0
 62
7
100
AcDbLine
 10
80.795161
 20
3.912030
 30
0.0
 11
80.572606
 21
3.886706
 31
0.0
  0
LINE
  5
2f2
100
AcDbEntity
  8
0
 62
7
100
AcDbLine
 10
80.572606
 20
3.886706
 30
0.0
 11
80.330134
 21
3.871505
 31
0.0
  0
LINE
  5
2f3
100
AcDbEntity
  8
0
 62
7
100
AcDbLine
 10
80.330134
 20
3.871505
 30
0.0
 11
80.067744
 21
3.866437
 31
0.0
  0
LINE
  5
2f4
100
AcDbEntity
  8
0
 62
7
100
AcDbLine
 10
79.846830
 20
8.759604
 30
0.0
 11
79.539358
 21
8.733229
 31
0.0
  0
LINE
  5
2f5
100
AcDbEntity
  8
0
 62
7
100
AcDbLine
 10
79.539358
 20
8.733229
 30
0.0
 11
79.264672
 21
8.654097
 31
0.0
  0
LINE
  5
2f6
100
AcDbEntity
  8
0
 62
7
100
AcDbLine
 10
79.264672
 20
8.654097
 30
0.0
 11
79.022797
 21
8.522198
 31
0.0
  0
LINE
  5
2f7
100
AcDbEntity
  8
0
 62
7
100
AcDbLine
 10
79.022797
 20
8.522198
 30
0.0
 11
78.813761
 21
8.337525
 31
0.0
  0
LINE
  5
2f8
100
AcDbEntity
  8
0
 62
7
100
AcDbLine
 10
78.813761
 20
8.337525
 30
0.0
 11
78.640928
 21
8.106230
 31
0.0
  0
LINE
  5
2f9
100
AcDbEntity
  8
0
 62
7
100
AcDbLine
 10
78.640928
 20
8.106230
 30
0.0
 11
78.507646
 21
7.834463
 31
0.0
  0
LINE
  5
2fa
100
AcDbEntity
  8
0
 62
7
100
AcDbLine
 10
78.507646
 20
7.834463
 30
0.0
 11
78.413925
 21
7.522205
 31
0.0
  0
LINE
  5
2fb
100
AcDbEntity
  8
0
 62
7
100
AcDbLine
 10
78.413925
 20
7.522205
 30
0.0
 11
78.359775
 21
7.169437
 31
0.0
  0
LINE
  5
2fc
100
AcDbEntity
  8
0
 62
7
100
AcDbLine
 10
78.359775
 20
7.169437
 30
0.0
 11
79.062836
 21
7.169437
 31
0.0
  0
LINE
  5
2fd
100
AcDbEntity
  8
0
 62
7
100
AcDbLine
 10
79.062836
 20
7.169437
 30
0.0
 11
79.765897
 21
7.169437
 31
0.0
  0
LINE
  5
2fe
100
AcDbEntity
  8
0
 62
7
100
AcDbLine
 10
79.765897
 20
7.169437
 30
0.0
 11
80.468957
 21
7.169437
 31
0.0
  0
LINE
  5
2ff
100
AcDbEntity
  8
0
 62
7
100
AcDbLine
 10
80.468957
 20
7.169437
 30
0.0
 11
81.172019
 21
7.169437
 31
0.0
  0
LINE
  5
300
100
AcDbEntity
  8
0
 62
7
100
AcDbLine
 10
81.172019
 20
7.169437
 30
0.0
 11
81.150536
 21
7.532177
 31
0.0
  0
LINE
  5
301
100
AcDbEntity
  8
0
 62
7
100
AcDbLine
 10
81.150536
 20
7.532177
 30
0.0
 11
81.086100
 21
7.849820
 31
0.0
  0
LINE
  5
302
100
AcDbEntity
  8
0
 62
7
100
AcDbLine
 10
81.086100
 20
7.849820
 30
0.0
 11
80.978728
 21
8.122358
 31
0.0
  0
LINE
  5
303
100
AcDbEntity
  8
0
 62
7
100
AcDbLine
 10
80.978728
 20
8.122358
 30
0.0
 11
80.828441
 21
8.349782
 31
0.0
  0
LINE
  5
304
100
AcDbEntity
  8
0
 62
7
100
AcDbLine
 10
80.828441
 20
8.349782
 30
0.0
 11
80.638280
 21
8.529093
 31
0.0
  0
LINE
  5
305
100
AcDbEntity
  8
0
 62
7
100
AcDbLine
 10
80.638280
 20
8.529093
 30
0.0
 11
80.411286
 21
8.657161
 31
0.0
  0
LINE
  5
306
100
AcDbEntity
  8
0
 62
7
100
AcDbLine
 10
80.411286
 20
8.657161
 30
0.0
 11
80.147467
 21
8.733995
 31
0.0
  0
LINE
  5
307
100
AcDbEntity
  8
0
 62
7
100
AcDbLine
 10
80.147467
 20
8.733995
 30
0.0
 11
79.846830
 21
8.759604
 31
0.0
  0
LINE
  5
308
100
AcDbEntity
  8
0
 62
7
100
AcDbLine
 10
84.528910
 20
6.717980
 30
0.0
 11
84.061451
 21
7.374397
 31
0.0
  0
LINE
  5
309
100
AcDbEntity
  8
0
 62
7
100
AcDbLine
 10
84.061451
 20
7.374397
 30
0.0
 11
83.593993
 21
8.030814
 31
0.0
  0
LINE
  5
30a
100
AcDbEntity
  8
0
 62
7
100
AcDbLine
 10
83.593993
 20
8.030814
 30
0.0
 11
83.126533
 21
8.687231
 31
0.0
  0
LINE
  5
30b
100
AcDbEntity
  8
0
 62
7
100
AcDbLine
 10
83.126533
 20
8.687231
 30
0.0
 11
82.659075
 21
9.343649
 31
0.0
  0
LINE
  5
30c
100
AcDbEntity
  8
0
 62
7
100
AcDbLine
 10
82.659075
 20
9.343649
 30
0.0
 11
82.890956
 21
9.343649
 31
0.0
  0
LINE
  5
30d
100
AcDbEntity
  8
0
 62
7
100
AcDbLine
 10
82.890956
 20
9.343649
 30
0.0
 11
83.122838
 21
9.343649
 31
0.0
  0
LINE
  5
30e
100
AcDbEntity
  8
0
 62
7
100
AcDbLine
 10
83.122838
 20
9.343649
 30
0.0
 11
83.354718
 21
9.343649
 31
0.0
  0
LINE
  5
30f
100
AcDbEntity
  8
0
 62
7
100
AcDbLine
 10
83.354718
 20
9.343649
 30
0.0
 11
83.586599
 21
9.343649
 31
0.0
  0
LINE
  5
310
100
AcDbEntity
  8
0
 62
7
100
AcDbLine
 10
83.586599
 20
9.343649
 30
0.0
 11
83.941194
 21
8.828330
 31
0.0
  0
LINE
  5
311
100
AcDbEntity
  8
0
 62
7
100
AcDbLine
 10
83.941194
 20
8.828330
 30
0.0
 11
84.295789
 21
8.313011
 31
0.0
  0
LINE
  5
312
100
AcDbEntity
  8
0
 62
7
100
AcDbLine
 10
84.295789
 20
8.313011
 30
0.0
 11
84.650384
 21
7.797693
 31
0.0
  0
LINE
  5
313
100
AcDbEntity
  8
0
 62
7
100
AcDbLine
 10
84.650384
 20
7.797693
 30
0.0
 11
85.004979
 21
7.282374
 31
0.0
  0
LINE
  5
314
100
AcDbEntity
  8
0
 62
7
100
AcDbLine
 10
85.004979
 20
7.282374
 30
0.0
 11
85.358357
 21
7.797693
 31
0.0
  0
LINE
  5
315
100
AcDbEntity
  8
0
 62
7
100
AcDbLine
 10
85.358357
 20
7.797693
 30
0.0
 11
85.711735
 21
8.313011
 31
0.0
  0
LINE
  5
316
100
AcDbEntity
  8
0
 62
7
100
AcDbLine
 10
85.711735
 20
8.313011
 30
0.0
 11
86.065114
 21
8.828330
 31
0.0
  0
LINE
  5
317
100
AcDbEntity
  8
0
 62
7
100
AcDbLine
 10
86.065114
 20
8.828330
 30
0.0
 11
86.418492
 21
9.343649
 31
0.0
  0
LINE
  5
318
100
AcDbEntity
  8
0
 62
7
100
AcDbLine
 10
86.418492
 20
9.343649
 30
0.0
 11
86.647917
 21
9.343649
 31
0.0
  0
LINE
  5
319
100
AcDbEntity
  8
0
 62
7
100
AcDbLine
 10
86.647917
 20
9.343649
 30
0.0
 11
86.877342
 21
9.343649
 31
0.0
  0
LINE
  5
31a
100
AcDbEntity
  8
0
 62
7
100
AcDbLine
 10
86.877342
 20
9.343649
 30
0.0
 11
87.106768
 21
9.343649
 31
0.0
  0
LINE
  5
31b
100
AcDbEntity
  8
0
 62
7
100
AcDbLine
 10
87.106768
 20
9.343649
 30
0.0
 11
87.336193
 21
9.343649
 31
0.0
  0
LINE
  5
31c
100
AcDbEntity
  8
0
 62
7
100
AcDbLine
 10
87.336193
 20
9.343649
 30
0.0
 11
86.868733
 21
8.687231
 31
0.0
  0
LINE
  5
31d
100
AcDbEntity
  8
0
 62
7
100
AcDbLine
 10
86.868733
 20
8.687231
 30
0.0
 11
86.401275
 21
8.030814
 31
0.0
  0
LINE
  5
31e
100
AcDbEntity
  8
0
 62
7
100
AcDbLine
 10
86.401275
 20
8.030814
 30
0.0
 11
85.933815
 21
7.374397
 31
0.0
  0
LINE
  5
31f
100
AcDbEntity
  8
0
 62
7
100
AcDbLine
 10
85.933815
 20
7.374397
 30
0.0
 11
85.466357
 21
6.717980
 31
0.0
  0
LINE
  5
320
100
AcDbEntity
  8
0
 62
7
100
AcDbLine
 10
85.466357
 20
6.717980
 30
0.0
 11
85.958354
 21
6.029632
 31
0.0
  0
LINE
  5
321
100
AcDbEntity
  8
0
 62
7
100
AcDbLine
 10
85.958354
 20
6.029632
 30
0.0
 11
86.450350
 21
5.341284
 31
0.0
  0
LINE
  5
322
100
AcDbEntity
  8
0
 62
7
100
AcDbLine
 10
86.450350
 20
5.341284
 30
0.0
 11
86.942348
 21
4.652936
 31
0.0
  0
LINE
  5
323
100
AcDbEntity
  8
0
 62
7
100
AcDbLine
 10
86.942348
 20
4.652936
 30
0.0
 11
87.434344
 21
3.964588
 31
0.0
  0
LINE
  5
324
100
AcDbEntity
  8
0
 62
7
100
AcDbLine
 10
87.434344
 20
3.964588
 30
0.0
 11
87.203679
 21
3.964588
 31
0.0
  0
LINE
  5
325
100
AcDbEntity
  8
0
 62
7
100
AcDbLine
 10
87.203679
 20
3.964588
 30
0.0
 11
86.973013
 21
3.964588
 31
0.0
  0
LINE
  5
326
100
AcDbEntity
  8
0
 62
7
100
AcDbLine
 10
86.973013
 20
3.964588
 30
0.0
 11
86.742348
 21
3.964588
 31
0.0
  0
LINE
  5
327
100
AcDbEntity
  8
0
 62
7
100
AcDbLine
 10
86.742348
 20
3.964588
 30
0.0
 11
86.511683
 21
3.964588
 31
0.0
  0
LINE
  5
328
100
AcDbEntity
  8
0
 62
7
100
AcDbLine
 10
86.511683
 20
3.964588
 30
0.0
 11
86.135007
 21
4.509381
 31
0.0
  0
LINE
  5
329
100
AcDbEntity
  8
0
 62
7
100
AcDbLine
 10
86.135007
 20
4.509381
 30
0.0
 11
85.758330
 21
5.054174
 31
0.0
  0
LINE
  5
32a
100
AcDbEntity
  8
0
 62
7
100
AcDbLine
 10
85.758330
 20
5.054174
 30
0.0
 11
85.381655
 21
5.598967
 31
0.0
  0
LINE
  5
32b
100
AcDbEntity
  8
0
 62
7
100
AcDbLine
 10
85.381655
 20
5.598967
 30
0.0
 11
85.004979
 21
6.143761
 31
0.0
  0
LINE
  5
32c
100
AcDbEntity
  8
0
 62
7
100
AcDbLine
 10
85.004979
 20
6.143761
 30
0.0
 11
84.624630
 21
5.598967
 31
0.0
  0
LINE
  5
32d
100
AcDbEntity
  8
0
 62
7
100
AcDbLine
 10
84.624630
 20
5.598967
 30
0.0
 11
84.244281
 21
5.054174
 31
0.0
  0
LINE
  5
32e
100
AcDbEntity
  8
0
 62
7
100
AcDbLine
 10
84.244281
 20
5.054174
 30
0.0
 11
83.863933
 21
4.509381
 31
0.0
  0
LINE
  5
32f
100
AcDbEntity
  8
0
 62
7
100
AcDbLine
 10
83.863933
 20
4.509381
 30
0.0
 11
83.483585
 21
3.964588
 31
0.0
  0
LINE
  5
330
100
AcDbEntity
  8
0
 62
7
100
AcDbLine
 10
83.483585
 20
3.964588
 30
0.0
 11
83.252920
 21
3.964588
 31
0.0
  0
LINE
  5
331
100
AcDbEntity
  8
0
 62
7
100
AcDbLine
 10
83.252920
 20
3.964588
 30
0.0
 11
83.022253
 21
3.964588
 31
0.0
  0
LINE
  5
332
100
AcDbEntity
  8
0
 62
7
100
AcDbLine
 10
83.022253
 20
3.964588
 30
0.0
 11
82.791588
 21
3.964588
 31
0.0
  0
LINE
  5
333
100
AcDbEntity
  8
0
 62
7
100
AcDbLine
 10
82.791588
 20
3.964588
 30
0.0
 11
82.560923
 21
3.964588
 31
0.0
  0
LINE
  5
334
100
AcDbEntity
  8
0
 62
7
100
AcDbLine
 10
82.560923
 20
3.964588
 30
0.0
 11
83.052920
 21
4.652936
 31
0.0
  0
LINE
  5
335
100
AcDbEntity
  8
0
 62
7
100
AcDbLine
 10
83.052920
 20
4.652936
 30
0.0
 11
83.544916
 21
5.341284
 31
0.0
  0
LINE
  5
336
100
AcDbEntity
  8
0
 62
7
100
AcDbLine
 10
83.544916
 20
5.341284
 30
0.0
 11
84.036914
 21
6.029632
 31
0.0
  0
LINE
  5
337
100
AcDbEntity
  8
0
 62
7
100
AcDbLine
 10
84.036914
 20
6.029632
 30
0.0
 11
84.528910
 21
6.717980
 31
0.0
  0
LINE
  5
338
100
AcDbEntity
  8
0
 62
7
100
AcDbLine
 10
89.264977
 20
9.343649
 30
0.0
 11
89.264977
 21
8.471279
 31
0.0
  0
LINE
  5
339
100
AcDbEntity
  8
0
 62
7
100
AcDbLine
 10
89.264977
 20
8.471279
 30
0.0
 11
89.264977
 21
7.598909
 31
0.0
  0
LINE
  5
33a
100
AcDbEntity
  8
0
 62
7
100
AcDbLine
 10
89.264977
 20
7.598909
 30
0.0
 11
89.264977
 21
6.726540
 31
0.0
  0
LINE
  5
33b
100
AcDbEntity
  8
0
 62
7
100
AcDbLine
 10
89.264977
 20
6.726540
 30
0.0
 11
89.264977
 21
5.854171
 31
0.0
  0
LINE
  5
33c
100
AcDbEntity
  8
0
 62
7
100
AcDbLine
 10
89.264977
 20
5.854171
 30
0.0
 11
89.283690
 21
5.546203
 31
0.0
  0
LINE
  5
33d
100
AcDbEntity
  8
0
 62
7
100
AcDbLine
 10
89.283690
 20
5.546203
 30
0.0
 11
89.339831
 21
5.279939
 31
0.0
  0
LINE
  5
33e
100
AcDbEntity
  8
0
 62
7
100
AcDbLine
 10
89.339831
 20
5.279939
 30
0.0
 11
89.433399
 21
5.055389
 31
0.0
  0
LINE
  5
33f
100
AcDbEntity
  8
0
 62
7
100
AcDbLine
 10
89.433399
 20
5.055389
 30
0.0
 11
89.564392
 21
4.872560
 31
0.0
  0
LINE
  5
340
100
AcDbEntity
  8
0
 62
7
100
AcDbLine
 10
89.564392
 20
4.872560
 30
0.0
 11
89.735257
 21
4.730841
 31
0.0
  0
LINE
  5
341
100
AcDbEntity
  8
0
 62
7
100
AcDbLine
 10
89.735257
 20
4.730841
 30
0.0
 11
89.948437
 21
4.629614
 31
0.0
  0
LINE
  5
342
100
AcDbEntity
  8
0
 62
7
100
AcDbLine
 10
89.948437
 20
4.629614
 30
0.0
 11
90.203933
 21
4.568877
 31
0.0
  0
LINE
  5
343
100
AcDbEntity
  8
0
 62
7
100
AcDbLine
 10
90.203933
 20
4.568877
 30
0.0
 11
90.501743
 21
4.548632
 31
0.0
  0
LINE
  5
344
100
AcDbEntity
  8
0
 62
7
100
AcDbLine
 10
90.501743
 20
4.548632
 30
0.0
 11
90.895476
 21
4.577468
 31
0.0
  0
LINE
  5
345
100
AcDbEntity
  8
0
 62
7
100
AcDbLine
 10
90.895476
 20
4.577468
 30
0.0
 11
91.232429
 21
4.663977
 31
0.0
  0
LINE
  5
346
100
AcDbEntity
  8
0
 62
7
100
AcDbLine
 10
91.232429
 20
4.663977
 30
0.0
 11
91.512623
 21
4.808157
 31
0.0
  0
LINE
  5
347
100
AcDbEntity
  8
0
 62
7
100
AcDbLine
 10
91.512623
 20
4.808157
 30
0.0
 11
91.736075
 21
5.010011
 31
0.0
  0
LINE
  5
348
100
AcDbEntity
  8
0
 62
7
100
AcDbLine
 10
91.736075
 20
5.010011
 30
0.0
 11
91.906775
 21
5.277197
 31
0.0
  0
LINE
  5
349
100
AcDbEntity
  8
0
 62
7
100
AcDbLine
 10
91.906775
 20
5.277197
 30
0.0
 11
92.028705
 21
5.617377
 31
0.0
  0
LINE
  5
34a
100
AcDbEntity
  8
0
 62
7
100
AcDbLine
 10
92.028705
 20
5.617377
 30
0.0
 11
92.101862
 21
6.030550
 31
0.0
  0
LINE
  5
34b
100
AcDbEntity
  8
0
 62
7
100
AcDbLine
 10
92.101862
 20
6.030550
 30
0.0
 11
92.126248
 21
6.516716
 31
0.0
  0
LINE
  5
34c
100
AcDbEntity
  8
0
 62
7
100
AcDbLine
 10
92.126248
 20
6.516716
 30
0.0
 11
92.126248
 21
7.223449
 31
0.0
  0
LINE
  5
34d
100
AcDbEntity
  8
0
 62
7
100
AcDbLine
 10
92.126248
 20
7.223449
 30
0.0
 11
92.126248
 21
7.930182
 31
0.0
  0
LINE
  5
34e
100
AcDbEntity
  8
0
 62
7
100
AcDbLine
 10
92.126248
 20
7.930182
 30
0.0
 11
92.126248
 21
8.636915
 31
0.0
  0
LINE
  5
34f
100
AcDbEntity
  8
0
 62
7
100
AcDbLine
 10
92.126248
 20
8.636915
 30
0.0
 11
92.126248
 21
9.343649
 31
0.0
  0
LINE
  5
350
100
AcDbEntity
  8
0
 62
7
100
AcDbLine
 10
92.126248
 20
9.343649
 30
0.0
 11
92.329945
 21
9.343649
 31
0.0
  0
LINE
  5
351
100
AcDbEntity
  8
0
 62
7
100
AcDbLine
 10
92.329945
 20
9.343649
 30
0.0
 11
92.533640
 21
9.343649
 31
0.0
  0
LINE
  5
352
100
AcDbEntity
  8
0
 62
7
100
AcDbLine
 10
92.533640
 20
9.343649
 30
0.0
 11
92.737336
 21
9.343649
 31
0.0
  0
LINE
  5
353
100
AcDbEntity
  8
0
 62
7
100
AcDbLine
 10
92.737336
 20
9.343649
 30
0.0
 11
92.941032
 21
9.343649
 31
0.0
  0
LINE
  5
354
100
AcDbEntity
  8
0
 62
7
100
AcDbLine
 10
92.941032
 20
9.343649
 30
0.0
 11
92.941032
 21
7.998883
 31
0.0
  0
LINE
  5
355
100
AcDbEntity
  8
0
 62
7
100
AcDbLine
 10
92.941032
 20
7.998883
 30
0.0
 11
92.941032
 21
6.654118
 31
0.0
  0
LINE
  5
356
100
AcDbEntity
  8
0
 62
7
100
AcDbLine
 10
92.941032
 20
6.654118
 30
0.0
 11
92.941032
 21
5.309353
 31
0.0
  0
LINE
  5
357
100
AcDbEntity
  8
0
 62
7
100
AcDbLine
 10
92.941032
 20
5.309353
 30
0.0
 11
92.941032
 21
3.964588
 31
0.0
  0
LINE
  5
358
100
AcDbEntity
  8
0
 62
7
100
AcDbLine
 10
92.941032
 20
3.964588
 30
0.0
 11
92.772915
 21
3.964588
 31
0.0
  0
LINE
  5
359
100
AcDbEntity
  8
0
 62
7
100
AcDbLine
 10
92.772915
 20
3.964588
 30
0.0
 11
92.604798
 21
3.964588
 31
0.0
  0
LINE
  5
35a
100
AcDbEntity
  8
0
 62
7
100
AcDbLine
 10
92.604798
 20
3.964588
 30
0.0
 11
92.436680
 21
3.964588
 31
0.0
  0
LINE
  5
35b
100
AcDbEntity
  8
0
 62
7
100
AcDbLine
 10
92.436680
 20
3.964588
 30
0.0
 11
92.268563
 21
3.964588
 31
0.0
  0
LINE
  5
35c
100
AcDbEntity
  8
0
 62
7
100
AcDbLine
 10
92.268563
 20
3.964588
 30
0.0
 11
92.239138
 21
4.144961
 31
0.0
  0
LINE
  5
35d
100
AcDbEntity
  8
0
 62
7
100
AcDbLine
 10
92.239138
 20
4.144961
 30
0.0
 11
92.209711
 21
4.325335
 31
0.0
  0
LINE
  5
35e
100
AcDbEntity
  8
0
 62
7
100
AcDbLine
 10
92.209711
 20
4.325335
 30
0.0
 11
92.180286
 21
4.505709
 31
0.0
  0
LINE
  5
35f
100
AcDbEntity
  8
0
 62
7
100
AcDbLine
 10
92.180286
 20
4.505709
 30
0.0
 11
92.150860
 21
4.686082
 31
0.0
  0
LINE
  5
360
100
AcDbEntity
  8
0
 62
7
100
AcDbLine
 10
92.150860
 20
4.686082
 30
0.0
 11
92.139818
 21
4.686082
 31
0.0
  0
LINE
  5
361
100
AcDbEntity
  8
0
 62
7
100
AcDbLine
 10
92.139818
 20
4.686082
 30
0.0
 11
92.128777
 21
4.686082
 31
0.0
  0
LINE
  5
362
100
AcDbEntity
  8
0
 62
7
100
AcDbLine
 10
92.128777
 20
4.686082
 30
0.0
 11
92.117735
 21
4.686082
 31
0.0
  0
LINE
  5
363
100
AcDbEntity
  8
0
 62
7
100
AcDbLine
 10
92.117735
 20
4.686082
 30
0.0
 11
92.106694
 21
4.686082
 31
0.0
  0
LINE
  5
364
100
AcDbEntity
  8
0
 62
7
100
AcDbLine
 10
92.106694
 20
4.686082
 30
0.0
 11
91.969388
 21
4.498988
 31
0.0
  0
LINE
  5
365
100
AcDbEntity
  8
0
 62
7
100
AcDbLine
 10
91.969388
 20
4.498988
 30
0.0
 11
91.807862
 21
4.335184
 31
0.0
  0
LINE
  5
366
100
AcDbEntity
  8
0
 62
7
100
AcDbLine
 10
91.807862
 20
4.335184
 30
0.0
 11
91.622113
 21
4.194691
 31
0.0
  0
LINE
  5
367
100
AcDbEntity
  8
0
 62
7
100
AcDbLine
 10
91.622113
 20
4.194691
 30
0.0
 11
91.412143
 21
4.077525
 31
0.0
  0
LINE
  5
368
100
AcDbEntity
  8
0
 62
7
100
AcDbLine
 10
91.412143
 20
4.077525
 30
0.0
 11
91.182253
 21
3.985201
 31
0.0
  0
LINE
  5
369
100
AcDbEntity
  8
0
 62
7
100
AcDbLine
 10
91.182253
 20
3.985201
 30
0.0
 11
90.936733
 21
3.919233
 31
0.0
  0
LINE
  5
36a
100
AcDbEntity
  8
0
 62
7
100
AcDbLine
 10
90.936733
 20
3.919233
 30
0.0
 11
90.675563
 21
3.879639
 31
0.0
  0
LINE
  5
36b
100
AcDbEntity
  8
0
 62
7
100
AcDbLine
 10
90.675563
 20
3.879639
 30
0.0
 11
90.398724
 21
3.866436
 31
0.0
  0
LINE
  5
36c
100
AcDbEntity
  8
0
 62
7
100
AcDbLine
 10
90.398724
 20
3.866436
 30
0.0
 11
89.938767
 21
3.895581
 31
0.0
  0
LINE
  5
36d
100
AcDbEntity
  8
0
 62
7
100
AcDbLine
 10
89.938767
 20
3.895581
 30
0.0
 11
89.540460
 21
3.983009
 31
0.0
  0
LINE
  5
36e
100
AcDbEntity
  8
0
 62
7
100
AcDbLine
 10
89.540460
 20
3.983009
 30
0.0
 11
89.203801
 21
4.128711
 31
0.0
  0
LINE
  5
36f
100
AcDbEntity
  8
0
 62
7
100
AcDbLine
 10
89.203801
 20
4.128711
 30
0.0
 11
88.928789
 21
4.332679
 31
0.0
  0
LINE
  5
370
100
AcDbEntity
  8
0
 62
7
100
AcDbLine
 10
88.928789
 20
4.332679
 30
0.0
 11
88.715174
 21
4.600798
 31
0.0
  0
LINE
  5
371
100
AcDbEntity
  8
0
 62
7
100
AcDbLine
 10
88.715174
 20
4.600798
 30
0.0
 11
88.562571
 21
4.938829
 31
0.0
  0
LINE
  5
372
100
AcDbEntity
  8
0
 62
7
100
AcDbLine
 10
88.562571
 20
4.938829
 30
0.0
 11
88.470994
 21
5.346789
 31
0.0
  0
LINE
  5
373
100
AcDbEntity
  8
0
 62
7
100
AcDbLine
 10
88.470994
 20
5.346789
 30
0.0
 11
88.440465
 21
5.824696
 31
0.0
  0
LINE
  5
374
100
AcDbEntity
  8
0
 62
7
100
AcDbLine
 10
88.440465
 20
5.824696
 30
0.0
 11
88.440465
 21
6.704434
 31
0.0
  0
LINE
  5
375
100
AcDbEntity
  8
0
 62
7
100
AcDbLine
 10
88.440465
 20
6.704434
 30
0.0
 11
88.440465
 21
7.584172
 31
0.0
  0
LINE
  5
376
100
AcDbEntity
  8
0
 62
7
100
AcDbLine
 10
88.440465
 20
7.584172
 30
0.0
 11
88.440465
 21
8.463910
 31
0.0
  0
LINE
  5
377
100
AcDbEntity
  8
0
 62
7
100
AcDbLine
 10
88.440465
 20
8.463910
 30
0.0
 11
88.440465
 21
9.343648
 31
0.0
  0
LINE
  5
378
100
AcDbEntity
  8
0
 62
7
100
AcDbLine
 10
88.440465
 20
9.343648
 30
0.0
 11
88.646593
 21
9.343648
 31
0.0
  0
LINE
  5
379
100
AcDbEntity
  8
0
 62
7
100
AcDbLine
 10
88.646593
 20
9.343648
 30
0.0
 11
88.852719
 21
9.343648
 31
0.0
  0
LINE
  5
37a
100
AcDbEntity
  8
0
 62
7
100
AcDbLine
 10
88.852719
 20
9.343648
 30
0.0
 11
89.058848
 21
9.343648
 31
0.0
  0
LINE
  5
37b
100
AcDbEntity
  8
0
 62
7
100
AcDbLine
 10
89.058848
 20
9.343648
 30
0.0
 11
89.264977
 21
9.343649
 31
0.0
  0
LINE
  5
37c
100
AcDbEntity
  8
0
 62
7
100
AcDbLine
 10
97.122431
 20
9.441800
 30
0.0
 11
97.297000
 21
9.438115
 31
0.0
  0
LINE
  5
37d
100
AcDbEntity
  8
0
 62
7
100
AcDbLine
 10
97.297000
 20
9.438115
 30
0.0
 11
97.462350
 21
9.427061
 31
0.0
  0
LINE
  5
37e
100
AcDbEntity
  8
0
 62
7
100
AcDbLine
 10
97.462350
 20
9.427061
 30
0.0
 11
97.618488
 21
9.408640
 31
0.0
  0
LINE
  5
37f
100
AcDbEntity
  8
0
 62
7
100
AcDbLine
 10
97.618488
 20
9.408640
 30
0.0
 11
97.765425
 21
9.382850
 31
0.0
  0
LINE
  5
380
100
AcDbEntity
  8
0
 62
7
100
AcDbLine
 10
97.765425
 20
9.382850
 30
0.0
 11
97.737191
 21
9.193916
 31
0.0
  0
LINE
  5
381
100
AcDbEntity
  8
0
 62
7
100
AcDbLine
 10
97.737191
 20
9.193916
 30
0.0
 11
97.708956
 21
9.004982
 31
0.0
  0
LINE
  5
382
100
AcDbEntity
  8
0
 62
7
100
AcDbLine
 10
97.708956
 20
9.004982
 30
0.0
 11
97.680723
 21
8.816048
 31
0.0
  0
LINE
  5
383
100
AcDbEntity
  8
0
 62
7
100
AcDbLine
 10
97.680723
 20
8.816048
 30
0.0
 11
97.652488
 21
8.627114
 31
0.0
  0
LINE
  5
384
100
AcDbEntity
  8
0
 62
7
100
AcDbLine
 10
97.652488
 20
8.627114
 30
0.0
 11
97.490542
 21
8.659288
 31
0.0
  0
LINE
  5
385
100
AcDbEntity
  8
0
 62
7
100
AcDbLine
 10
97.490542
 20
8.659288
 30
0.0
 11
97.338408
 21
8.682269
 31
0.0
  0
LINE
  5
386
100
AcDbEntity
  8
0
 62
7
100
AcDbLine
 10
97.338408
 20
8.682269
 30
0.0
 11
97.196087
 21
8.696059
 31
0.0
  0
LINE
  5
387
100
AcDbEntity
  8
0
 62
7
100
AcDbLine
 10
97.196087
 20
8.696059
 30
0.0
 11
97.063580
 21
8.700656
 31
0.0
  0
LINE
  5
388
100
AcDbEntity
  8
0
 62
7
100
AcDbLine
 10
97.063580
 20
8.700656
 30
0.0
 11
96.748990
 21
8.667533
 31
0.0
  0
LINE
  5
389
100
AcDbEntity
  8
0
 62
7
100
AcDbLine
 10
96.748990
 20
8.667533
 30
0.0
 11
96.458039
 21
8.568166
 31
0.0
  0
LINE
  5
38a
100
AcDbEntity
  8
0
 62
7
100
AcDbLine
 10
96.458039
 20
8.568166
 30
0.0
 11
96.190724
 21
8.402554
 31
0.0
  0
LINE
  5
38b
100
AcDbEntity
  8
0
 62
7
100
AcDbLine
 10
96.190724
 20
8.402554
 30
0.0
 11
95.947048
 21
8.170697
 31
0.0
  0
LINE
  5
38c
100
AcDbEntity
  8
0
 62
7
100
AcDbLine
 10
95.947048
 20
8.170697
 30
0.0
 11
95.744118
 21
7.889394
 31
0.0
  0
LINE
  5
38d
100
AcDbEntity
  8
0
 62
7
100
AcDbLine
 10
95.744118
 20
7.889394
 30
0.0
 11
95.599178
 21
7.575588
 31
0.0
  0
LINE
  5
38e
100
AcDbEntity
  8
0
 62
7
100
AcDbLine
 10
95.599178
 20
7.575588
 30
0.0
 11
95.512220
 21
7.229280
 31
0.0
  0
LINE
  5
38f
100
AcDbEntity
  8
0
 62
7
100
AcDbLine
 10
95.512220
 20
7.229280
 30
0.0
 11
95.483237
 21
6.850470
 31
0.0
  0
LINE
  5
390
100
AcDbEntity
  8
0
 62
7
100
AcDbLine
 10
95.483237
 20
6.850470
 30
0.0
 11
95.483237
 21
6.128999
 31
0.0
  0
LINE
  5
391
100
AcDbEntity
  8
0
 62
7
100
AcDbLine
 10
95.483237
 20
6.128999
 30
0.0
 11
95.483237
 21
5.407529
 31
0.0
  0
LINE
  5
392
100
AcDbEntity
  8
0
 62
7
100
AcDbLine
 10
95.483237
 20
5.407529
 30
0.0
 11
95.483237
 21
4.686058
 31
0.0
  0
LINE
  5
393
100
AcDbEntity
  8
0
 62
7
100
AcDbLine
 10
95.483237
 20
4.686058
 30
0.0
 11
95.483237
 21
3.964588
 31
0.0
  0
LINE
  5
394
100
AcDbEntity
  8
0
 62
7
100
AcDbLine
 10
95.483237
 20
3.964588
 30
0.0
 11
95.279565
 21
3.964588
 31
0.0
  0
LINE
  5
395
100
AcDbEntity
  8
0
 62
7
100
AcDbLine
 10
95.279565
 20
3.964588
 30
0.0
 11
95.075895
 21
3.964588
 31
0.0
  0
LINE
  5
396
100
AcDbEntity
  8
0
 62
7
100
AcDbLine
 10
95.075895
 20
3.964588
 30
0.0
 11
94.872224
 21
3.964588
 31
0.0
  0
LINE
  5
397
100
AcDbEntity
  8
0
 62
7
100
AcDbLine
 10
94.872224
 20
3.964588
 30
0.0
 11
94.668552
 21
3.964588
 31
0.0
  0
LINE
  5
398
100
AcDbEntity
  8
0
 62
7
100
AcDbLine
 10
94.668552
 20
3.964588
 30
0.0
 11
94.668552
 21
5.309353
 31
0.0
  0
LINE
  5
399
100
AcDbEntity
  8
0
 62
7
100
AcDbLine
 10
94.668552
 20
5.309353
 30
0.0
 11
94.668552
 21
6.654118
 31
0.0
  0
LINE
  5
39a
100
AcDbEntity
  8
0
 62
7
100
AcDbLine
 10
94.668552
 20
6.654118
 30
0.0
 11
94.668552
 21
7.998883
 31
0.0
  0
LINE
  5
39b
100
AcDbEntity
  8
0
 62
7
100
AcDbLine
 10
94.668552
 20
7.998883
 30
0.0
 11
94.668552
 21
9.343649
 31
0.0
  0
LINE
  5
39c
100
AcDbEntity
  8
0
 62
7
100
AcDbLine
 10
94.668552
 20
9.343649
 30
0.0
 11
94.836645
 21
9.343649
 31
0.0
  0
LINE
  5
39d
100
AcDbEntity
  8
0
 62
7
100
AcDbLine
 10
94.836645
 20
9.343649
 30
0.0
 11
95.004737
 21
9.343649
 31
0.0
  0
LINE
  5
39e
100
AcDbEntity
  8
0
 62
7
100
AcDbLine
 10
95.004737
 20
9.343649
 30
0.0
 11
95.172830
 21
9.343649
 31
0.0
  0
LINE
  5
39f
100
AcDbEntity
  8
0
 62
7
100
AcDbLine
 10
95.172830
 20
9.343649
 30
0.0
 11
95.340922
 21
9.343649
 31
0.0
  0
LINE
  5
3a0
100
AcDbEntity
  8
0
 62
7
100
AcDbLine
 10
95.340922
 20
9.343649
 30
0.0
 11
95.364244
 21
9.094574
 31
0.0
  0
LINE
  5
3a1
100
AcDbEntity
  8
0
 62
7
100
AcDbLine
 10
95.364244
 20
9.094574
 30
0.0
 11
95.387567
 21
8.845499
 31
0.0
  0
LINE
  5
3a2
100
AcDbEntity
  8
0
 62
7
100
AcDbLine
 10
95.387567
 20
8.845499
 30
0.0
 11
95.410889
 21
8.596424
 31
0.0
  0
LINE
  5
3a3
100
AcDbEntity
  8
0
 62
7
100
AcDbLine
 10
95.410889
 20
8.596424
 30
0.0
 11
95.434211
 21
8.347350
 31
0.0
  0
LINE
  5
3a4
100
AcDbEntity
  8
0
 62
7
100
AcDbLine
 10
95.434211
 20
8.347350
 30
0.0
 11
95.444011
 21
8.347350
 31
0.0
  0
LINE
  5
3a5
100
AcDbEntity
  8
0
 62
7
100
AcDbLine
 10
95.444011
 20
8.347350
 30
0.0
 11
95.453810
 21
8.347350
 31
0.0
  0
LINE
  5
3a6
100
AcDbEntity
  8
0
 62
7
100
AcDbLine
 10
95.453810
 20
8.347350
 30
0.0
 11
95.463610
 21
8.347350
 31
0.0
  0
LINE
  5
3a7
100
AcDbEntity
  8
0
 62
7
100
AcDbLine
 10
95.463610
 20
8.347350
 30
0.0
 11
95.473410
 21
8.347350
 31
0.0
  0
LINE
  5
3a8
100
AcDbEntity
  8
0
 62
7
100
AcDbLine
 10
95.473410
 20
8.347350
 30
0.0
 11
95.630780
 21
8.594892
 31
0.0
  0
LINE
  5
3a9
100
AcDbEntity
  8
0
 62
7
100
AcDbLine
 10
95.630780
 20
8.594892
 30
0.0
 11
95.803479
 21
8.812377
 31
0.0
  0
LINE
  5
3aa
100
AcDbEntity
  8
0
 62
7
100
AcDbLine
 10
95.803479
 20
8.812377
 30
0.0
 11
95.991518
 21
8.999803
 31
0.0
  0
LINE
  5
3ab
100
AcDbEntity
  8
0
 62
7
100
AcDbLine
 10
95.991518
 20
8.999803
 30
0.0
 11
96.194905
 21
9.157171
 31
0.0
  0
LINE
  5
3ac
100
AcDbEntity
  8
0
 62
7
100
AcDbLine
 10
96.194905
 20
9.157171
 30
0.0
 11
96.411128
 21
9.281669
 31
0.0
  0
LINE
  5
3ad
100
AcDbEntity
  8
0
 62
7
100
AcDbLine
 10
96.411128
 20
9.281669
 30
0.0
 11
96.637802
 21
9.370618
 31
0.0
  0
LINE
  5
3ae
100
AcDbEntity
  8
0
 62
7
100
AcDbLine
 10
96.637802
 20
9.370618
 30
0.0
 11
96.874908
 21
9.424001
 31
0.0
  0
LINE
  5
3af
100
AcDbEntity
  8
0
 62
7
100
AcDbLine
 10
96.874908
 20
9.424001
 30
0.0
 11
97.122431
 21
9.441800
 31
0.0
  0
LINE
  5
3b0
100
AcDbEntity
  8
0
 62
7
100
AcDbLine
 10
100.842649
 20
3.866437
 30
0.0
 11
100.277759
 21
3.911834
 31
0.0
  0
LINE
  5
3b1
100
AcDbEntity
  8
0
 62
7
100
AcDbLine
 10
100.277759
 20
3.911834
 30
0.0
 11
99.775775
 21
4.048026
 31
0.0
  0
LINE
  5
3b2
100
AcDbEntity
  8
0
 62
7
100
AcDbLine
 10
99.775775
 20
4.048026
 30
0.0
 11
99.336682
 21
4.275013
 31
0.0
  0
LINE
  5
3b3
100
AcDbEntity
  8
0
 62
7
100
AcDbLine
 10
99.336682
 20
4.275013
 30
0.0
 11
98.960459
 21
4.592795
 31
0.0
  0
LINE
  5
3b4
100
AcDbEntity
  8
0
 62
7
100
AcDbLine
 10
98.960459
 20
4.592795
 30
0.0
 11
98.658765
 21
4.991250
 31
0.0
  0
LINE
  5
3b5
100
AcDbEntity
  8
0
 62
7
100
AcDbLine
 10
98.658765
 20
4.991250
 30
0.0
 11
98.443268
 21
5.460264
 31
0.0
  0
LINE
  5
3b6
100
AcDbEntity
  8
0
 62
7
100
AcDbLine
 10
98.443268
 20
5.460264
 30
0.0
 11
98.313970
 21
5.999846
 31
0.0
  0
LINE
  5
3b7
100
AcDbEntity
  8
0
 62
7
100
AcDbLine
 10
98.313970
 20
5.999846
 30
0.0
 11
98.270871
 21
6.610004
 31
0.0
  0
LINE
  5
3b8
100
AcDbEntity
  8
0
 62
7
100
AcDbLine
 10
98.270871
 20
6.610004
 30
0.0
 11
98.310904
 21
7.226836
 31
0.0
  0
LINE
  5
3b9
100
AcDbEntity
  8
0
 62
7
100
AcDbLine
 10
98.310904
 20
7.226836
 30
0.0
 11
98.430998
 21
7.776803
 31
0.0
  0
LINE
  5
3ba
100
AcDbEntity
  8
0
 62
7
100
AcDbLine
 10
98.430998
 20
7.776803
 30
0.0
 11
98.631144
 21
8.259905
 31
0.0
  0
LINE
  5
3bb
100
AcDbEntity
  8
0
 62
7
100
AcDbLine
 10
98.631144
 20
8.259905
 30
0.0
 11
98.911334
 21
8.676142
 31
0.0
  0
LINE
  5
3bc
100
AcDbEntity
  8
0
 62
7
100
AcDbLine
 10
98.911334
 20
8.676142
 30
0.0
 11
99.259049
 21
9.011103
 31
0.0
  0
LINE
  5
3bd
100
AcDbEntity
  8
0
 62
7
100
AcDbLine
 10
99.259049
 20
9.011103
 30
0.0
 11
99.661646
 21
9.250373
 31
0.0
  0
LINE
  5
3be
100
AcDbEntity
  8
0
 62
7
100
AcDbLine
 10
99.661646
 20
9.250373
 30
0.0
 11
100.119145
 21
9.393942
 31
0.0
  0
LINE
  5
3bf
100
AcDbEntity
  8
0
 62
7
100
AcDbLine
 10
100.119145
 20
9.393942
 30
0.0
 11
100.631560
 21
9.441800
 31
0.0
  0
LINE
  5
3c0
100
AcDbEntity
  8
0
 62
7
100
AcDbLine
 10
100.631560
 20
9.441800
 30
0.0
 11
101.110689
 21
9.400233
 31
0.0
  0
LINE
  5
3c1
100
AcDbEntity
  8
0
 62
7
100
AcDbLine
 10
101.110689
 20
9.400233
 30
0.0
 11
101.537051
 21
9.275531
 31
0.0
  0
LINE
  5
3c2
100
AcDbEntity
  8
0
 62
7
100
AcDbLine
 10
101.537051
 20
9.275531
 30
0.0
 11
101.910667
 21
9.067695
 31
0.0
  0
LINE
  5
3c3
100
AcDbEntity
  8
0
 62
7
100
AcDbLine
 10
101.910667
 20
9.067695
 30
0.0
 11
102.231552
 21
8.776725
 31
0.0
  0
LINE
  5
3c4
100
AcDbEntity
  8
0
 62
7
100
AcDbLine
 10
102.231552
 20
8.776725
 30
0.0
 11
102.489200
 21
8.417723
 31
0.0
  0
LINE
  5
3c5
100
AcDbEntity
  8
0
 62
7
100
AcDbLine
 10
102.489200
 20
8.417723
 30
0.0
 11
102.673233
 21
8.005644
 31
0.0
  0
LINE
  5
3c6
100
AcDbEntity
  8
0
 62
7
100
AcDbLine
 10
102.673233
 20
8.005644
 30
0.0
 11
102.783653
 21
7.540489
 31
0.0
  0
LINE
  5
3c7
100
AcDbEntity
  8
0
 62
7
100
AcDbLine
 10
102.783653
 20
7.540489
 30
0.0
 11
102.820459
 21
7.022259
 31
0.0
  0
LINE
  5
3c8
100
AcDbEntity
  8
0
 62
7
100
AcDbLine
 10
102.820459
 20
7.022259
 30
0.0
 11
102.820459
 21
6.893417
 31
0.0
  0
LINE
  5
3c9
100
AcDbEntity
  8
0
 62
7
100
AcDbLine
 10
102.820459
 20
6.893417
 30
0.0
 11
102.820459
 21
6.764575
 31
0.0
  0
LINE
  5
3ca
100
AcDbEntity
  8
0
 62
7
100
AcDbLine
 10
102.820459
 20
6.764575
 30
0.0
 11
102.820459
 21
6.635733
 31
0.0
  0
LINE
  5
3cb
100
AcDbEntity
  8
0
 62
7
100
AcDbLine
 10
102.820459
 20
6.635733
 30
0.0
 11
102.820459
 21
6.506891
 31
0.0
  0
LINE
  5
3cc
100
AcDbEntity
  8
0
 62
7
100
AcDbLine
 10
102.820459
 20
6.506891
 30
0.0
 11
101.894101
 21
6.506891
 31
0.0
  0
LINE
  5
3cd
100
AcDbEntity
  8
0
 62
7
100
AcDbLine
 10
101.894101
 20
6.506891
 30
0.0
 11
100.967743
 21
6.506891
 31
0.0
  0
LINE
  5
3ce
100
AcDbEntity
  8
0
 62
7
100
AcDbLine
 10
100.967743
 20
6.506891
 30
0.0
 11
100.041387
 21
6.506891
 31
0.0
  0
LINE
  5
3cf
100
AcDbEntity
  8
0
 62
7
100
AcDbLine
 10
100.041387
 20
6.506891
 30
0.0
 11
99.115029
 21
6.506891
 31
0.0
  0
LINE
  5
3d0
100
AcDbEntity
  8
0
 62
7
100
AcDbLine
 10
99.115029
 20
6.506891
 30
0.0
 11
99.154133
 21
6.061797
 31
0.0
  0
LINE
  5
3d1
100
AcDbEntity
  8
0
 62
7
100
AcDbLine
 10
99.154133
 20
6.061797
 30
0.0
 11
99.246923
 21
5.673772
 31
0.0
  0
LINE
  5
3d2
100
AcDbEntity
  8
0
 62
7
100
AcDbLine
 10
99.246923
 20
5.673772
 30
0.0
 11
99.393391
 21
5.342801
 31
0.0
  0
LINE
  5
3d3
100
AcDbEntity
  8
0
 62
7
100
AcDbLine
 10
99.393391
 20
5.342801
 30
0.0
 11
99.593529
 21
5.068863
 31
0.0
  0
LINE
  5
3d4
100
AcDbEntity
  8
0
 62
7
100
AcDbLine
 10
99.593529
 20
5.068863
 30
0.0
 11
99.843717
 21
4.854171
 31
0.0
  0
LINE
  5
3d5
100
AcDbEntity
  8
0
 62
7
100
AcDbLine
 10
99.843717
 20
4.854171
 30
0.0
 11
100.140195
 21
4.700808
 31
0.0
  0
LINE
  5
3d6
100
AcDbEntity
  8
0
 62
7
100
AcDbLine
 10
100.140195
 20
4.700808
 30
0.0
 11
100.482965
 21
4.608783
 31
0.0
  0
LINE
  5
3d7
100
AcDbEntity
  8
0
 62
7
100
AcDbLine
 10
100.482965
 20
4.608783
 30
0.0
 11
100.872025
 21
4.578106
 31
0.0
  0
LINE
  5
3d8
100
AcDbEntity
  8
0
 62
7
100
AcDbLine
 10
100.872025
 20
4.578106
 30
0.0
 11
101.305171
 21
4.600813
 31
0.0
  0
LINE
  5
3d9
100
AcDbEntity
  8
0
 62
7
100
AcDbLine
 10
101.305171
 20
4.600813
 30
0.0
 11
101.735847
 21
4.668925
 31
0.0
  0
LINE
  5
3da
100
AcDbEntity
  8
0
 62
7
100
AcDbLine
 10
101.735847
 20
4.668925
 30
0.0
 11
102.164059
 21
4.782436
 31
0.0
  0
LINE
  5
3db
100
AcDbEntity
  8
0
 62
7
100
AcDbLine
 10
102.164059
 20
4.782436
 30
0.0
 11
102.589820
 21
4.941334
 31
0.0
  0
LINE
  5
3dc
100
AcDbEntity
  8
0
 62
7
100
AcDbLine
 10
102.589820
 20
4.941334
 30
0.0
 11
102.589820
 21
4.759745
 31
0.0
  0
LINE
  5
3dd
100
AcDbEntity
  8
0
 62
7
100
AcDbLine
 10
102.589820
 20
4.759745
 30
0.0
 11
102.589820
 21
4.578155
 31
0.0
  0
LINE
  5
3de
100
AcDbEntity
  8
0
 62
7
100
AcDbLine
 10
102.589820
 20
4.578155
 30
0.0
 11
102.589820
 21
4.396565
 31
0.0
  0
LINE
  5
3df
100
AcDbEntity
  8
0
 62
7
100
AcDbLine
 10
102.589820
 20
4.396565
 30
0.0
 11
102.589820
 21
4.214976
 31
0.0
  0
LINE
  5
3e0
100
AcDbEntity
  8
0
 62
7
100
AcDbLine
 10
102.589820
 20
4.214976
 30
0.0
 11
102.376784
 21
4.128282
 31
0.0
  0
LINE
  5
3e1
100
AcDbEntity
  8
0
 62
7
100
AcDbLine
 10
102.376784
 20
4.128282
 30
0.0
 11
102.169575
 21
4.054811
 31
0.0
  0
LINE
  5
3e2
100
AcDbEntity
  8
0
 62
7
100
AcDbLine
 10
102.169575
 20
4.054811
 30
0.0
 11
101.968185
 21
3.994546
 31
0.0
  0
LINE
  5
3e3
100
AcDbEntity
  8
0
 62
7
100
AcDbLine
 10
101.968185
 20
3.994546
 30
0.0
 11
101.772604
 21
3.947467
 31
0.0
  0
LINE
  5
3e4
100
AcDbEntity
  8
0
 62
7
100
AcDbLine
 10
101.772604
 20
3.947467
 30
0.0
 11
101.570022
 21
3.912030
 31
0.0
  0
LINE
  5
3e5
100
AcDbEntity
  8
0
 62
7
100
AcDbLine
 10
101.570022
 20
3.912030
 30
0.0
 11
101.347497
 21
3.886706
 31
0.0
  0
LINE
  5
3e6
100
AcDbEntity
  8
0
 62
7
100
AcDbLine
 10
101.347497
 20
3.886706
 30
0.0
 11
101.105036
 21
3.871505
 31
0.0
  0
LINE
  5
3e7
100
AcDbEntity
  8
0
 62
7
100
AcDbLine
 10
101.105036
 20
3.871505
 30
0.0
 11
100.842649
 21
3.866437
 31
0.0
  0
LINE
  5
3e8
100
AcDbEntity
  8
0
 62
7
100
AcDbLine
 10
100.621735
 20
8.759604
 30
0.0
 11
100.314221
 21
8.733229
 31
0.0
  0
LINE
  5
3e9
100
AcDbEntity
  8
0
 62
7
100
AcDbLine
 10
100.314221
 20
8.733229
 30
0.0
 11
100.039539
 21
8.654097
 31
0.0
  0
LINE
  5
3ea
100
AcDbEntity
  8
0
 62
7
100
AcDbLine
 10
100.039539
 20
8.654097
 30
0.0
 11
99.797686
 21
8.522198
 31
0.0
  0
LINE
  5
3eb
100
AcDbEntity
  8
0
 62
7
100
AcDbLine
 10
99.797686
 20
8.522198
 30
0.0
 11
99.588666
 21
8.337525
 31
0.0
  0
LINE
  5
3ec
100
AcDbEntity
  8
0
 62
7
100
AcDbLine
 10
99.588666
 20
8.337525
 30
0.0
 11
99.415832
 21
8.106230
 31
0.0
  0
LINE
  5
3ed
100
AcDbEntity
  8
0
 62
7
100
AcDbLine
 10
99.415832
 20
8.106230
 30
0.0
 11
99.282550
 21
7.834463
 31
0.0
  0
LINE
  5
3ee
100
AcDbEntity
  8
0
 62
7
100
AcDbLine
 10
99.282550
 20
7.834463
 30
0.0
 11
99.188830
 21
7.522205
 31
0.0
  0
LINE
  5
3ef
100
AcDbEntity
  8
0
 62
7
100
AcDbLine
 10
99.188830
 20
7.522205
 30
0.0
 11
99.134679
 21
7.169437
 31
0.0
  0
LINE
  5
3f0
100
AcDbEntity
  8
0
 62
7
100
AcDbLine
 10
99.134679
 20
7.169437
 30
0.0
 11
99.837715
 21
7.169437
 31
0.0
  0
LINE
  5
3f1
100
AcDbEntity
  8
0
 62
7
100
AcDbLine
 10
99.837715
 20
7.169437
 30
0.0
 11
100.540753
 21
7.169437
 31
0.0
  0
LINE
  5
3f2
100
AcDbEntity
  8
0
 62
7
100
AcDbLine
 10
100.540753
 20
7.169437
 30
0.0
 11
101.243790
 21
7.169437
 31
0.0
  0
LINE
  5
3f3
100
AcDbEntity
  8
0
 62
7
100
AcDbLine
 10
101.243790
 20
7.169437
 30
0.0
 11
101.946826
 21
7.169437
 31
0.0
  0
LINE
  5
3f4
100
AcDbEntity
  8
0
 62
7
100
AcDbLine
 10
101.946826
 20
7.169437
 30
0.0
 11
101.925358
 21
7.532177
 31
0.0
  0
LINE
  5
3f5
100
AcDbEntity
  8
0
 62
7
100
AcDbLine
 10
101.925358
 20
7.532177
 30
0.0
 11
101.860956
 21
7.849820
 31
0.0
  0
LINE
  5
3f6
100
AcDbEntity
  8
0
 62
7
100
AcDbLine
 10
101.860956
 20
7.849820
 30
0.0
 11
101.753618
 21
8.122358
 31
0.0
  0
LINE
  5
3f7
100
AcDbEntity
  8
0
 62
7
100
AcDbLine
 10
101.753618
 20
8.122358
 30
0.0
 11
101.603345
 21
8.349782
 31
0.0
  0
LINE
  5
3f8
100
AcDbEntity
  8
0
 62
7
100
AcDbLine
 10
101.603345
 20
8.349782
 30
0.0
 11
101.413144
 21
8.529093
 31
0.0
  0
LINE
  5
3f9
100
AcDbEntity
  8
0
 62
7
100
AcDbLine
 10
101.413144
 20
8.529093
 30
0.0
 11
101.186153
 21
8.657161
 31
0.0
  0
LINE
  5
3fa
100
AcDbEntity
  8
0
 62
7
100
AcDbLine
 10
101.186153
 20
8.657161
 30
0.0
 11
100.922356
 21
8.733995
 31
0.0
  0
LINE
  5
3fb
100
AcDbEntity
  8
0
 62
7
100
AcDbLine
 10
100.922356
 20
8.733995
 30
0.0
 11
100.621735
 21
8.759604
 31
0.0
  0
LINE
  5
3fc
100
AcDbEntity
  8
0
 62
7
100
AcDbLine
 10
49.539822
 20
-0.602629
 30
0.0
 11
50.075660
 21
-0.654996
 31
0.0
  0
LINE
  5
3fd
100
AcDbEntity
  8
0
 62
7
100
AcDbLine
 10
50.075660
 20
-0.654996
 30
0.0
 11
50.533557
 21
-0.812093
 31
0.0
  0
LINE
  5
3fe
100
AcDbEntity
  8
0
 62
7
100
AcDbLine
 10
50.533557
 20
-0.812093
 30
0.0
 11
50.930565
 21
-1.095845
 31
0.0
  0
LINE
  5
3ff
100
AcDbEntity
  8
0
 62
7
100
AcDbLine
 10
50.930565
 20
-1.095845
 30
0.0
 11
51.283731
 21
-1.528168
 31
0.0
  0
LINE
  5
400
100
AcDbEntity
  8
0
 62
7
100
AcDbLine
 10
51.283731
 20
-1.528168
 30
0.0
 11
51.312959
 21
-1.528168
 31
0.0
  0
LINE
  5
401
100
AcDbEntity
  8
0
 62
7
100
AcDbLine
 10
51.312959
 20
-1.528168
 30
0.0
 11
51.283731
 21
-0.324967
 31
0.0
  0
LINE
  5
402
100
AcDbEntity
  8
0
 62
7
100
AcDbLine
 10
51.283731
 20
-0.324967
 30
0.0
 11
51.283731
 21
1.579693
 31
0.0
  0
LINE
  5
403
100
AcDbEntity
  8
0
 62
7
100
AcDbLine
 10
51.283731
 20
1.579693
 30
0.0
 11
51.761114
 21
1.579693
 31
0.0
  0
LINE
  5
404
100
AcDbEntity
  8
0
 62
7
100
AcDbLine
 10
51.761114
 20
1.579693
 30
0.0
 11
51.761114
 21
-5.999981
 31
0.0
  0
LINE
  5
405
100
AcDbEntity
  8
0
 62
7
100
AcDbLine
 10
51.761114
 20
-5.999981
 30
0.0
 11
51.444482
 21
-5.999981
 31
0.0
  0
LINE
  5
406
100
AcDbEntity
  8
0
 62
7
100
AcDbLine
 10
51.444482
 20
-5.999981
 30
0.0
 11
51.322701
 21
-5.191353
 31
0.0
  0
LINE
  5
407
100
AcDbEntity
  8
0
 62
7
100
AcDbLine
 10
51.322701
 20
-5.191353
 30
0.0
 11
51.283731
 21
-5.191353
 31
0.0
  0
LINE
  5
408
100
AcDbEntity
  8
0
 62
7
100
AcDbLine
 10
51.283731
 20
-5.191353
 30
0.0
 11
50.948832
 21
-5.587750
 31
0.0
  0
LINE
  5
409
100
AcDbEntity
  8
0
 62
7
100
AcDbLine
 10
50.948832
 20
-5.587750
 30
0.0
 11
50.548171
 21
-5.870893
 31
0.0
  0
LINE
  5
40a
100
AcDbEntity
  8
0
 62
7
100
AcDbLine
 10
50.548171
 20
-5.870893
 30
0.0
 11
50.081749
 21
-6.040777
 31
0.0
  0
LINE
  5
40b
100
AcDbEntity
  8
0
 62
7
100
AcDbLine
 10
50.081749
 20
-6.040777
 30
0.0
 11
49.549564
 21
-6.097406
 31
0.0
  0
LINE
  5
40c
100
AcDbEntity
  8
0
 62
7
100
AcDbLine
 10
49.549564
 20
-6.097406
 30
0.0
 11
49.033821
 21
-6.054783
 31
0.0
  0
LINE
  5
40d
100
AcDbEntity
  8
0
 62
7
100
AcDbLine
 10
49.033821
 20
-6.054783
 30
0.0
 11
48.582620
 21
-5.926912
 31
0.0
  0
LINE
  5
40e
100
AcDbEntity
  8
0
 62
7
100
AcDbLine
 10
48.582620
 20
-5.926912
 30
0.0
 11
48.195963
 21
-5.713794
 31
0.0
  0
LINE
  5
40f
100
AcDbEntity
  8
0
 62
7
100
AcDbLine
 10
48.195963
 20
-5.713794
 30
0.0
 11
47.873852
 21
-5.415430
 31
0.0
  0
LINE
  5
410
100
AcDbEntity
  8
0
 62
7
100
AcDbLine
 10
47.873852
 20
-5.415430
 30
0.0
 11
47.620242
 21
-5.035472
 31
0.0
  0
LINE
  5
411
100
AcDbEntity
  8
0
 62
7
100
AcDbLine
 10
47.620242
 20
-5.035472
 30
0.0
 11
47.439093
 21
-4.577574
 31
0.0
  0
LINE
  5
412
100
AcDbEntity
  8
0
 62
7
100
AcDbLine
 10
47.439093
 20
-4.577574
 30
0.0
 11
47.330403
 21
-4.041737
 31
0.0
  0
LINE
  5
413
100
AcDbEntity
  8
0
 62
7
100
AcDbLine
 10
47.330403
 20
-4.041737
 30
0.0
 11
47.294173
 21
-3.427958
 31
0.0
  0
LINE
  5
414
100
AcDbEntity
  8
0
 62
7
100
AcDbLine
 10
47.294173
 20
-3.427958
 30
0.0
 11
47.330099
 21
-2.781603
 31
0.0
  0
LINE
  5
415
100
AcDbEntity
  8
0
 62
7
100
AcDbLine
 10
47.330099
 20
-2.781603
 30
0.0
 11
47.437875
 21
-2.216233
 31
0.0
  0
LINE
  5
416
100
AcDbEntity
  8
0
 62
7
100
AcDbLine
 10
47.437875
 20
-2.216233
 30
0.0
 11
47.617503
 21
-1.731847
 31
0.0
  0
LINE
  5
417
100
AcDbEntity
  8
0
 62
7
100
AcDbLine
 10
47.617503
 20
-1.731847
 30
0.0
 11
47.868981
 21
-1.328446
 31
0.0
  0
LINE
  5
418
100
AcDbEntity
  8
0
 62
7
100
AcDbLine
 10
47.868981
 20
-1.328446
 30
0.0
 11
48.188962
 21
-1.010902
 31
0.0
  0
LINE
  5
419
100
AcDbEntity
  8
0
 62
7
100
AcDbLine
 10
48.188962
 20
-1.010902
 30
0.0
 11
48.574096
 21
-0.784083
 31
0.0
  0
LINE
  5
41a
100
AcDbEntity
  8
0
 62
7
100
AcDbLine
 10
48.574096
 20
-0.784083
 30
0.0
 11
49.024383
 21
-0.647993
 31
0.0
  0
LINE
  5
41b
100
AcDbEntity
  8
0
 62
7
100
AcDbLine
 10
49.024383
 20
-0.647993
 30
0.0
 11
49.539822
 21
-0.602629
 31
0.0
  0
LINE
  5
41c
100
AcDbEntity
  8
0
 62
7
100
AcDbLine
 10
49.539822
 20
-0.602629
 30
0.0
 11
49.539822
 21
-0.602629
 31
0.0
  0
LINE
  5
41d
100
AcDbEntity
  8
0
 62
7
100
AcDbLine
 10
49.539822
 20
-1.041042
 30
0.0
 11
49.133072
 21
-1.079099
 31
0.0
  0
LINE
  5
41e
100
AcDbEntity
  8
0
 62
7
100
AcDbLine
 10
49.133072
 20
-1.079099
 30
0.0
 11
48.779906
 21
-1.193269
 31
0.0
  0
LINE
  5
41f
100
AcDbEntity
  8
0
 62
7
100
AcDbLine
 10
48.779906
 20
-1.193269
 30
0.0
 11
48.480324
 21
-1.383552
 31
0.0
  0
LINE
  5
420
100
AcDbEntity
  8
0
 62
7
100
AcDbLine
 10
48.480324
 20
-1.383552
 30
0.0
 11
48.234325
 21
-1.649949
 31
0.0
  0
LINE
  5
421
100
AcDbEntity
  8
0
 62
7
100
AcDbLine
 10
48.234325
 20
-1.649949
 30
0.0
 11
48.044651
 21
-1.988806
 31
0.0
  0
LINE
  5
422
100
AcDbEntity
  8
0
 62
7
100
AcDbLine
 10
48.044651
 20
-1.988806
 30
0.0
 11
47.909168
 21
-2.396469
 31
0.0
  0
LINE
  5
423
100
AcDbEntity
  8
0
 62
7
100
AcDbLine
 10
47.909168
 20
-2.396469
 30
0.0
 11
47.800784
 21
-3.418216
 31
0.0
  0
LINE
  5
424
100
AcDbEntity
  8
0
 62
7
100
AcDbLine
 10
47.800784
 20
-3.418216
 30
0.0
 11
47.910083
 21
-4.402817
 31
0.0
  0
LINE
  5
425
100
AcDbEntity
  8
0
 62
7
100
AcDbLine
 10
47.910083
 20
-4.402817
 30
0.0
 11
48.046706
 21
-4.789626
 31
0.0
  0
LINE
  5
426
100
AcDbEntity
  8
0
 62
7
100
AcDbLine
 10
48.046706
 20
-4.789626
 30
0.0
 11
48.237979
 21
-5.106105
 31
0.0
  0
LINE
  5
427
100
AcDbEntity
  8
0
 62
7
100
AcDbLine
 10
48.237979
 20
-5.106105
 30
0.0
 11
48.483901
 21
-5.352256
 31
0.0
  0
LINE
  5
428
100
AcDbEntity
  8
0
 62
7
100
AcDbLine
 10
48.483901
 20
-5.352256
 30
0.0
 11
48.784472
 21
-5.528077
 31
0.0
  0
LINE
  5
429
100
AcDbEntity
  8
0
 62
7
100
AcDbLine
 10
48.784472
 20
-5.528077
 30
0.0
 11
49.139694
 21
-5.633570
 31
0.0
  0
LINE
  5
42a
100
AcDbEntity
  8
0
 62
7
100
AcDbLine
 10
49.139694
 20
-5.633570
 30
0.0
 11
49.549564
 21
-5.668735
 31
0.0
  0
LINE
  5
42b
100
AcDbEntity
  8
0
 62
7
100
AcDbLine
 10
49.549564
 20
-5.668735
 30
0.0
 11
49.967884
 21
-5.636159
 31
0.0
  0
LINE
  5
42c
100
AcDbEntity
  8
0
 62
7
100
AcDbLine
 10
49.967884
 20
-5.636159
 30
0.0
 11
50.326530
 21
-5.538428
 31
0.0
  0
LINE
  5
42d
100
AcDbEntity
  8
0
 62
7
100
AcDbLine
 10
50.326530
 20
-5.538428
 30
0.0
 11
50.625504
 21
-5.375547
 31
0.0
  0
LINE
  5
42e
100
AcDbEntity
  8
0
 62
7
100
AcDbLine
 10
50.625504
 20
-5.375547
 30
0.0
 11
50.864804
 21
-5.147512
 31
0.0
  0
LINE
  5
42f
100
AcDbEntity
  8
0
 62
7
100
AcDbLine
 10
50.864804
 20
-5.147512
 30
0.0
 11
51.048085
 21
-4.844580
 31
0.0
  0
LINE
  5
430
100
AcDbEntity
  8
0
 62
7
100
AcDbLine
 10
51.048085
 20
-4.844580
 30
0.0
 11
51.178999
 21
-4.457011
 31
0.0
  0
LINE
  5
431
100
AcDbEntity
  8
0
 62
7
100
AcDbLine
 10
51.178999
 20
-4.457011
 30
0.0
 11
51.283731
 21
-3.427958
 31
0.0
  0
LINE
  5
432
100
AcDbEntity
  8
0
 62
7
100
AcDbLine
 10
51.283731
 20
-3.427958
 30
0.0
 11
51.283731
 21
-3.345146
 31
0.0
  0
LINE
  5
433
100
AcDbEntity
  8
0
 62
7
100
AcDbLine
 10
51.283731
 20
-3.345146
 30
0.0
 11
51.180217
 21
-2.290520
 31
0.0
  0
LINE
  5
434
100
AcDbEntity
  8
0
 62
7
100
AcDbLine
 10
51.180217
 20
-2.290520
 30
0.0
 11
51.050824
 21
-1.892903
 31
0.0
  0
LINE
  5
435
100
AcDbEntity
  8
0
 62
7
100
AcDbLine
 10
51.050824
 20
-1.892903
 30
0.0
 11
50.869674
 21
-1.581752
 31
0.0
  0
LINE
  5
436
100
AcDbEntity
  8
0
 62
7
100
AcDbLine
 10
50.869674
 20
-1.581752
 30
0.0
 11
50.633114
 21
-1.345192
 31
0.0
  0
LINE
  5
437
100
AcDbEntity
  8
0
 62
7
100
AcDbLine
 10
50.633114
 20
-1.345192
 30
0.0
 11
50.332619
 21
-1.176219
 31
0.0
  0
LINE
  5
438
100
AcDbEntity
  8
0
 62
7
100
AcDbLine
 10
50.332619
 20
-1.176219
 30
0.0
 11
49.968188
 21
-1.074837
 31
0.0
  0
LINE
  5
439
100
AcDbEntity
  8
0
 62
7
100
AcDbLine
 10
49.968188
 20
-1.074837
 30
0.0
 11
49.539822
 21
-1.041042
 31
0.0
  0
LINE
  5
43a
100
AcDbEntity
  8
0
 62
7
100
AcDbLine
 10
49.539822
 20
-1.041042
 30
0.0
 11
49.539822
 21
-1.041042
 31
0.0
  0
LINE
  5
43b
100
AcDbEntity
  8
0
 62
7
100
AcDbLine
 10
55.682474
 20
-6.097406
 30
0.0
 11
55.136894
 21
-6.052956
 31
0.0
  0
LINE
  5
43c
100
AcDbEntity
  8
0
 62
7
100
AcDbLine
 10
55.136894
 20
-6.052956
 30
0.0
 11
54.654640
 21
-5.919605
 31
0.0
  0
LINE
  5
43d
100
AcDbEntity
  8
0
 62
7
100
AcDbLine
 10
54.654640
 20
-5.919605
 30
0.0
 11
54.235712
 21
-5.697354
 31
0.0
  0
LINE
  5
43e
100
AcDbEntity
  8
0
 62
7
100
AcDbLine
 10
54.235712
 20
-5.697354
 30
0.0
 11
53.880111
 21
-5.386203
 31
0.0
  0
LINE
  5
43f
100
AcDbEntity
  8
0
 62
7
100
AcDbLine
 10
53.880111
 20
-5.386203
 30
0.0
 11
53.598796
 21
-4.994980
 31
0.0
  0
LINE
  5
440
100
AcDbEntity
  8
0
 62
7
100
AcDbLine
 10
53.598796
 20
-4.994980
 30
0.0
 11
53.397857
 21
-4.532515
 31
0.0
  0
LINE
  5
441
100
AcDbEntity
  8
0
 62
7
100
AcDbLine
 10
53.397857
 20
-4.532515
 30
0.0
 11
53.277293
 21
-3.998808
 31
0.0
  0
LINE
  5
442
100
AcDbEntity
  8
0
 62
7
100
AcDbLine
 10
53.277293
 20
-3.998808
 30
0.0
 11
53.237105
 21
-3.393859
 31
0.0
  0
LINE
  5
443
100
AcDbEntity
  8
0
 62
7
100
AcDbLine
 10
53.237105
 20
-3.393859
 30
0.0
 11
53.276075
 21
-2.792259
 31
0.0
  0
LINE
  5
444
100
AcDbEntity
  8
0
 62
7
100
AcDbLine
 10
53.276075
 20
-2.792259
 30
0.0
 11
53.392985
 21
-2.253985
 31
0.0
  0
LINE
  5
445
100
AcDbEntity
  8
0
 62
7
100
AcDbLine
 10
53.392985
 20
-2.253985
 30
0.0
 11
53.587835
 21
-1.779038
 31
0.0
  0
LINE
  5
446
100
AcDbEntity
  8
0
 62
7
100
AcDbLine
 10
53.587835
 20
-1.779038
 30
0.0
 11
53.860625
 21
-1.367417
 31
0.0
  0
LINE
  5
447
100
AcDbEntity
  8
0
 62
7
100
AcDbLine
 10
53.860625
 20
-1.367417
 30
0.0
 11
54.199481
 21
-1.032822
 31
0.0
  0
LINE
  5
448
100
AcDbEntity
  8
0
 62
7
100
AcDbLine
 10
54.199481
 20
-1.032822
 30
0.0
 11
54.592531
 21
-0.793826
 31
0.0
  0
LINE
  5
449
100
AcDbEntity
  8
0
 62
7
100
AcDbLine
 10
54.592531
 20
-0.793826
 30
0.0
 11
55.039774
 21
-0.650428
 31
0.0
  0
LINE
  5
44a
100
AcDbEntity
  8
0
 62
7
100
AcDbLine
 10
55.039774
 20
-0.650428
 30
0.0
 11
55.541209
 21
-0.602629
 31
0.0
  0
LINE
  5
44b
100
AcDbEntity
  8
0
 62
7
100
AcDbLine
 10
55.541209
 20
-0.602629
 30
0.0
 11
55.984188
 21
-0.643426
 31
0.0
  0
LINE
  5
44c
100
AcDbEntity
  8
0
 62
7
100
AcDbLine
 10
55.984188
 20
-0.643426
 30
0.0
 11
56.377846
 21
-0.765817
 31
0.0
  0
LINE
  5
44d
100
AcDbEntity
  8
0
 62
7
100
AcDbLine
 10
56.377846
 20
-0.765817
 30
0.0
 11
56.722183
 21
-0.969801
 31
0.0
  0
LINE
  5
44e
100
AcDbEntity
  8
0
 62
7
100
AcDbLine
 10
56.722183
 20
-0.969801
 30
0.0
 11
57.017198
 21
-1.255378
 31
0.0
  0
LINE
  5
44f
100
AcDbEntity
  8
0
 62
7
100
AcDbLine
 10
57.017198
 20
-1.255378
 30
0.0
 11
57.253759
 21
-1.610980
 31
0.0
  0
LINE
  5
450
100
AcDbEntity
  8
0
 62
7
100
AcDbLine
 10
57.253759
 20
-1.610980
 30
0.0
 11
57.422730
 21
-2.025037
 31
0.0
  0
LINE
  5
451
100
AcDbEntity
  8
0
 62
7
100
AcDbLine
 10
57.422730
 20
-2.025037
 30
0.0
 11
57.524113
 21
-2.497548
 31
0.0
  0
LINE
  5
452
100
AcDbEntity
  8
0
 62
7
100
AcDbLine
 10
57.524113
 20
-2.497548
 30
0.0
 11
57.557908
 21
-3.028515
 31
0.0
  0
LINE
  5
453
100
AcDbEntity
  8
0
 62
7
100
AcDbLine
 10
57.557908
 20
-3.028515
 30
0.0
 11
57.557908
 21
-3.418216
 31
0.0
  0
LINE
  5
454
100
AcDbEntity
  8
0
 62
7
100
AcDbLine
 10
57.557908
 20
-3.418216
 30
0.0
 11
53.743716
 21
-3.418216
 31
0.0
  0
LINE
  5
455
100
AcDbEntity
  8
0
 62
7
100
AcDbLine
 10
53.743716
 20
-3.418216
 30
0.0
 11
53.779032
 21
-3.931524
 31
0.0
  0
LINE
  5
456
100
AcDbEntity
  8
0
 62
7
100
AcDbLine
 10
53.779032
 20
-3.931524
 30
0.0
 11
53.875239
 21
-4.380288
 31
0.0
  0
LINE
  5
457
100
AcDbEntity
  8
0
 62
7
100
AcDbLine
 10
53.875239
 20
-4.380288
 30
0.0
 11
54.032337
 21
-4.764508
 31
0.0
  0
LINE
  5
458
100
AcDbEntity
  8
0
 62
7
100
AcDbLine
 10
54.032337
 20
-4.764508
 30
0.0
 11
54.250326
 21
-5.084185
 31
0.0
  0
LINE
  5
459
100
AcDbEntity
  8
0
 62
7
100
AcDbLine
 10
54.250326
 20
-5.084185
 30
0.0
 11
54.527988
 21
-5.335663
 31
0.0
  0
LINE
  5
45a
100
AcDbEntity
  8
0
 62
7
100
AcDbLine
 10
54.527988
 20
-5.335663
 30
0.0
 11
54.859233
 21
-5.515291
 31
0.0
  0
LINE
  5
45b
100
AcDbEntity
  8
0
 62
7
100
AcDbLine
 10
54.859233
 20
-5.515291
 30
0.0
 11
55.244062
 21
-5.623067
 31
0.0
  0
LINE
  5
45c
100
AcDbEntity
  8
0
 62
7
100
AcDbLine
 10
55.244062
 20
-5.623067
 30
0.0
 11
55.682474
 21
-5.658993
 31
0.0
  0
LINE
  5
45d
100
AcDbEntity
  8
0
 62
7
100
AcDbLine
 10
55.682474
 20
-5.658993
 30
0.0
 11
56.476489
 21
-5.595667
 31
0.0
  0
LINE
  5
45e
100
AcDbEntity
  8
0
 62
7
100
AcDbLine
 10
56.476489
 20
-5.595667
 30
0.0
 11
57.348445
 21
-5.322876
 31
0.0
  0
LINE
  5
45f
100
AcDbEntity
  8
0
 62
7
100
AcDbLine
 10
57.348445
 20
-5.322876
 30
0.0
 11
57.348445
 21
-5.761289
 31
0.0
  0
LINE
  5
460
100
AcDbEntity
  8
0
 62
7
100
AcDbLine
 10
57.348445
 20
-5.761289
 30
0.0
 11
56.520330
 21
-6.024336
 31
0.0
  0
LINE
  5
461
100
AcDbEntity
  8
0
 62
7
100
AcDbLine
 10
56.520330
 20
-6.024336
 30
0.0
 11
55.682474
 21
-6.097406
 31
0.0
  0
LINE
  5
462
100
AcDbEntity
  8
0
 62
7
100
AcDbLine
 10
55.682474
 20
-6.097406
 30
0.0
 11
55.682474
 21
-6.097406
 31
0.0
  0
LINE
  5
463
100
AcDbEntity
  8
0
 62
7
100
AcDbLine
 10
55.541209
 20
-1.031300
 30
0.0
 11
55.177691
 21
-1.062963
 31
0.0
  0
LINE
  5
464
100
AcDbEntity
  8
0
 62
7
100
AcDbLine
 10
55.177691
 20
-1.062963
 30
0.0
 11
54.851926
 21
-1.157953
 31
0.0
  0
LINE
  5
465
100
AcDbEntity
  8
0
 62
7
100
AcDbLine
 10
54.851926
 20
-1.157953
 30
0.0
 11
54.563913
 21
-1.316268
 31
0.0
  0
LINE
  5
466
100
AcDbEntity
  8
0
 62
7
100
AcDbLine
 10
54.563913
 20
-1.316268
 30
0.0
 11
54.313652
 21
-1.537911
 31
0.0
  0
LINE
  5
467
100
AcDbEntity
  8
0
 62
7
100
AcDbLine
 10
54.313652
 20
-1.537911
 30
0.0
 11
54.106319
 21
-1.816790
 31
0.0
  0
LINE
  5
468
100
AcDbEntity
  8
0
 62
7
100
AcDbLine
 10
54.106319
 20
-1.816790
 30
0.0
 11
53.947090
 21
-2.151688
 31
0.0
  0
LINE
  5
469
100
AcDbEntity
  8
0
 62
7
100
AcDbLine
 10
53.947090
 20
-2.151688
 30
0.0
 11
53.772943
 21
-2.989545
 31
0.0
  0
LINE
  5
46a
100
AcDbEntity
  8
0
 62
7
100
AcDbLine
 10
53.772943
 20
-2.989545
 30
0.0
 11
57.046427
 21
-2.989545
 31
0.0
  0
LINE
  5
46b
100
AcDbEntity
  8
0
 62
7
100
AcDbLine
 10
57.046427
 20
-2.989545
 30
0.0
 11
56.946566
 21
-2.169956
 31
0.0
  0
LINE
  5
46c
100
AcDbEntity
  8
0
 62
7
100
AcDbLine
 10
56.946566
 20
-2.169956
 30
0.0
 11
56.821739
 21
-1.835971
 31
0.0
  0
LINE
  5
46d
100
AcDbEntity
  8
0
 62
7
100
AcDbLine
 10
56.821739
 20
-1.835971
 30
0.0
 11
56.646983
 21
-1.552525
 31
0.0
  0
LINE
  5
46e
100
AcDbEntity
  8
0
 62
7
100
AcDbLine
 10
56.646983
 20
-1.552525
 30
0.0
 11
56.428081
 21
-1.324489
 31
0.0
  0
LINE
  5
46f
100
AcDbEntity
  8
0
 62
7
100
AcDbLine
 10
56.428081
 20
-1.324489
 30
0.0
 11
56.170818
 21
-1.161606
 31
0.0
  0
LINE
  5
470
100
AcDbEntity
  8
0
 62
7
100
AcDbLine
 10
56.170818
 20
-1.161606
 30
0.0
 11
55.875194
 21
-1.063877
 31
0.0
  0
LINE
  5
471
100
AcDbEntity
  8
0
 62
7
100
AcDbLine
 10
55.875194
 20
-1.063877
 30
0.0
 11
55.541209
 21
-1.031300
 31
0.0
  0
LINE
  5
472
100
AcDbEntity
  8
0
 62
7
100
AcDbLine
 10
55.541209
 20
-1.031300
 30
0.0
 11
55.541209
 21
-1.031300
 31
0.0
  0
LINE
  5
473
100
AcDbEntity
  8
0
 62
7
100
AcDbLine
 10
59.501538
 20
-5.999981
 30
0.0
 11
59.019284
 21
-5.999981
 31
0.0
  0
LINE
  5
474
100
AcDbEntity
  8
0
 62
7
100
AcDbLine
 10
59.019284
 20
-5.999981
 30
0.0
 11
59.019284
 21
1.579693
 31
0.0
  0
LINE
  5
475
100
AcDbEntity
  8
0
 62
7
100
AcDbLine
 10
59.019284
 20
1.579693
 30
0.0
 11
59.501538
 21
1.579693
 31
0.0
  0
LINE
  5
476
100
AcDbEntity
  8
0
 62
7
100
AcDbLine
 10
59.501538
 20
1.579693
 30
0.0
 11
59.501538
 21
-5.999981
 31
0.0
  0
LINE
  5
477
100
AcDbEntity
  8
0
 62
7
100
AcDbLine
 10
62.677598
 20
-5.668735
 30
0.0
 11
63.476483
 21
-5.590795
 31
0.0
  0
LINE
  5
478
100
AcDbEntity
  8
0
 62
7
100
AcDbLine
 10
63.476483
 20
-5.590795
 30
0.0
 11
63.476483
 21
-5.980495
 31
0.0
  0
LINE
  5
479
100
AcDbEntity
  8
0
 62
7
100
AcDbLine
 10
63.476483
 20
-5.980495
 30
0.0
 11
62.667856
 21
-6.097406
 31
0.0
  0
LINE
  5
47a
100
AcDbEntity
  8
0
 62
7
100
AcDbLine
 10
62.667856
 20
-6.097406
 30
0.0
 11
62.057731
 21
-6.003634
 31
0.0
  0
LINE
  5
47b
100
AcDbEntity
  8
0
 62
7
100
AcDbLine
 10
62.057731
 20
-6.003634
 30
0.0
 11
61.630278
 21
-5.722320
 31
0.0
  0
LINE
  5
47c
100
AcDbEntity
  8
0
 62
7
100
AcDbLine
 10
61.630278
 20
-5.722320
 30
0.0
 11
61.381844
 21
-5.240065
 31
0.0
  0
LINE
  5
47d
100
AcDbEntity
  8
0
 62
7
100
AcDbLine
 10
61.381844
 20
-5.240065
 30
0.0
 11
61.299033
 21
-4.543475
 31
0.0
  0
LINE
  5
47e
100
AcDbEntity
  8
0
 62
7
100
AcDbLine
 10
61.299033
 20
-4.543475
 30
0.0
 11
61.299033
 21
-1.123854
 31
0.0
  0
LINE
  5
47f
100
AcDbEntity
  8
0
 62
7
100
AcDbLine
 10
61.299033
 20
-1.123854
 30
0.0
 11
60.514761
 21
-1.123854
 31
0.0
  0
LINE
  5
480
100
AcDbEntity
  8
0
 62
7
100
AcDbLine
 10
60.514761
 20
-1.123854
 30
0.0
 11
60.514761
 21
-0.841322
 31
0.0
  0
LINE
  5
481
100
AcDbEntity
  8
0
 62
7
100
AcDbLine
 10
60.514761
 20
-0.841322
 30
0.0
 11
61.299033
 21
-0.622115
 31
0.0
  0
LINE
  5
482
100
AcDbEntity
  8
0
 62
7
100
AcDbLine
 10
61.299033
 20
-0.622115
 30
0.0
 11
61.542595
 21
0.576214
 31
0.0
  0
LINE
  5
483
100
AcDbEntity
  8
0
 62
7
100
AcDbLine
 10
61.542595
 20
0.576214
 30
0.0
 11
61.791030
 21
0.576214
 31
0.0
  0
LINE
  5
484
100
AcDbEntity
  8
0
 62
7
100
AcDbLine
 10
61.791030
 20
0.576214
 30
0.0
 11
61.791030
 21
-0.704925
 31
0.0
  0
LINE
  5
485
100
AcDbEntity
  8
0
 62
7
100
AcDbLine
 10
61.791030
 20
-0.704925
 30
0.0
 11
63.344960
 21
-0.704925
 31
0.0
  0
LINE
  5
486
100
AcDbEntity
  8
0
 62
7
100
AcDbLine
 10
63.344960
 20
-0.704925
 30
0.0
 11
63.344960
 21
-1.123854
 31
0.0
  0
LINE
  5
487
100
AcDbEntity
  8
0
 62
7
100
AcDbLine
 10
63.344960
 20
-1.123854
 30
0.0
 11
61.791030
 21
-1.123854
 31
0.0
  0
LINE
  5
488
100
AcDbEntity
  8
0
 62
7
100
AcDbLine
 10
61.791030
 20
-1.123854
 30
0.0
 11
61.791030
 21
-4.475278
 31
0.0
  0
LINE
  5
489
100
AcDbEntity
  8
0
 62
7
100
AcDbLine
 10
61.791030
 20
-4.475278
 30
0.0
 11
61.844613
 21
-5.005027
 31
0.0
  0
LINE
  5
48a
100
AcDbEntity
  8
0
 62
7
100
AcDbLine
 10
61.844613
 20
-5.005027
 30
0.0
 11
62.005364
 21
-5.376460
 31
0.0
  0
LINE
  5
48b
100
AcDbEntity
  8
0
 62
7
100
AcDbLine
 10
62.005364
 20
-5.376460
 30
0.0
 11
62.280591
 21
-5.595666
 31
0.0
  0
LINE
  5
48c
100
AcDbEntity
  8
0
 62
7
100
AcDbLine
 10
62.280591
 20
-5.595666
 30
0.0
 11
62.677598
 21
-5.668735
 31
0.0
  0
LINE
  5
48d
100
AcDbEntity
  8
0
 62
7
100
AcDbLine
 10
62.677598
 20
-5.668735
 30
0.0
 11
62.677598
 21
-5.668735
 31
0.0
  0
LINE
  5
48e
100
AcDbEntity
  8
0
 62
7
100
AcDbLine
 10
67.846000
 20
-5.999981
 30
0.0
 11
67.724219
 21
-5.162124
 31
0.0
  0
LINE
  5
48f
100
AcDbEntity
  8
0
 62
7
100
AcDbLine
 10
67.724219
 20
-5.162124
 30
0.0
 11
67.685249
 21
-5.162124
 31
0.0
  0
LINE
  5
490
100
AcDbEntity
  8
0
 62
7
100
AcDbLine
 10
67.685249
 20
-5.162124
 30
0.0
 11
67.279716
 21
-5.599319
 31
0.0
  0
LINE
  5
491
100
AcDbEntity
  8
0
 62
7
100
AcDbLine
 10
67.279716
 20
-5.599319
 30
0.0
 11
66.862006
 21
-5.887941
 31
0.0
  0
LINE
  5
492
100
AcDbEntity
  8
0
 62
7
100
AcDbLine
 10
66.862006
 20
-5.887941
 30
0.0
 11
66.404108
 21
-6.045039
 31
0.0
  0
LINE
  5
493
100
AcDbEntity
  8
0
 62
7
100
AcDbLine
 10
66.404108
 20
-6.045039
 30
0.0
 11
65.868271
 21
-6.097406
 31
0.0
  0
LINE
  5
494
100
AcDbEntity
  8
0
 62
7
100
AcDbLine
 10
65.868271
 20
-6.097406
 30
0.0
 11
65.175334
 21
-5.997545
 31
0.0
  0
LINE
  5
495
100
AcDbEntity
  8
0
 62
7
100
AcDbLine
 10
65.175334
 20
-5.997545
 30
0.0
 11
64.655328
 21
-5.697963
 31
0.0
  0
LINE
  5
496
100
AcDbEntity
  8
0
 62
7
100
AcDbLine
 10
64.655328
 20
-5.697963
 30
0.0
 11
64.330171
 21
-5.221797
 31
0.0
  0
LINE
  5
497
100
AcDbEntity
  8
0
 62
7
100
AcDbLine
 10
64.330171
 20
-5.221797
 30
0.0
 11
64.221786
 21
-4.592188
 31
0.0
  0
LINE
  5
498
100
AcDbEntity
  8
0
 62
7
100
AcDbLine
 10
64.221786
 20
-4.592188
 30
0.0
 11
64.261973
 21
-4.226540
 31
0.0
  0
LINE
  5
499
100
AcDbEntity
  8
0
 62
7
100
AcDbLine
 10
64.261973
 20
-4.226540
 30
0.0
 11
64.382538
 21
-3.904122
 31
0.0
  0
LINE
  5
49a
100
AcDbEntity
  8
0
 62
7
100
AcDbLine
 10
64.382538
 20
-3.904122
 30
0.0
 11
64.583478
 21
-3.624939
 31
0.0
  0
LINE
  5
49b
100
AcDbEntity
  8
0
 62
7
100
AcDbLine
 10
64.583478
 20
-3.624939
 30
0.0
 11
64.864792
 21
-3.388987
 31
0.0
  0
LINE
  5
49c
100
AcDbEntity
  8
0
 62
7
100
AcDbLine
 10
64.864792
 20
-3.388987
 30
0.0
 11
65.224656
 21
-3.199923
 31
0.0
  0
LINE
  5
49d
100
AcDbEntity
  8
0
 62
7
100
AcDbLine
 10
65.224656
 20
-3.199923
 30
0.0
 11
65.656370
 21
-3.061396
 31
0.0
  0
LINE
  5
49e
100
AcDbEntity
  8
0
 62
7
100
AcDbLine
 10
65.656370
 20
-3.061396
 30
0.0
 11
66.735353
 21
-2.935962
 31
0.0
  0
LINE
  5
49f
100
AcDbEntity
  8
0
 62
7
100
AcDbLine
 10
66.735353
 20
-2.935962
 30
0.0
 11
67.743704
 21
-2.906733
 31
0.0
  0
LINE
  5
4a0
100
AcDbEntity
  8
0
 62
7
100
AcDbLine
 10
67.743704
 20
-2.906733
 30
0.0
 11
67.743704
 21
-2.556004
 31
0.0
  0
LINE
  5
4a1
100
AcDbEntity
  8
0
 62
7
100
AcDbLine
 10
67.743704
 20
-2.556004
 30
0.0
 11
67.666982
 21
-1.893512
 31
0.0
  0
LINE
  5
4a2
100
AcDbEntity
  8
0
 62
7
100
AcDbLine
 10
67.666982
 20
-1.893512
 30
0.0
 11
67.436814
 21
-1.416130
 31
0.0
  0
LINE
  5
4a3
100
AcDbEntity
  8
0
 62
7
100
AcDbLine
 10
67.436814
 20
-1.416130
 30
0.0
 11
67.036153
 21
-1.127508
 31
0.0
  0
LINE
  5
4a4
100
AcDbEntity
  8
0
 62
7
100
AcDbLine
 10
67.036153
 20
-1.127508
 30
0.0
 11
66.447949
 21
-1.031300
 31
0.0
  0
LINE
  5
4a5
100
AcDbEntity
  8
0
 62
7
100
AcDbLine
 10
66.447949
 20
-1.031300
 30
0.0
 11
65.698993
 21
-1.133596
 31
0.0
  0
LINE
  5
4a6
100
AcDbEntity
  8
0
 62
7
100
AcDbLine
 10
65.698993
 20
-1.133596
 30
0.0
 11
64.923247
 21
-1.440486
 31
0.0
  0
LINE
  5
4a7
100
AcDbEntity
  8
0
 62
7
100
AcDbLine
 10
64.923247
 20
-1.440486
 30
0.0
 11
64.743010
 21
-1.021558
 31
0.0
  0
LINE
  5
4a8
100
AcDbEntity
  8
0
 62
7
100
AcDbLine
 10
64.743010
 20
-1.021558
 30
0.0
 11
65.610093
 21
-0.714668
 31
0.0
  0
LINE
  5
4a9
100
AcDbEntity
  8
0
 62
7
100
AcDbLine
 10
65.610093
 20
-0.714668
 30
0.0
 11
66.467435
 21
-0.612371
 31
0.0
  0
LINE
  5
4aa
100
AcDbEntity
  8
0
 62
7
100
AcDbLine
 10
66.467435
 20
-0.612371
 30
0.0
 11
67.228569
 21
-0.725628
 31
0.0
  0
LINE
  5
4ab
100
AcDbEntity
  8
0
 62
7
100
AcDbLine
 10
67.228569
 20
-0.725628
 30
0.0
 11
67.526020
 21
-0.867199
 31
0.0
  0
LINE
  5
4ac
100
AcDbEntity
  8
0
 62
7
100
AcDbLine
 10
67.526020
 20
-0.867199
 30
0.0
 11
67.768060
 21
-1.065399
 31
0.0
  0
LINE
  5
4ad
100
AcDbEntity
  8
0
 62
7
100
AcDbLine
 10
67.768060
 20
-1.065399
 30
0.0
 11
67.957734
 21
-1.323576
 31
0.0
  0
LINE
  5
4ae
100
AcDbEntity
  8
0
 62
7
100
AcDbLine
 10
67.957734
 20
-1.323576
 30
0.0
 11
68.093215
 21
-1.645079
 31
0.0
  0
LINE
  5
4af
100
AcDbEntity
  8
0
 62
7
100
AcDbLine
 10
68.093215
 20
-1.645079
 30
0.0
 11
68.201601
 21
-2.478062
 31
0.0
  0
LINE
  5
4b0
100
AcDbEntity
  8
0
 62
7
100
AcDbLine
 10
68.201601
 20
-2.478062
 30
0.0
 11
68.201601
 21
-5.999981
 31
0.0
  0
LINE
  5
4b1
100
AcDbEntity
  8
0
 62
7
100
AcDbLine
 10
68.201601
 20
-5.999981
 30
0.0
 11
67.846000
 21
-5.999981
 31
0.0
  0
LINE
  5
4b2
100
AcDbEntity
  8
0
 62
7
100
AcDbLine
 10
65.897497
 20
-5.658993
 30
0.0
 11
66.298767
 21
-5.628852
 31
0.0
  0
LINE
  5
4b3
100
AcDbEntity
  8
0
 62
7
100
AcDbLine
 10
66.298767
 20
-5.628852
 30
0.0
 11
66.654977
 21
-5.538428
 31
0.0
  0
LINE
  5
4b4
100
AcDbEntity
  8
0
 62
7
100
AcDbLine
 10
66.654977
 20
-5.538428
 30
0.0
 11
66.966129
 21
-5.387725
 31
0.0
  0
LINE
  5
4b5
100
AcDbEntity
  8
0
 62
7
100
AcDbLine
 10
66.966129
 20
-5.387725
 30
0.0
 11
67.232221
 21
-5.176738
 31
0.0
  0
LINE
  5
4b6
100
AcDbEntity
  8
0
 62
7
100
AcDbLine
 10
67.232221
 20
-5.176738
 30
0.0
 11
67.447471
 21
-4.909732
 31
0.0
  0
LINE
  5
4b7
100
AcDbEntity
  8
0
 62
7
100
AcDbLine
 10
67.447471
 20
-4.909732
 30
0.0
 11
67.601219
 21
-4.595841
 31
0.0
  0
LINE
  5
4b8
100
AcDbEntity
  8
0
 62
7
100
AcDbLine
 10
67.601219
 20
-4.595841
 30
0.0
 11
67.693470
 21
-4.235064
 31
0.0
  0
LINE
  5
4b9
100
AcDbEntity
  8
0
 62
7
100
AcDbLine
 10
67.693470
 20
-4.235064
 30
0.0
 11
67.724219
 21
-3.827400
 31
0.0
  0
LINE
  5
4ba
100
AcDbEntity
  8
0
 62
7
100
AcDbLine
 10
67.724219
 20
-3.827400
 30
0.0
 11
67.724219
 21
-3.306176
 31
0.0
  0
LINE
  5
4bb
100
AcDbEntity
  8
0
 62
7
100
AcDbLine
 10
67.724219
 20
-3.306176
 30
0.0
 11
66.798680
 21
-3.345146
 31
0.0
  0
LINE
  5
4bc
100
AcDbEntity
  8
0
 62
7
100
AcDbLine
 10
66.798680
 20
-3.345146
 30
0.0
 11
65.842696
 21
-3.459621
 31
0.0
  0
LINE
  5
4bd
100
AcDbEntity
  8
0
 62
7
100
AcDbLine
 10
65.842696
 20
-3.459621
 30
0.0
 11
65.205779
 21
-3.695877
 31
0.0
  0
LINE
  5
4be
100
AcDbEntity
  8
0
 62
7
100
AcDbLine
 10
65.205779
 20
-3.695877
 30
0.0
 11
64.999055
 21
-3.862717
 31
0.0
  0
LINE
  5
4bf
100
AcDbEntity
  8
0
 62
7
100
AcDbLine
 10
64.999055
 20
-3.862717
 30
0.0
 11
64.851396
 21
-4.070963
 31
0.0
  0
LINE
  5
4c0
100
AcDbEntity
  8
0
 62
7
100
AcDbLine
 10
64.851396
 20
-4.070963
 30
0.0
 11
64.762799
 21
-4.320615
 31
0.0
  0
LINE
  5
4c1
100
AcDbEntity
  8
0
 62
7
100
AcDbLine
 10
64.762799
 20
-4.320615
 30
0.0
 11
64.733267
 21
-4.611673
 31
0.0
  0
LINE
  5
4c2
100
AcDbEntity
  8
0
 62
7
100
AcDbLine
 10
64.733267
 20
-4.611673
 30
0.0
 11
64.808771
 21
-5.053740
 31
0.0
  0
LINE
  5
4c3
100
AcDbEntity
  8
0
 62
7
100
AcDbLine
 10
64.808771
 20
-5.053740
 30
0.0
 11
65.035285
 21
-5.386203
 31
0.0
  0
LINE
  5
4c4
100
AcDbEntity
  8
0
 62
7
100
AcDbLine
 10
65.035285
 20
-5.386203
 30
0.0
 11
65.404283
 21
-5.590795
 31
0.0
  0
LINE
  5
4c5
100
AcDbEntity
  8
0
 62
7
100
AcDbLine
 10
65.404283
 20
-5.590795
 30
0.0
 11
65.897497
 21
-5.658993
 31
0.0
  0
LINE
  5
4c6
100
AcDbEntity
  8
0
 62
7
100
AcDbLine
 10
65.897497
 20
-5.658993
 30
0.0
 11
65.897497
 21
-5.658993
 31
0.0
  0
LINE
  5
4c7
100
AcDbEntity
  8
0
 62
7
100
AcDbLine
 10
75.786146
 20
-4.621415
 30
0.0
 11
75.752352
 21
-4.956618
 31
0.0
  0
LINE
  5
4c8
100
AcDbEntity
  8
0
 62
7
100
AcDbLine
 10
75.752352
 20
-4.956618
 30
0.0
 11
75.650969
 21
-5.251024
 31
0.0
  0
LINE
  5
4c9
100
AcDbEntity
  8
0
 62
7
100
AcDbLine
 10
75.650969
 20
-5.251024
 30
0.0
 11
75.481996
 21
-5.504634
 31
0.0
  0
LINE
  5
4ca
100
AcDbEntity
  8
0
 62
7
100
AcDbLine
 10
75.481996
 20
-5.504634
 30
0.0
 11
75.245437
 21
-5.717448
 31
0.0
  0
LINE
  5
4cb
100
AcDbEntity
  8
0
 62
7
100
AcDbLine
 10
75.245437
 20
-5.717448
 30
0.0
 11
74.591471
 21
-6.002416
 31
0.0
  0
LINE
  5
4cc
100
AcDbEntity
  8
0
 62
7
100
AcDbLine
 10
74.591471
 20
-6.002416
 30
0.0
 11
73.710992
 21
-6.097406
 31
0.0
  0
LINE
  5
4cd
100
AcDbEntity
  8
0
 62
7
100
AcDbLine
 10
73.710992
 20
-6.097406
 30
0.0
 11
72.758662
 21
-6.015812
 31
0.0
  0
LINE
  5
4ce
100
AcDbEntity
  8
0
 62
7
100
AcDbLine
 10
72.758662
 20
-6.015812
 30
0.0
 11
72.025537
 21
-5.771031
 31
0.0
  0
LINE
  5
4cf
100
AcDbEntity
  8
0
 62
7
100
AcDbLine
 10
72.025537
 20
-5.771031
 30
0.0
 11
72.025537
 21
-5.249808
 31
0.0
  0
LINE
  5
4d0
100
AcDbEntity
  8
0
 62
7
100
AcDbLine
 10
72.025537
 20
-5.249808
 30
0.0
 11
72.846344
 21
-5.549390
 31
0.0
  0
LINE
  5
4d1
100
AcDbEntity
  8
0
 62
7
100
AcDbLine
 10
72.846344
 20
-5.549390
 30
0.0
 11
73.710992
 21
-5.649250
 31
0.0
  0
LINE
  5
4d2
100
AcDbEntity
  8
0
 62
7
100
AcDbLine
 10
73.710992
 20
-5.649250
 30
0.0
 11
74.400275
 21
-5.584705
 31
0.0
  0
LINE
  5
4d3
100
AcDbEntity
  8
0
 62
7
100
AcDbLine
 10
74.400275
 20
-5.584705
 30
0.0
 11
74.899577
 21
-5.391073
 31
0.0
  0
LINE
  5
4d4
100
AcDbEntity
  8
0
 62
7
100
AcDbLine
 10
74.899577
 20
-5.391073
 30
0.0
 11
75.206467
 21
-5.085403
 31
0.0
  0
LINE
  5
4d5
100
AcDbEntity
  8
0
 62
7
100
AcDbLine
 10
75.206467
 20
-5.085403
 30
0.0
 11
75.308764
 21
-4.694484
 31
0.0
  0
LINE
  5
4d6
100
AcDbEntity
  8
0
 62
7
100
AcDbLine
 10
75.308764
 20
-4.694484
 30
0.0
 11
75.227170
 21
-4.326705
 31
0.0
  0
LINE
  5
4d7
100
AcDbEntity
  8
0
 62
7
100
AcDbLine
 10
75.227170
 20
-4.326705
 30
0.0
 11
74.982389
 21
-4.022251
 31
0.0
  0
LINE
  5
4d8
100
AcDbEntity
  8
0
 62
7
100
AcDbLine
 10
74.982389
 20
-4.022251
 30
0.0
 11
74.556154
 21
-3.751897
 31
0.0
  0
LINE
  5
4d9
100
AcDbEntity
  8
0
 62
7
100
AcDbLine
 10
74.556154
 20
-3.751897
 30
0.0
 11
73.920455
 21
-3.486413
 31
0.0
  0
LINE
  5
4da
100
AcDbEntity
  8
0
 62
7
100
AcDbLine
 10
73.920455
 20
-3.486413
 30
0.0
 11
72.804938
 21
-2.994417
 31
0.0
  0
LINE
  5
4db
100
AcDbEntity
  8
0
 62
7
100
AcDbLine
 10
72.804938
 20
-2.994417
 30
0.0
 11
72.522405
 21
-2.772774
 31
0.0
  0
LINE
  5
4dc
100
AcDbEntity
  8
0
 62
7
100
AcDbLine
 10
72.522405
 20
-2.772774
 30
0.0
 11
72.317813
 21
-2.526775
 31
0.0
  0
LINE
  5
4dd
100
AcDbEntity
  8
0
 62
7
100
AcDbLine
 10
72.317813
 20
-2.526775
 30
0.0
 11
72.197249
 21
-2.235719
 31
0.0
  0
LINE
  5
4de
100
AcDbEntity
  8
0
 62
7
100
AcDbLine
 10
72.197249
 20
-2.235719
 30
0.0
 11
72.157060
 21
-1.888642
 31
0.0
  0
LINE
  5
4df
100
AcDbEntity
  8
0
 62
7
100
AcDbLine
 10
72.157060
 20
-1.888642
 30
0.0
 11
72.188114
 21
-1.607022
 31
0.0
  0
LINE
  5
4e0
100
AcDbEntity
  8
0
 62
7
100
AcDbLine
 10
72.188114
 20
-1.607022
 30
0.0
 11
72.281277
 21
-1.356457
 31
0.0
  0
LINE
  5
4e1
100
AcDbEntity
  8
0
 62
7
100
AcDbLine
 10
72.281277
 20
-1.356457
 30
0.0
 11
72.436549
 21
-1.136946
 31
0.0
  0
LINE
  5
4e2
100
AcDbEntity
  8
0
 62
7
100
AcDbLine
 10
72.436549
 20
-1.136946
 30
0.0
 11
72.653929
 21
-0.948488
 31
0.0
  0
LINE
  5
4e3
100
AcDbEntity
  8
0
 62
7
100
AcDbLine
 10
72.653929
 20
-0.948488
 30
0.0
 11
73.254311
 21
-0.689093
 31
0.0
  0
LINE
  5
4e4
100
AcDbEntity
  8
0
 62
7
100
AcDbLine
 10
73.254311
 20
-0.689093
 30
0.0
 11
74.051979
 21
-0.602629
 31
0.0
  0
LINE
  5
4e5
100
AcDbEntity
  8
0
 62
7
100
AcDbLine
 10
74.051979
 20
-0.602629
 30
0.0
 11
74.887399
 21
-0.683005
 31
0.0
  0
LINE
  5
4e6
100
AcDbEntity
  8
0
 62
7
100
AcDbLine
 10
74.887399
 20
-0.683005
 30
0.0
 11
75.678979
 21
-0.924132
 31
0.0
  0
LINE
  5
4e7
100
AcDbEntity
  8
0
 62
7
100
AcDbLine
 10
75.678979
 20
-0.924132
 30
0.0
 11
75.498742
 21
-1.362545
 31
0.0
  0
LINE
  5
4e8
100
AcDbEntity
  8
0
 62
7
100
AcDbLine
 10
75.498742
 20
-1.362545
 30
0.0
 11
74.747350
 21
-1.121418
 31
0.0
  0
LINE
  5
4e9
100
AcDbEntity
  8
0
 62
7
100
AcDbLine
 10
74.747350
 20
-1.121418
 30
0.0
 11
74.051979
 21
-1.041042
 31
0.0
  0
LINE
  5
4ea
100
AcDbEntity
  8
0
 62
7
100
AcDbLine
 10
74.051979
 20
-1.041042
 30
0.0
 11
73.471082
 21
-1.094627
 31
0.0
  0
LINE
  5
4eb
100
AcDbEntity
  8
0
 62
7
100
AcDbLine
 10
73.471082
 20
-1.094627
 30
0.0
 11
73.024144
 21
-1.255378
 31
0.0
  0
LINE
  5
4ec
100
AcDbEntity
  8
0
 62
7
100
AcDbLine
 10
73.024144
 20
-1.255378
 30
0.0
 11
72.739176
 21
-1.511118
 31
0.0
  0
LINE
  5
4ed
100
AcDbEntity
  8
0
 62
7
100
AcDbLine
 10
72.739176
 20
-1.511118
 30
0.0
 11
72.644186
 21
-1.849671
 31
0.0
  0
LINE
  5
4ee
100
AcDbEntity
  8
0
 62
7
100
AcDbLine
 10
72.644186
 20
-1.849671
 30
0.0
 11
72.717256
 21
-2.222323
 31
0.0
  0
LINE
  5
4ef
100
AcDbEntity
  8
0
 62
7
100
AcDbLine
 10
72.717256
 20
-2.222323
 30
0.0
 11
72.936462
 21
-2.512161
 31
0.0
  0
LINE
  5
4f0
100
AcDbEntity
  8
0
 62
7
100
AcDbLine
 10
72.936462
 20
-2.512161
 30
0.0
 11
73.373657
 21
-2.775209
 31
0.0
  0
LINE
  5
4f1
100
AcDbEntity
  8
0
 62
7
100
AcDbLine
 10
73.373657
 20
-2.775209
 30
0.0
 11
74.090950
 21
-3.067485
 31
0.0
  0
LINE
  5
4f2
100
AcDbEntity
  8
0
 62
7
100
AcDbLine
 10
74.090950
 20
-3.067485
 30
0.0
 11
75.133398
 21
-3.535126
 31
0.0
  0
LINE
  5
4f3
100
AcDbEntity
  8
0
 62
7
100
AcDbLine
 10
75.133398
 20
-3.535126
 30
0.0
 11
75.418366
 21
-3.754333
 31
0.0
  0
LINE
  5
4f4
100
AcDbEntity
  8
0
 62
7
100
AcDbLine
 10
75.418366
 20
-3.754333
 30
0.0
 11
75.620524
 21
-4.002766
 31
0.0
  0
LINE
  5
4f5
100
AcDbEntity
  8
0
 62
7
100
AcDbLine
 10
75.620524
 20
-4.002766
 30
0.0
 11
75.744741
 21
-4.288952
 31
0.0
  0
LINE
  5
4f6
100
AcDbEntity
  8
0
 62
7
100
AcDbLine
 10
75.744741
 20
-4.288952
 30
0.0
 11
75.786146
 21
-4.621415
 31
0.0
  0
LINE
  5
4f7
100
AcDbEntity
  8
0
 62
7
100
AcDbLine
 10
75.786146
 20
-4.621415
 30
0.0
 11
75.786146
 21
-4.621415
 31
0.0
  0
LINE
  5
4f8
100
AcDbEntity
  8
0
 62
7
100
AcDbLine
 10
78.557891
 20
-5.668735
 30
0.0
 11
79.356778
 21
-5.590795
 31
0.0
  0
LINE
  5
4f9
100
AcDbEntity
  8
0
 62
7
100
AcDbLine
 10
79.356778
 20
-5.590795
 30
0.0
 11
79.356778
 21
-5.980495
 31
0.0
  0
LINE
  5
4fa
100
AcDbEntity
  8
0
 62
7
100
AcDbLine
 10
79.356778
 20
-5.980495
 30
0.0
 11
78.548149
 21
-6.097406
 31
0.0
  0
LINE
  5
4fb
100
AcDbEntity
  8
0
 62
7
100
AcDbLine
 10
78.548149
 20
-6.097406
 30
0.0
 11
77.938024
 21
-6.003634
 31
0.0
  0
LINE
  5
4fc
100
AcDbEntity
  8
0
 62
7
100
AcDbLine
 10
77.938024
 20
-6.003634
 30
0.0
 11
77.510571
 21
-5.722320
 31
0.0
  0
LINE
  5
4fd
100
AcDbEntity
  8
0
 62
7
100
AcDbLine
 10
77.510571
 20
-5.722320
 30
0.0
 11
77.262138
 21
-5.240064
 31
0.0
  0
LINE
  5
4fe
100
AcDbEntity
  8
0
 62
7
100
AcDbLine
 10
77.262138
 20
-5.240064
 30
0.0
 11
77.179326
 21
-4.543475
 31
0.0
  0
LINE
  5
4ff
100
AcDbEntity
  8
0
 62
7
100
AcDbLine
 10
77.179326
 20
-4.543475
 30
0.0
 11
77.179326
 21
-1.123854
 31
0.0
  0
LINE
  5
500
100
AcDbEntity
  8
0
 62
7
100
AcDbLine
 10
77.179326
 20
-1.123854
 30
0.0
 11
76.395054
 21
-1.123854
 31
0.0
  0
LINE
  5
501
100
AcDbEntity
  8
0
 62
7
100
AcDbLine
 10
76.395054
 20
-1.123854
 30
0.0
 11
76.395054
 21
-0.841322
 31
0.0
  0
LINE
  5
502
100
AcDbEntity
  8
0
 62
7
100
AcDbLine
 10
76.395054
 20
-0.841322
 30
0.0
 11
77.179326
 21
-0.622115
 31
0.0
  0
LINE
  5
503
100
AcDbEntity
  8
0
 62
7
100
AcDbLine
 10
77.179326
 20
-0.622115
 30
0.0
 11
77.422889
 21
0.576214
 31
0.0
  0
LINE
  5
504
100
AcDbEntity
  8
0
 62
7
100
AcDbLine
 10
77.422889
 20
0.576214
 30
0.0
 11
77.671323
 21
0.576214
 31
0.0
  0
LINE
  5
505
100
AcDbEntity
  8
0
 62
7
100
AcDbLine
 10
77.671323
 20
0.576214
 30
0.0
 11
77.671323
 21
-0.704925
 31
0.0
  0
LINE
  5
506
100
AcDbEntity
  8
0
 62
7
100
AcDbLine
 10
77.671323
 20
-0.704925
 30
0.0
 11
79.225253
 21
-0.704925
 31
0.0
  0
LINE
  5
507
100
AcDbEntity
  8
0
 62
7
100
AcDbLine
 10
79.225253
 20
-0.704925
 30
0.0
 11
79.225253
 21
-1.123854
 31
0.0
  0
LINE
  5
508
100
AcDbEntity
  8
0
 62
7
100
AcDbLine
 10
79.225253
 20
-1.123854
 30
0.0
 11
77.671323
 21
-1.123854
 31
0.0
  0
LINE
  5
509
100
AcDbEntity
  8
0
 62
7
100
AcDbLine
 10
77.671323
 20
-1.123854
 30
0.0
 11
77.671323
 21
-4.475278
 31
0.0
  0
LINE
  5
50a
100
AcDbEntity
  8
0
 62
7
100
AcDbLine
 10
77.671323
 20
-4.475278
 30
0.0
 11
77.724908
 21
-5.005027
 31
0.0
  0
LINE
  5
50b
100
AcDbEntity
  8
0
 62
7
100
AcDbLine
 10
77.724908
 20
-5.005027
 30
0.0
 11
77.885659
 21
-5.376460
 31
0.0
  0
LINE
  5
50c
100
AcDbEntity
  8
0
 62
7
100
AcDbLine
 10
77.885659
 20
-5.376460
 30
0.0
 11
78.160885
 21
-5.595666
 31
0.0
  0
LINE
  5
50d
100
AcDbEntity
  8
0
 62
7
100
AcDbLine
 10
78.160885
 20
-5.595666
 30
0.0
 11
78.557891
 21
-5.668735
 31
0.0
  0
LINE
  5
50e
100
AcDbEntity
  8
0
 62
7
100
AcDbLine
 10
78.557891
 20
-5.668735
 30
0.0
 11
78.557891
 21
-5.668735
 31
0.0
  0
LINE
  5
50f
100
AcDbEntity
  8
0
 62
7
100
AcDbLine
 10
83.726292
 20
-5.999981
 30
0.0
 11
83.604509
 21
-5.162124
 31
0.0
  0
LINE
  5
510
100
AcDbEntity
  8
0
 62
7
100
AcDbLine
 10
83.604509
 20
-5.162124
 30
0.0
 11
83.565540
 21
-5.162124
 31
0.0
  0
LINE
  5
511
100
AcDbEntity
  8
0
 62
7
100
AcDbLine
 10
83.565540
 20
-5.162124
 30
0.0
 11
83.160008
 21
-5.599319
 31
0.0
  0
LINE
  5
512
100
AcDbEntity
  8
0
 62
7
100
AcDbLine
 10
83.160008
 20
-5.599319
 30
0.0
 11
82.742297
 21
-5.887941
 31
0.0
  0
LINE
  5
513
100
AcDbEntity
  8
0
 62
7
100
AcDbLine
 10
82.742297
 20
-5.887941
 30
0.0
 11
82.284400
 21
-6.045039
 31
0.0
  0
LINE
  5
514
100
AcDbEntity
  8
0
 62
7
100
AcDbLine
 10
82.284400
 20
-6.045039
 30
0.0
 11
81.748562
 21
-6.097406
 31
0.0
  0
LINE
  5
515
100
AcDbEntity
  8
0
 62
7
100
AcDbLine
 10
81.748562
 20
-6.097406
 30
0.0
 11
81.055626
 21
-5.997545
 31
0.0
  0
LINE
  5
516
100
AcDbEntity
  8
0
 62
7
100
AcDbLine
 10
81.055626
 20
-5.997545
 30
0.0
 11
80.535619
 21
-5.697963
 31
0.0
  0
LINE
  5
517
100
AcDbEntity
  8
0
 62
7
100
AcDbLine
 10
80.535619
 20
-5.697963
 30
0.0
 11
80.210463
 21
-5.221797
 31
0.0
  0
LINE
  5
518
100
AcDbEntity
  8
0
 62
7
100
AcDbLine
 10
80.210463
 20
-5.221797
 30
0.0
 11
80.102078
 21
-4.592188
 31
0.0
  0
LINE
  5
519
100
AcDbEntity
  8
0
 62
7
100
AcDbLine
 10
80.102078
 20
-4.592188
 30
0.0
 11
80.142267
 21
-4.226540
 31
0.0
  0
LINE
  5
51a
100
AcDbEntity
  8
0
 62
7
100
AcDbLine
 10
80.142267
 20
-4.226540
 30
0.0
 11
80.262829
 21
-3.904122
 31
0.0
  0
LINE
  5
51b
100
AcDbEntity
  8
0
 62
7
100
AcDbLine
 10
80.262829
 20
-3.904122
 30
0.0
 11
80.463768
 21
-3.624939
 31
0.0
  0
LINE
  5
51c
100
AcDbEntity
  8
0
 62
7
100
AcDbLine
 10
80.463768
 20
-3.624939
 30
0.0
 11
80.745083
 21
-3.388987
 31
0.0
  0
LINE
  5
51d
100
AcDbEntity
  8
0
 62
7
100
AcDbLine
 10
80.745083
 20
-3.388987
 30
0.0
 11
81.104946
 21
-3.199923
 31
0.0
  0
LINE
  5
51e
100
AcDbEntity
  8
0
 62
7
100
AcDbLine
 10
81.104946
 20
-3.199923
 30
0.0
 11
81.536662
 21
-3.061396
 31
0.0
  0
LINE
  5
51f
100
AcDbEntity
  8
0
 62
7
100
AcDbLine
 10
81.536662
 20
-3.061396
 30
0.0
 11
82.615645
 21
-2.935962
 31
0.0
  0
LINE
  5
520
100
AcDbEntity
  8
0
 62
7
100
AcDbLine
 10
82.615645
 20
-2.935962
 30
0.0
 11
83.623995
 21
-2.906733
 31
0.0
  0
LINE
  5
521
100
AcDbEntity
  8
0
 62
7
100
AcDbLine
 10
83.623995
 20
-2.906733
 30
0.0
 11
83.623995
 21
-2.556004
 31
0.0
  0
LINE
  5
522
100
AcDbEntity
  8
0
 62
7
100
AcDbLine
 10
83.623995
 20
-2.556004
 30
0.0
 11
83.547272
 21
-1.893512
 31
0.0
  0
LINE
  5
523
100
AcDbEntity
  8
0
 62
7
100
AcDbLine
 10
83.547272
 20
-1.893512
 30
0.0
 11
83.317105
 21
-1.416130
 31
0.0
  0
LINE
  5
524
100
AcDbEntity
  8
0
 62
7
100
AcDbLine
 10
83.317105
 20
-1.416130
 30
0.0
 11
82.916445
 21
-1.127508
 31
0.0
  0
LINE
  5
525
100
AcDbEntity
  8
0
 62
7
100
AcDbLine
 10
82.916445
 20
-1.127508
 30
0.0
 11
82.328241
 21
-1.031300
 31
0.0
  0
LINE
  5
526
100
AcDbEntity
  8
0
 62
7
100
AcDbLine
 10
82.328241
 20
-1.031300
 30
0.0
 11
81.579285
 21
-1.133596
 31
0.0
  0
LINE
  5
527
100
AcDbEntity
  8
0
 62
7
100
AcDbLine
 10
81.579285
 20
-1.133596
 30
0.0
 11
80.803539
 21
-1.440486
 31
0.0
  0
LINE
  5
528
100
AcDbEntity
  8
0
 62
7
100
AcDbLine
 10
80.803539
 20
-1.440486
 30
0.0
 11
80.623301
 21
-1.021558
 31
0.0
  0
LINE
  5
529
100
AcDbEntity
  8
0
 62
7
100
AcDbLine
 10
80.623301
 20
-1.021558
 30
0.0
 11
81.490385
 21
-0.714668
 31
0.0
  0
LINE
  5
52a
100
AcDbEntity
  8
0
 62
7
100
AcDbLine
 10
81.490385
 20
-0.714668
 30
0.0
 11
82.347727
 21
-0.612371
 31
0.0
  0
LINE
  5
52b
100
AcDbEntity
  8
0
 62
7
100
AcDbLine
 10
82.347727
 20
-0.612371
 30
0.0
 11
83.108861
 21
-0.725628
 31
0.0
  0
LINE
  5
52c
100
AcDbEntity
  8
0
 62
7
100
AcDbLine
 10
83.108861
 20
-0.725628
 30
0.0
 11
83.406311
 21
-0.867199
 31
0.0
  0
LINE
  5
52d
100
AcDbEntity
  8
0
 62
7
100
AcDbLine
 10
83.406311
 20
-0.867199
 30
0.0
 11
83.648352
 21
-1.065399
 31
0.0
  0
LINE
  5
52e
100
AcDbEntity
  8
0
 62
7
100
AcDbLine
 10
83.648352
 20
-1.065399
 30
0.0
 11
83.838026
 21
-1.323576
 31
0.0
  0
LINE
  5
52f
100
AcDbEntity
  8
0
 62
7
100
AcDbLine
 10
83.838026
 20
-1.323576
 30
0.0
 11
83.973509
 21
-1.645079
 31
0.0
  0
LINE
  5
530
100
AcDbEntity
  8
0
 62
7
100
AcDbLine
 10
83.973509
 20
-1.645079
 30
0.0
 11
84.081893
 21
-2.478062
 31
0.0
  0
LINE
  5
531
100
AcDbEntity
  8
0
 62
7
100
AcDbLine
 10
84.081893
 20
-2.478062
 30
0.0
 11
84.081893
 21
-5.999981
 31
0.0
  0
LINE
  5
532
100
AcDbEntity
  8
0
 62
7
100
AcDbLine
 10
84.081893
 20
-5.999981
 30
0.0
 11
83.726292
 21
-5.999981
 31
0.0
  0
LINE
  5
533
100
AcDbEntity
  8
0
 62
7
100
AcDbLine
 10
81.777789
 20
-5.658993
 30
0.0
 11
82.179059
 21
-5.628852
 31
0.0
  0
LINE
  5
534
100
AcDbEntity
  8
0
 62
7
100
AcDbLine
 10
82.179059
 20
-5.628852
 30
0.0
 11
82.535269
 21
-5.538428
 31
0.0
  0
LINE
  5
535
100
AcDbEntity
  8
0
 62
7
100
AcDbLine
 10
82.535269
 20
-5.538428
 30
0.0
 11
82.846421
 21
-5.387725
 31
0.0
  0
LINE
  5
536
100
AcDbEntity
  8
0
 62
7
100
AcDbLine
 10
82.846421
 20
-5.387725
 30
0.0
 11
83.112513
 21
-5.176738
 31
0.0
  0
LINE
  5
537
100
AcDbEntity
  8
0
 62
7
100
AcDbLine
 10
83.112513
 20
-5.176738
 30
0.0
 11
83.327761
 21
-4.909732
 31
0.0
  0
LINE
  5
538
100
AcDbEntity
  8
0
 62
7
100
AcDbLine
 10
83.327761
 20
-4.909732
 30
0.0
 11
83.481511
 21
-4.595841
 31
0.0
  0
LINE
  5
539
100
AcDbEntity
  8
0
 62
7
100
AcDbLine
 10
83.481511
 20
-4.595841
 30
0.0
 11
83.573760
 21
-4.235064
 31
0.0
  0
LINE
  5
53a
100
AcDbEntity
  8
0
 62
7
100
AcDbLine
 10
83.573760
 20
-4.235064
 30
0.0
 11
83.604509
 21
-3.827400
 31
0.0
  0
LINE
  5
53b
100
AcDbEntity
  8
0
 62
7
100
AcDbLine
 10
83.604509
 20
-3.827400
 30
0.0
 11
83.604509
 21
-3.306176
 31
0.0
  0
LINE
  5
53c
100
AcDbEntity
  8
0
 62
7
100
AcDbLine
 10
83.604509
 20
-3.306176
 30
0.0
 11
82.678972
 21
-3.345146
 31
0.0
  0
LINE
  5
53d
100
AcDbEntity
  8
0
 62
7
100
AcDbLine
 10
82.678972
 20
-3.345146
 30
0.0
 11
81.722988
 21
-3.459621
 31
0.0
  0
LINE
  5
53e
100
AcDbEntity
  8
0
 62
7
100
AcDbLine
 10
81.722988
 20
-3.459621
 30
0.0
 11
81.086071
 21
-3.695877
 31
0.0
  0
LINE
  5
53f
100
AcDbEntity
  8
0
 62
7
100
AcDbLine
 10
81.086071
 20
-3.695877
 30
0.0
 11
80.879347
 21
-3.862717
 31
0.0
  0
LINE
  5
540
100
AcDbEntity
  8
0
 62
7
100
AcDbLine
 10
80.879347
 20
-3.862717
 30
0.0
 11
80.731687
 21
-4.070963
 31
0.0
  0
LINE
  5
541
100
AcDbEntity
  8
0
 62
7
100
AcDbLine
 10
80.731687
 20
-4.070963
 30
0.0
 11
80.643090
 21
-4.320615
 31
0.0
  0
LINE
  5
542
100
AcDbEntity
  8
0
 62
7
100
AcDbLine
 10
80.643090
 20
-4.320615
 30
0.0
 11
80.613559
 21
-4.611673
 31
0.0
  0
LINE
  5
543
100
AcDbEntity
  8
0
 62
7
100
AcDbLine
 10
80.613559
 20
-4.611673
 30
0.0
 11
80.689063
 21
-5.053740
 31
0.0
  0
LINE
  5
544
100
AcDbEntity
  8
0
 62
7
100
AcDbLine
 10
80.689063
 20
-5.053740
 30
0.0
 11
80.915577
 21
-5.386203
 31
0.0
  0
LINE
  5
545
100
AcDbEntity
  8
0
 62
7
100
AcDbLine
 10
80.915577
 20
-5.386203
 30
0.0
 11
81.284575
 21
-5.590795
 31
0.0
  0
LINE
  5
546
100
AcDbEntity
  8
0
 62
7
100
AcDbLine
 10
81.284575
 20
-5.590795
 30
0.0
 11
81.777789
 21
-5.658993
 31
0.0
  0
LINE
  5
547
100
AcDbEntity
  8
0
 62
7
100
AcDbLine
 10
81.777789
 20
-5.658993
 30
0.0
 11
81.777789
 21
-5.658993
 31
0.0
  0
LINE
  5
548
100
AcDbEntity
  8
0
 62
7
100
AcDbLine
 10
89.922529
 20
-0.704925
 30
0.0
 11
89.922529
 21
-1.041042
 31
0.0
  0
LINE
  5
549
100
AcDbEntity
  8
0
 62
7
100
AcDbLine
 10
89.922529
 20
-1.041042
 30
0.0
 11
88.826496
 21
-1.109240
 31
0.0
  0
LINE
  5
54a
100
AcDbEntity
  8
0
 62
7
100
AcDbLine
 10
88.826496
 20
-1.109240
 30
0.0
 11
89.155305
 21
-1.681613
 31
0.0
  0
LINE
  5
54b
100
AcDbEntity
  8
0
 62
7
100
AcDbLine
 10
89.155305
 20
-1.681613
 30
0.0
 11
89.264909
 21
-2.307569
 31
0.0
  0
LINE
  5
54c
100
AcDbEntity
  8
0
 62
7
100
AcDbLine
 10
89.264909
 20
-2.307569
 30
0.0
 11
89.232942
 21
-2.672000
 31
0.0
  0
LINE
  5
54d
100
AcDbEntity
  8
0
 62
7
100
AcDbLine
 10
89.232942
 20
-2.672000
 30
0.0
 11
89.137039
 21
-3.000505
 31
0.0
  0
LINE
  5
54e
100
AcDbEntity
  8
0
 62
7
100
AcDbLine
 10
89.137039
 20
-3.000505
 30
0.0
 11
88.977201
 21
-3.293085
 31
0.0
  0
LINE
  5
54f
100
AcDbEntity
  8
0
 62
7
100
AcDbLine
 10
88.977201
 20
-3.293085
 30
0.0
 11
88.753428
 21
-3.549739
 31
0.0
  0
LINE
  5
550
100
AcDbEntity
  8
0
 62
7
100
AcDbLine
 10
88.753428
 20
-3.549739
 30
0.0
 11
88.478202
 21
-3.756463
 31
0.0
  0
LINE
  5
551
100
AcDbEntity
  8
0
 62
7
100
AcDbLine
 10
88.478202
 20
-3.756463
 30
0.0
 11
88.159134
 21
-3.904122
 31
0.0
  0
LINE
  5
552
100
AcDbEntity
  8
0
 62
7
100
AcDbLine
 10
88.159134
 20
-3.904122
 30
0.0
 11
87.389476
 21
-4.022251
 31
0.0
  0
LINE
  5
553
100
AcDbEntity
  8
0
 62
7
100
AcDbLine
 10
87.389476
 20
-4.022251
 30
0.0
 11
86.882865
 21
-3.993024
 31
0.0
  0
LINE
  5
554
100
AcDbEntity
  8
0
 62
7
100
AcDbLine
 10
86.882865
 20
-3.993024
 30
0.0
 11
86.444452
 21
-4.348625
 31
0.0
  0
LINE
  5
555
100
AcDbEntity
  8
0
 62
7
100
AcDbLine
 10
86.444452
 20
-4.348625
 30
0.0
 11
86.331196
 21
-4.559306
 31
0.0
  0
LINE
  5
556
100
AcDbEntity
  8
0
 62
7
100
AcDbLine
 10
86.331196
 20
-4.559306
 30
0.0
 11
86.293443
 21
-4.782166
 31
0.0
  0
LINE
  5
557
100
AcDbEntity
  8
0
 62
7
100
AcDbLine
 10
86.293443
 20
-4.782166
 30
0.0
 11
86.340938
 21
-5.001373
 31
0.0
  0
LINE
  5
558
100
AcDbEntity
  8
0
 62
7
100
AcDbLine
 10
86.340938
 20
-5.001373
 30
0.0
 11
86.483423
 21
-5.152382
 31
0.0
  0
LINE
  5
559
100
AcDbEntity
  8
0
 62
7
100
AcDbLine
 10
86.483423
 20
-5.152382
 30
0.0
 11
86.742818
 21
-5.240064
 31
0.0
  0
LINE
  5
55a
100
AcDbEntity
  8
0
 62
7
100
AcDbLine
 10
86.742818
 20
-5.240064
 30
0.0
 11
87.131300
 21
-5.269292
 31
0.0
  0
LINE
  5
55b
100
AcDbEntity
  8
0
 62
7
100
AcDbLine
 10
87.131300
 20
-5.269292
 30
0.0
 11
88.056838
 21
-5.269292
 31
0.0
  0
LINE
  5
55c
100
AcDbEntity
  8
0
 62
7
100
AcDbLine
 10
88.056838
 20
-5.269292
 30
0.0
 11
88.817972
 21
-5.356974
 31
0.0
  0
LINE
  5
55d
100
AcDbEntity
  8
0
 62
7
100
AcDbLine
 10
88.817972
 20
-5.356974
 30
0.0
 11
89.376949
 21
-5.620023
 31
0.0
  0
LINE
  5
55e
100
AcDbEntity
  8
0
 62
7
100
AcDbLine
 10
89.376949
 20
-5.620023
 30
0.0
 11
89.577279
 21
-5.813960
 31
0.0
  0
LINE
  5
55f
100
AcDbEntity
  8
0
 62
7
100
AcDbLine
 10
89.577279
 20
-5.813960
 30
0.0
 11
89.720372
 21
-6.049911
 31
0.0
  0
LINE
  5
560
100
AcDbEntity
  8
0
 62
7
100
AcDbLine
 10
89.720372
 20
-6.049911
 30
0.0
 11
89.834847
 21
-6.647857
 31
0.0
  0
LINE
  5
561
100
AcDbEntity
  8
0
 62
7
100
AcDbLine
 10
89.834847
 20
-6.647857
 30
0.0
 11
89.792224
 21
-7.042734
 31
0.0
  0
LINE
  5
562
100
AcDbEntity
  8
0
 62
7
100
AcDbLine
 10
89.792224
 20
-7.042734
 30
0.0
 11
89.664353
 21
-7.389505
 31
0.0
  0
LINE
  5
563
100
AcDbEntity
  8
0
 62
7
100
AcDbLine
 10
89.664353
 20
-7.389505
 30
0.0
 11
89.451235
 21
-7.688175
 31
0.0
  0
LINE
  5
564
100
AcDbEntity
  8
0
 62
7
100
AcDbLine
 10
89.451235
 20
-7.688175
 30
0.0
 11
89.152871
 21
-7.938740
 31
0.0
  0
LINE
  5
565
100
AcDbEntity
  8
0
 62
7
100
AcDbLine
 10
89.152871
 20
-7.938740
 30
0.0
 11
88.778089
 21
-8.139070
 31
0.0
  0
LINE
  5
566
100
AcDbEntity
  8
0
 62
7
100
AcDbLine
 10
88.778089
 20
-8.139070
 30
0.0
 11
88.330846
 21
-8.282163
 31
0.0
  0
LINE
  5
567
100
AcDbEntity
  8
0
 62
7
100
AcDbLine
 10
88.330846
 20
-8.282163
 30
0.0
 11
87.218982
 21
-8.396638
 31
0.0
  0
LINE
  5
568
100
AcDbEntity
  8
0
 62
7
100
AcDbLine
 10
87.218982
 20
-8.396638
 30
0.0
 11
86.332414
 21
-8.300430
 31
0.0
  0
LINE
  5
569
100
AcDbEntity
  8
0
 62
7
100
AcDbLine
 10
86.332414
 20
-8.300430
 30
0.0
 11
85.669924
 21
-8.011809
 31
0.0
  0
LINE
  5
56a
100
AcDbEntity
  8
0
 62
7
100
AcDbLine
 10
85.669924
 20
-8.011809
 30
0.0
 11
85.431233
 21
-7.800518
 31
0.0
  0
LINE
  5
56b
100
AcDbEntity
  8
0
 62
7
100
AcDbLine
 10
85.431233
 20
-7.800518
 30
0.0
 11
85.260738
 21
-7.551476
 31
0.0
  0
LINE
  5
56c
100
AcDbEntity
  8
0
 62
7
100
AcDbLine
 10
85.260738
 20
-7.551476
 30
0.0
 11
85.158441
 21
-7.264681
 31
0.0
  0
LINE
  5
56d
100
AcDbEntity
  8
0
 62
7
100
AcDbLine
 10
85.158441
 20
-7.264681
 30
0.0
 11
85.124343
 21
-6.940133
 31
0.0
  0
LINE
  5
56e
100
AcDbEntity
  8
0
 62
7
100
AcDbLine
 10
85.124343
 20
-6.940133
 30
0.0
 11
85.208372
 21
-6.440829
 31
0.0
  0
LINE
  5
56f
100
AcDbEntity
  8
0
 62
7
100
AcDbLine
 10
85.208372
 20
-6.440829
 30
0.0
 11
85.460460
 21
-6.034080
 31
0.0
  0
LINE
  5
570
100
AcDbEntity
  8
0
 62
7
100
AcDbLine
 10
85.460460
 20
-6.034080
 30
0.0
 11
85.861120
 21
-5.730844
 31
0.0
  0
LINE
  5
571
100
AcDbEntity
  8
0
 62
7
100
AcDbLine
 10
85.861120
 20
-5.730844
 30
0.0
 11
86.381127
 21
-5.542082
 31
0.0
  0
LINE
  5
572
100
AcDbEntity
  8
0
 62
7
100
AcDbLine
 10
86.381127
 20
-5.542082
 30
0.0
 11
85.996297
 21
-5.254678
 31
0.0
  0
LINE
  5
573
100
AcDbEntity
  8
0
 62
7
100
AcDbLine
 10
85.996297
 20
-5.254678
 30
0.0
 11
85.890348
 21
-5.051304
 31
0.0
  0
LINE
  5
574
100
AcDbEntity
  8
0
 62
7
100
AcDbLine
 10
85.890348
 20
-5.051304
 30
0.0
 11
85.855032
 21
-4.821137
 31
0.0
  0
LINE
  5
575
100
AcDbEntity
  8
0
 62
7
100
AcDbLine
 10
85.855032
 20
-4.821137
 30
0.0
 11
85.897350
 21
-4.563569
 31
0.0
  0
LINE
  5
576
100
AcDbEntity
  8
0
 62
7
100
AcDbLine
 10
85.897350
 20
-4.563569
 30
0.0
 11
86.024307
 21
-4.321833
 31
0.0
  0
LINE
  5
577
100
AcDbEntity
  8
0
 62
7
100
AcDbLine
 10
86.024307
 20
-4.321833
 30
0.0
 11
86.235903
 21
-4.095929
 31
0.0
  0
LINE
  5
578
100
AcDbEntity
  8
0
 62
7
100
AcDbLine
 10
86.235903
 20
-4.095929
 30
0.0
 11
86.532136
 21
-3.885856
 31
0.0
  0
LINE
  5
579
100
AcDbEntity
  8
0
 62
7
100
AcDbLine
 10
86.532136
 20
-3.885856
 30
0.0
 11
86.120515
 21
-3.642294
 31
0.0
  0
LINE
  5
57a
100
AcDbEntity
  8
0
 62
7
100
AcDbLine
 10
86.120515
 20
-3.642294
 30
0.0
 11
85.811189
 21
-3.291563
 31
0.0
  0
LINE
  5
57b
100
AcDbEntity
  8
0
 62
7
100
AcDbLine
 10
85.811189
 20
-3.291563
 30
0.0
 11
85.617557
 21
-2.853150
 31
0.0
  0
LINE
  5
57c
100
AcDbEntity
  8
0
 62
7
100
AcDbLine
 10
85.617557
 20
-2.853150
 30
0.0
 11
85.553013
 21
-2.356282
 31
0.0
  0
LINE
  5
57d
100
AcDbEntity
  8
0
 62
7
100
AcDbLine
 10
85.553013
 20
-2.356282
 30
0.0
 11
85.584372
 21
-1.979064
 31
0.0
  0
LINE
  5
57e
100
AcDbEntity
  8
0
 62
7
100
AcDbLine
 10
85.584372
 20
-1.979064
 30
0.0
 11
85.678448
 21
-1.641425
 31
0.0
  0
LINE
  5
57f
100
AcDbEntity
  8
0
 62
7
100
AcDbLine
 10
85.678448
 20
-1.641425
 30
0.0
 11
85.835241
 21
-1.343365
 31
0.0
  0
LINE
  5
580
100
AcDbEntity
  8
0
 62
7
100
AcDbLine
 10
85.835241
 20
-1.343365
 30
0.0
 11
86.054752
 21
-1.084883
 31
0.0
  0
LINE
  5
581
100
AcDbEntity
  8
0
 62
7
100
AcDbLine
 10
86.054752
 20
-1.084883
 30
0.0
 11
86.329978
 21
-0.873897
 31
0.0
  0
LINE
  5
582
100
AcDbEntity
  8
0
 62
7
100
AcDbLine
 10
86.329978
 20
-0.873897
 30
0.0
 11
86.649046
 21
-0.723193
 31
0.0
  0
LINE
  5
583
100
AcDbEntity
  8
0
 62
7
100
AcDbLine
 10
86.649046
 20
-0.723193
 30
0.0
 11
87.418704
 21
-0.602629
 31
0.0
  0
LINE
  5
584
100
AcDbEntity
  8
0
 62
7
100
AcDbLine
 10
87.418704
 20
-0.602629
 30
0.0
 11
88.227332
 21
-0.704925
 31
0.0
  0
LINE
  5
585
100
AcDbEntity
  8
0
 62
7
100
AcDbLine
 10
88.227332
 20
-0.704925
 30
0.0
 11
89.922529
 21
-0.704925
 31
0.0
  0
LINE
  5
586
100
AcDbEntity
  8
0
 62
7
100
AcDbLine
 10
85.635825
 20
-6.896292
 30
0.0
 11
85.737208
 21
-7.373674
 31
0.0
  0
LINE
  5
587
100
AcDbEntity
  8
0
 62
7
100
AcDbLine
 10
85.737208
 20
-7.373674
 30
0.0
 11
86.041357
 21
-7.714663
 31
0.0
  0
LINE
  5
588
100
AcDbEntity
  8
0
 62
7
100
AcDbLine
 10
86.041357
 20
-7.714663
 30
0.0
 11
86.548272
 21
-7.919256
 31
0.0
  0
LINE
  5
589
100
AcDbEntity
  8
0
 62
7
100
AcDbLine
 10
86.548272
 20
-7.919256
 30
0.0
 11
87.257953
 21
-7.987453
 31
0.0
  0
LINE
  5
58a
100
AcDbEntity
  8
0
 62
7
100
AcDbLine
 10
87.257953
 20
-7.987453
 30
0.0
 11
88.170096
 21
-7.904337
 31
0.0
  0
LINE
  5
58b
100
AcDbEntity
  8
0
 62
7
100
AcDbLine
 10
88.170096
 20
-7.904337
 30
0.0
 11
88.821626
 21
-7.654990
 31
0.0
  0
LINE
  5
58c
100
AcDbEntity
  8
0
 62
7
100
AcDbLine
 10
88.821626
 20
-7.654990
 30
0.0
 11
89.049661
 21
-7.467978
 31
0.0
  0
LINE
  5
58d
100
AcDbEntity
  8
0
 62
7
100
AcDbLine
 10
89.049661
 20
-7.467978
 30
0.0
 11
89.212544
 21
-7.239411
 31
0.0
  0
LINE
  5
58e
100
AcDbEntity
  8
0
 62
7
100
AcDbLine
 10
89.212544
 20
-7.239411
 30
0.0
 11
89.310274
 21
-6.969285
 31
0.0
  0
LINE
  5
58f
100
AcDbEntity
  8
0
 62
7
100
AcDbLine
 10
89.310274
 20
-6.969285
 30
0.0
 11
89.342850
 21
-6.657600
 31
0.0
  0
LINE
  5
590
100
AcDbEntity
  8
0
 62
7
100
AcDbLine
 10
89.342850
 20
-6.657600
 30
0.0
 11
89.261257
 21
-6.245979
 31
0.0
  0
LINE
  5
591
100
AcDbEntity
  8
0
 62
7
100
AcDbLine
 10
89.261257
 20
-6.245979
 30
0.0
 11
89.016476
 21
-5.965881
 31
0.0
  0
LINE
  5
592
100
AcDbEntity
  8
0
 62
7
100
AcDbLine
 10
89.016476
 20
-5.965881
 30
0.0
 11
88.589023
 21
-5.805130
 31
0.0
  0
LINE
  5
593
100
AcDbEntity
  8
0
 62
7
100
AcDbLine
 10
88.589023
 20
-5.805130
 30
0.0
 11
87.959414
 21
-5.751546
 31
0.0
  0
LINE
  5
594
100
AcDbEntity
  8
0
 62
7
100
AcDbLine
 10
87.959414
 20
-5.751546
 30
0.0
 11
87.092330
 21
-5.751546
 31
0.0
  0
LINE
  5
595
100
AcDbEntity
  8
0
 62
7
100
AcDbLine
 10
87.092330
 20
-5.751546
 30
0.0
 11
86.455110
 21
-5.823093
 31
0.0
  0
LINE
  5
596
100
AcDbEntity
  8
0
 62
7
100
AcDbLine
 10
86.455110
 20
-5.823093
 30
0.0
 11
85.999951
 21
-6.037733
 31
0.0
  0
LINE
  5
597
100
AcDbEntity
  8
0
 62
7
100
AcDbLine
 10
85.999951
 20
-6.037733
 30
0.0
 11
85.726857
 21
-6.395465
 31
0.0
  0
LINE
  5
598
100
AcDbEntity
  8
0
 62
7
100
AcDbLine
 10
85.726857
 20
-6.395465
 30
0.0
 11
85.635825
 21
-6.896292
 31
0.0
  0
LINE
  5
599
100
AcDbEntity
  8
0
 62
7
100
AcDbLine
 10
85.635825
 20
-6.896292
 30
0.0
 11
85.635825
 21
-6.896292
 31
0.0
  0
LINE
  5
59a
100
AcDbEntity
  8
0
 62
7
100
AcDbLine
 10
86.040138
 20
-2.356282
 30
0.0
 11
86.132692
 21
-2.901863
 31
0.0
  0
LINE
  5
59b
100
AcDbEntity
  8
0
 62
7
100
AcDbLine
 10
86.132692
 20
-2.901863
 30
0.0
 11
86.410354
 21
-3.311048
 31
0.0
  0
LINE
  5
59c
100
AcDbEntity
  8
0
 62
7
100
AcDbLine
 10
86.410354
 20
-3.311048
 30
0.0
 11
86.847549
 21
-3.563135
 31
0.0
  0
LINE
  5
59d
100
AcDbEntity
  8
0
 62
7
100
AcDbLine
 10
86.847549
 20
-3.563135
 30
0.0
 11
87.408962
 21
-3.647164
 31
0.0
  0
LINE
  5
59e
100
AcDbEntity
  8
0
 62
7
100
AcDbLine
 10
87.408962
 20
-3.647164
 30
0.0
 11
87.993512
 21
-3.563135
 31
0.0
  0
LINE
  5
59f
100
AcDbEntity
  8
0
 62
7
100
AcDbLine
 10
87.993512
 20
-3.563135
 30
0.0
 11
88.422183
 21
-3.311048
 31
0.0
  0
LINE
  5
5a0
100
AcDbEntity
  8
0
 62
7
100
AcDbLine
 10
88.422183
 20
-3.311048
 30
0.0
 11
88.688885
 21
-2.899427
 31
0.0
  0
LINE
  5
5a1
100
AcDbEntity
  8
0
 62
7
100
AcDbLine
 10
88.688885
 20
-2.899427
 30
0.0
 11
88.777785
 21
-2.336797
 31
0.0
  0
LINE
  5
5a2
100
AcDbEntity
  8
0
 62
7
100
AcDbLine
 10
88.777785
 20
-2.336797
 30
0.0
 11
88.686449
 21
-1.744939
 31
0.0
  0
LINE
  5
5a3
100
AcDbEntity
  8
0
 62
7
100
AcDbLine
 10
88.686449
 20
-1.744939
 30
0.0
 11
88.412439
 21
-1.323576
 31
0.0
  0
LINE
  5
5a4
100
AcDbEntity
  8
0
 62
7
100
AcDbLine
 10
88.412439
 20
-1.323576
 30
0.0
 11
87.978898
 21
-1.067835
 31
0.0
  0
LINE
  5
5a5
100
AcDbEntity
  8
0
 62
7
100
AcDbLine
 10
87.978898
 20
-1.067835
 30
0.0
 11
87.399218
 21
-0.982587
 31
0.0
  0
LINE
  5
5a6
100
AcDbEntity
  8
0
 62
7
100
AcDbLine
 10
87.399218
 20
-0.982587
 30
0.0
 11
86.832935
 21
-1.073923
 31
0.0
  0
LINE
  5
5a7
100
AcDbEntity
  8
0
 62
7
100
AcDbLine
 10
86.832935
 20
-1.073923
 30
0.0
 11
86.400611
 21
-1.347932
 31
0.0
  0
LINE
  5
5a8
100
AcDbEntity
  8
0
 62
7
100
AcDbLine
 10
86.400611
 20
-1.347932
 30
0.0
 11
86.130256
 21
-1.780256
 31
0.0
  0
LINE
  5
5a9
100
AcDbEntity
  8
0
 62
7
100
AcDbLine
 10
86.130256
 20
-1.780256
 30
0.0
 11
86.040138
 21
-2.356282
 31
0.0
  0
LINE
  5
5aa
100
AcDbEntity
  8
0
 62
7
100
AcDbLine
 10
86.040138
 20
-2.356282
 30
0.0
 11
86.040138
 21
-2.356282
 31
0.0
  0
LINE
  5
5ab
100
AcDbEntity
  8
0
 62
7
100
AcDbLine
 10
93.152172
 20
-6.097406
 30
0.0
 11
92.606591
 21
-6.052956
 31
0.0
  0
LINE
  5
5ac
100
AcDbEntity
  8
0
 62
7
100
AcDbLine
 10
92.606591
 20
-6.052956
 30
0.0
 11
92.124337
 21
-5.919604
 31
0.0
  0
LINE
  5
5ad
100
AcDbEntity
  8
0
 62
7
100
AcDbLine
 10
92.124337
 20
-5.919604
 30
0.0
 11
91.705408
 21
-5.697354
 31
0.0
  0
LINE
  5
5ae
100
AcDbEntity
  8
0
 62
7
100
AcDbLine
 10
91.705408
 20
-5.697354
 30
0.0
 11
91.349807
 21
-5.386203
 31
0.0
  0
LINE
  5
5af
100
AcDbEntity
  8
0
 62
7
100
AcDbLine
 10
91.349807
 20
-5.386203
 30
0.0
 11
91.068492
 21
-4.994980
 31
0.0
  0
LINE
  5
5b0
100
AcDbEntity
  8
0
 62
7
100
AcDbLine
 10
91.068492
 20
-4.994980
 30
0.0
 11
90.867553
 21
-4.532515
 31
0.0
  0
LINE
  5
5b1
100
AcDbEntity
  8
0
 62
7
100
AcDbLine
 10
90.867553
 20
-4.532515
 30
0.0
 11
90.746988
 21
-3.998809
 31
0.0
  0
LINE
  5
5b2
100
AcDbEntity
  8
0
 62
7
100
AcDbLine
 10
90.746988
 20
-3.998809
 30
0.0
 11
90.706801
 21
-3.393859
 31
0.0
  0
LINE
  5
5b3
100
AcDbEntity
  8
0
 62
7
100
AcDbLine
 10
90.706801
 20
-3.393859
 30
0.0
 11
90.745772
 21
-2.792259
 31
0.0
  0
LINE
  5
5b4
100
AcDbEntity
  8
0
 62
7
100
AcDbLine
 10
90.745772
 20
-2.792259
 30
0.0
 11
90.862682
 21
-2.253985
 31
0.0
  0
LINE
  5
5b5
100
AcDbEntity
  8
0
 62
7
100
AcDbLine
 10
90.862682
 20
-2.253985
 30
0.0
 11
91.057532
 21
-1.779038
 31
0.0
  0
LINE
  5
5b6
100
AcDbEntity
  8
0
 62
7
100
AcDbLine
 10
91.057532
 20
-1.779038
 30
0.0
 11
91.330322
 21
-1.367417
 31
0.0
  0
LINE
  5
5b7
100
AcDbEntity
  8
0
 62
7
100
AcDbLine
 10
91.330322
 20
-1.367417
 30
0.0
 11
91.669179
 21
-1.032822
 31
0.0
  0
LINE
  5
5b8
100
AcDbEntity
  8
0
 62
7
100
AcDbLine
 10
91.669179
 20
-1.032822
 30
0.0
 11
92.062228
 21
-0.793825
 31
0.0
  0
LINE
  5
5b9
100
AcDbEntity
  8
0
 62
7
100
AcDbLine
 10
92.062228
 20
-0.793825
 30
0.0
 11
92.509471
 21
-0.650429
 31
0.0
  0
LINE
  5
5ba
100
AcDbEntity
  8
0
 62
7
100
AcDbLine
 10
92.509471
 20
-0.650429
 30
0.0
 11
93.010905
 21
-0.602629
 31
0.0
  0
LINE
  5
5bb
100
AcDbEntity
  8
0
 62
7
100
AcDbLine
 10
93.010905
 20
-0.602629
 30
0.0
 11
93.453886
 21
-0.643425
 31
0.0
  0
LINE
  5
5bc
100
AcDbEntity
  8
0
 62
7
100
AcDbLine
 10
93.453886
 20
-0.643425
 30
0.0
 11
93.847543
 21
-0.765817
 31
0.0
  0
LINE
  5
5bd
100
AcDbEntity
  8
0
 62
7
100
AcDbLine
 10
93.847543
 20
-0.765817
 30
0.0
 11
94.191881
 21
-0.969800
 31
0.0
  0
LINE
  5
5be
100
AcDbEntity
  8
0
 62
7
100
AcDbLine
 10
94.191881
 20
-0.969800
 30
0.0
 11
94.486896
 21
-1.255378
 31
0.0
  0
LINE
  5
5bf
100
AcDbEntity
  8
0
 62
7
100
AcDbLine
 10
94.486896
 20
-1.255378
 30
0.0
 11
94.723456
 21
-1.610980
 31
0.0
  0
LINE
  5
5c0
100
AcDbEntity
  8
0
 62
7
100
AcDbLine
 10
94.723456
 20
-1.610980
 30
0.0
 11
94.892428
 21
-2.025037
 31
0.0
  0
LINE
  5
5c1
100
AcDbEntity
  8
0
 62
7
100
AcDbLine
 10
94.892428
 20
-2.025037
 30
0.0
 11
94.993811
 21
-2.497548
 31
0.0
  0
LINE
  5
5c2
100
AcDbEntity
  8
0
 62
7
100
AcDbLine
 10
94.993811
 20
-2.497548
 30
0.0
 11
95.027605
 21
-3.028515
 31
0.0
  0
LINE
  5
5c3
100
AcDbEntity
  8
0
 62
7
100
AcDbLine
 10
95.027605
 20
-3.028515
 30
0.0
 11
95.027605
 21
-3.418216
 31
0.0
  0
LINE
  5
5c4
100
AcDbEntity
  8
0
 62
7
100
AcDbLine
 10
95.027605
 20
-3.418216
 30
0.0
 11
91.213412
 21
-3.418216
 31
0.0
  0
LINE
  5
5c5
100
AcDbEntity
  8
0
 62
7
100
AcDbLine
 10
91.213412
 20
-3.418216
 30
0.0
 11
91.248727
 21
-3.931524
 31
0.0
  0
LINE
  5
5c6
100
AcDbEntity
  8
0
 62
7
100
AcDbLine
 10
91.248727
 20
-3.931524
 30
0.0
 11
91.344935
 21
-4.380288
 31
0.0
  0
LINE
  5
5c7
100
AcDbEntity
  8
0
 62
7
100
AcDbLine
 10
91.344935
 20
-4.380288
 30
0.0
 11
91.502032
 21
-4.764509
 31
0.0
  0
LINE
  5
5c8
100
AcDbEntity
  8
0
 62
7
100
AcDbLine
 10
91.502032
 20
-4.764509
 30
0.0
 11
91.720022
 21
-5.084185
 31
0.0
  0
LINE
  5
5c9
100
AcDbEntity
  8
0
 62
7
100
AcDbLine
 10
91.720022
 20
-5.084185
 30
0.0
 11
91.997684
 21
-5.335663
 31
0.0
  0
LINE
  5
5ca
100
AcDbEntity
  8
0
 62
7
100
AcDbLine
 10
91.997684
 20
-5.335663
 30
0.0
 11
92.328929
 21
-5.515290
 31
0.0
  0
LINE
  5
5cb
100
AcDbEntity
  8
0
 62
7
100
AcDbLine
 10
92.328929
 20
-5.515290
 30
0.0
 11
92.713759
 21
-5.623067
 31
0.0
  0
LINE
  5
5cc
100
AcDbEntity
  8
0
 62
7
100
AcDbLine
 10
92.713759
 20
-5.623067
 30
0.0
 11
93.152172
 21
-5.658993
 31
0.0
  0
LINE
  5
5cd
100
AcDbEntity
  8
0
 62
7
100
AcDbLine
 10
93.152172
 20
-5.658993
 30
0.0
 11
93.946187
 21
-5.595667
 31
0.0
  0
LINE
  5
5ce
100
AcDbEntity
  8
0
 62
7
100
AcDbLine
 10
93.946187
 20
-5.595667
 30
0.0
 11
94.818141
 21
-5.322876
 31
0.0
  0
LINE
  5
5cf
100
AcDbEntity
  8
0
 62
7
100
AcDbLine
 10
94.818141
 20
-5.322876
 30
0.0
 11
94.818141
 21
-5.761289
 31
0.0
  0
LINE
  5
5d0
100
AcDbEntity
  8
0
 62
7
100
AcDbLine
 10
94.818141
 20
-5.761289
 30
0.0
 11
93.990028
 21
-6.024336
 31
0.0
  0
LINE
  5
5d1
100
AcDbEntity
  8
0
 62
7
100
AcDbLine
 10
93.990028
 20
-6.024336
 30
0.0
 11
93.152172
 21
-6.097406
 31
0.0
  0
LINE
  5
5d2
100
AcDbEntity
  8
0
 62
7
100
AcDbLine
 10
93.152172
 20
-6.097406
 30
0.0
 11
93.152172
 21
-6.097406
 31
0.0
  0
LINE
  5
5d3
100
AcDbEntity
  8
0
 62
7
100
AcDbLine
 10
93.010905
 20
-1.031300
 30
0.0
 11
92.647387
 21
-1.062963
 31
0.0
  0
LINE
  5
5d4
100
AcDbEntity
  8
0
 62
7
100
AcDbLine
 10
92.647387
 20
-1.062963
 30
0.0
 11
92.321621
 21
-1.157953
 31
0.0
  0
LINE
  5
5d5
100
AcDbEntity
  8
0
 62
7
100
AcDbLine
 10
92.321621
 20
-1.157953
 30
0.0
 11
92.033608
 21
-1.316268
 31
0.0
  0
LINE
  5
5d6
100
AcDbEntity
  8
0
 62
7
100
AcDbLine
 10
92.033608
 20
-1.316268
 30
0.0
 11
91.783348
 21
-1.537911
 31
0.0
  0
LINE
  5
5d7
100
AcDbEntity
  8
0
 62
7
100
AcDbLine
 10
91.783348
 20
-1.537911
 30
0.0
 11
91.576015
 21
-1.816790
 31
0.0
  0
LINE
  5
5d8
100
AcDbEntity
  8
0
 62
7
100
AcDbLine
 10
91.576015
 20
-1.816790
 30
0.0
 11
91.416786
 21
-2.151688
 31
0.0
  0
LINE
  5
5d9
100
AcDbEntity
  8
0
 62
7
100
AcDbLine
 10
91.416786
 20
-2.151688
 30
0.0
 11
91.242639
 21
-2.989545
 31
0.0
  0
LINE
  5
5da
100
AcDbEntity
  8
0
 62
7
100
AcDbLine
 10
91.242639
 20
-2.989545
 30
0.0
 11
94.516123
 21
-2.989545
 31
0.0
  0
LINE
  5
5db
100
AcDbEntity
  8
0
 62
7
100
AcDbLine
 10
94.516123
 20
-2.989545
 30
0.0
 11
94.416262
 21
-2.169956
 31
0.0
  0
LINE
  5
5dc
100
AcDbEntity
  8
0
 62
7
100
AcDbLine
 10
94.416262
 20
-2.169956
 30
0.0
 11
94.291437
 21
-1.835970
 31
0.0
  0
LINE
  5
5dd
100
AcDbEntity
  8
0
 62
7
100
AcDbLine
 10
94.291437
 20
-1.835970
 30
0.0
 11
94.116680
 21
-1.552525
 31
0.0
  0
LINE
  5
5de
100
AcDbEntity
  8
0
 62
7
100
AcDbLine
 10
94.116680
 20
-1.552525
 30
0.0
 11
93.897778
 21
-1.324489
 31
0.0
  0
LINE
  5
5df
100
AcDbEntity
  8
0
 62
7
100
AcDbLine
 10
93.897778
 20
-1.324489
 30
0.0
 11
93.640514
 21
-1.161607
 31
0.0
  0
LINE
  5
5e0
100
AcDbEntity
  8
0
 62
7
100
AcDbLine
 10
93.640514
 20
-1.161607
 30
0.0
 11
93.344891
 21
-1.063876
 31
0.0
  0
LINE
  5
5e1
100
AcDbEntity
  8
0
 62
7
100
AcDbLine
 10
93.344891
 20
-1.063876
 30
0.0
 11
93.010905
 21
-1.031300
 31
0.0
  0
LINE
  5
5e2
100
AcDbEntity
  8
0
 62
7
100
AcDbLine
 10
93.010905
 20
-1.031300
 30
0.0
 11
93.010905
 21
-1.031300
 31
0.0
  0
ENDSEC
  0
SECTION
  2
OBJECTS
  0
DICTIONARY
  5
C
330
0
100
AcDbDictionary
  3
ACAD_GROUP
350
D
  3
ACAD_MLINESTYLE
350
17
  0
DICTIONARY
  5
D
330
C
100
AcDbDictionary
  0
DICTIONARY
  5
1A
330
C
100
AcDbDictionary
  0
DICTIONARY
  5
17
330
C
100
AcDbDictionary
  3
STANDARD
350
18
  0
DICTIONARY
  5
19
330
C
100
AcDbDictionary
  0
ENDSEC
  0
EOF
